<svg xmlns="http://www.w3.org/2000/svg" width="32" height="32" viewBox="0 0 1024 1024">
<title>0</title>
<g transform="translate(0,960) scale(1,-1)">
<path fill="#444" d="M166.402 395.595c0 125.274 26.382 240.808 79.246 346.526 65.498 131.022 155.176 196.546 268.956 196.546 112.604 0 200.528-55.796 263.748-167.222 52.826-91.982 79.246-198.876 79.246-320.656 0-126.478-26.42-240.822-79.246-343.082-64.398-128.744-154.050-193.040-268.944-193.040-109.198 0-195.906 55.13-260.304 165.454-55.144 94.222-82.702 199.376-82.702 315.474zM311.16 452.479c0-165.456 24.704-294.2 74.176-386.156 34.446-64.32 78.67-96.526 132.7-96.526 129.87 0 194.83 134.478 194.83 403.436 0 118.324-10.354 218.358-31.002 299.958-35.648 134.454-95.976 201.732-181.058 201.732-126.452 0-189.646-129.922-189.646-389.676v-32.768z"/>
</g>
</svg>