<svg xmlns="http://www.w3.org/2000/svg" width="32" height="32" viewBox="0 0 1024 1024">
<title>10</title>
<g transform="translate(0,960) scale(1,-1)">
<path fill="#444" d="M264.254 867.765v-709.298c0-84.346 36.098-126.534 108.182-126.534h18.352v-48.094h-377.802v48.094h24.286c69.342 0 104.062 42.188 104.062 126.534v465.188c0 85.5-30.306 128.292-90.942 128.292h-37.406v48.15h14.286c73.66 0 140.19 22.556 199.562 67.682l37.42-0.014zM401.504 399.091c0 110.488 23.146 212.090 69.468 304.706 58.248 115.214 137.884 172.87 238.81 172.87 97.468 0 174.684-49.332 231.694-147.882 46.35-80.83 69.538-174.108 69.538-279.814 0-110.518-23.174-211.486-69.538-302.978-58.234-112.908-137.208-169.326-236.996-169.326-96.216 0-172.87 48.726-229.95 146.18-48.712 81.956-73.026 174.038-73.026 276.244zM529.782 450.785c0-93.938 10.096-178.258 30.318-253.070 30.896-115.242 81.352-172.898 151.468-172.898 114.060 0 171.070 118.786 171.070 356.428 0 293.47-61.79 440.17-185.372 440.17-111.67 0-167.512-113.976-167.512-342.112l0.028-28.518z"/>
</g>
</svg>