<svg xmlns="http://www.w3.org/2000/svg" width="32" height="32" viewBox="0 0 1024 1024">
<title>11</title>
<g transform="translate(0,960) scale(1,-1)">
<path fill="#444" d="M358.53 877.027v-722.748c0-85.992 35.766-128.94 107.132-128.94h18.182v-49.032h-384.986v49.032h25.418c72.63 0 108.994 42.948 108.994 128.94v473.966c0 87.186-30.89 130.716-92.66 130.716h-38.142v49.032h14.558c75.060 0 142.83 22.988 203.348 69.018l38.156 0.016zM819.828 877.027v-722.748c0-85.992 35.696-128.94 107.146-128.94h18.168v-49.032h-385.058v49.032h25.42c72.714 0 108.994 42.948 108.994 128.94v473.966c0 87.186-30.892 130.716-92.59 130.716h-38.126v49.032h14.486c75.060 0 142.828 22.988 203.432 69.018l38.128 0.016z"/>
</g>
</svg>