<svg xmlns="http://www.w3.org/2000/svg" width="32" height="32" viewBox="0 0 1024 1024">
<title>12</title>
<g transform="translate(0,960) scale(1,-1)">
<path fill="#444" d="M268.362 876.667v-718.89c0-85.876 35.492-128.868 106.372-128.868h18.682v-50.356h-382.76v50.356h22.408c72.182 0 108.258 42.992 108.258 128.868v472.438c0 87.048-29.864 130.666-89.576 130.666h-39.204v48.56h14.894c74.682 0 141.922 22.38 201.65 67.212l39.276 0.014zM1013.344 198.897l-65.354-222.23h-547.12v48.53c26.21 29.864 84.036 89.65 173.686 179.298 53.486 53.5 107.058 110.772 160.616 171.726 26.136 29.952 46.646 54.788 61.614 74.77 31.076 47.244 46.644 94.502 46.644 141.834 0 47.33-14.34 89.050-42.946 125.14-28.636 36.12-66.642 54.158-113.886 54.158-98.39 0-175.584-67.212-231.584-201.708l-48.546 18.696c67.256 186.74 171.786 280.13 313.708 280.13 69.68 0 129.466-23.694 179.24-70.968 49.758-47.332 74.68-106.43 74.68-177.412 0-90.848-51.658-179.24-154.916-265.176l-106.446-85.85c-68.526-57.3-125.14-111.458-169.972-162.414-3.712-3.83-9.954-10.656-18.608-20.612h285.686c43.544 0 75.894 8.142 97.104 24.324 21.122 16.108 40.432 45.418 57.826 87.764h48.574z"/>
</g>
</svg>