<svg xmlns="http://www.w3.org/2000/svg" width="32" height="32" viewBox="0 0 1024 1024">
<title>13</title>
<g transform="translate(0,960) scale(1,-1)">
<path fill="#444" d="M273.492 876.087v-722.152c0-84.9 36.12-127.268 108.33-127.268h17.094v-49.42h-383.844v49.42h24.74c73.46 0 110.176 42.368 110.176 127.268v473.238c0 87.37-31.078 131.122-93.098 131.122h-38.054v49.33h15.234c74.694 0 141.892 22.836 201.428 68.462h37.994zM596.566 397.197l-22.806 41.848 17.152 9.536c56.992 35.39 109.894 71.184 158.674 107.334 48.706 36.090 73.148 76.91 73.148 122.552 0 31.672-12.066 57.988-36.106 78.86-24.056 20.946-50.728 31.376-79.798 31.376-73.534 0-150.788-44.362-231.894-133.072l-37.98 28.534c83.59 126.688 186.208 190.078 307.824 190.078 53.2 0 98.216-13.316 134.93-39.93 43.084-29.232 64.654-69.1 64.654-119.77 0-35.51-15.234-70.292-45.626-104.448-17.778-19.028-48.17-45.002-91.238-77.954l-17.094-15.218c7.588 1.22 17.094 1.918 28.534 1.918 55.758 0 101.31-21.272 136.79-63.626 35.496-42.428 53.198-90.94 53.198-145.358 0-96.326-40.524-176.138-121.646-239.454-73.46-60.784-158.984-91.266-256.47-91.266-90.018 0-160.296 19.026-210.95 57.066l26.6 37.98c59.536-27.834 113.968-41.848 163.374-41.848 70.976 0 134.32 23.416 190.062 70.366 55.758 46.832 83.592 105.148 83.592 174.828 0 46.862-13.926 86.73-41.76 119.682-27.922 32.952-64.652 49.42-110.264 49.42-40.494-0.014-85.496-16.498-134.9-49.434z"/>
</g>
</svg>