<svg xmlns="http://www.w3.org/2000/svg" width="32" height="32" viewBox="0 0 1024 1024">
<title>14</title>
<g transform="translate(0,960) scale(1,-1)">
<path fill="#444" d="M265.038 865.725v-705.454c0-83.254 34.636-124.888 103.838-124.888h16.468v-47.776h-371.934v47.776h23.734c70.47 0 105.706 41.634 105.706 124.888v462.954c0 84.55-29.828 126.788-89.324 126.788h-36.49v47.746h14.598c71.656 0 136.704 22.636 195.016 67.952l38.388 0.014zM879.366 237.443v-73.476c0-82.074 28.486-123.118 85.67-123.118h23.662v-47.69h-348.186v47.69h27.372c57.126 0 85.684 40.454 85.684 121.234v75.36h-350.042v73.474l370.078 543.822h105.778v-554.808h9.118c35.25 0 61.352 28.086 78.334 84.462h43.756l-21.878-146.964-109.346 0.014zM782.708 310.917v462.926l-309.91-462.926h309.91z"/>
</g>
</svg>