<svg xmlns="http://www.w3.org/2000/svg" width="32" height="32" viewBox="0 0 1024 1024">
<title>15</title>
<g transform="translate(0,960) scale(1,-1)">
<path fill="#444" d="M295.15 866.409v-701.468c0-83.406 34.716-125.144 103.992-125.144h17.62v-47.532h-373.61v47.532h24.656c70.492 0 105.772 41.738 105.772 125.144v460.066c0 84.566-29.968 126.868-89.932 126.868h-37.006v47.588h14.116c72.864 0 138.624 22.31 197.374 66.946h37.018zM541.92 848.845h319.014c41.172 0 65.828 4.636 74.078 14.074h45.836l-26.464-119.874h-389.492l-37.004-172.69c55.162 22.31 104.558 33.5 148.034 33.5 84.62 0 155.982-28.27 214.138-84.648 58.156-56.348 87.2-126.84 87.2-211.488 0-98.68-37.57-177.962-112.726-237.954-70.574-55.19-155.788-82.84-255.6-82.84-58.75 0-116.312 8.844-172.69 26.464l17.564 44.028c46.968-12.888 88.72-19.344 125.144-19.344 72.866 0 136.624 24.034 191.248 72.216 54.652 48.182 81.902 108.172 81.902 179.796 0 62.254-20.212 113.402-60.736 153.332-40.578 39.944-91.354 59.936-152.476 59.936-57.564 0-111.002-19.992-160.398-59.936l-29.912 5.284 93.34 400.144z"/>
</g>
</svg>