<svg xmlns="http://www.w3.org/2000/svg" width="32" height="32" viewBox="0 0 1024 1024">
<title>16</title>
<g transform="translate(0,960) scale(1,-1)">
<path fill="#444" d="M304.912 865.075v-701.468c0-83.408 34.714-125.144 103.992-125.144h17.62v-47.534h-373.61v47.534h24.656c70.492 0 105.772 41.736 105.772 125.144v460.066c0 84.564-29.968 126.868-89.932 126.868h-37.006v47.588h14.116c72.864 0 138.624 22.31 197.374 66.946h37.018zM542.166 483.515c64.838 60.938 130.134 91.39 196.010 91.39 71.722 0 129.24-28.474 172.498-85.456 40.232-52.12 60.412-114.958 60.412-188.702 0-80.594-23.578-151.32-70.748-212.248-52.098-66.804-116.948-100.24-194.57-100.24-93.388 0-168.060 40.32-224.038 120.882-50.152 70.77-75.206 154.796-75.206 252.086 0 103.146 28.486 198.218 85.488 285.192 56.96 86.954 133.13 148.624 228.43 184.964 54.054 20.63 111.102 31.022 171.002 31.022v-45.718c-127.742-6.894-223.056-57.998-285.992-153.31-32.32-49.18-53.486-109.080-63.286-179.862zM533.294 395.099c-0.94-17.68-1.454-35.38-1.454-53.070 0-67.778 11.778-130.682 35.358-188.692 30.43-75.632 75.208-113.472 134.168-113.472 51.070 0 89.378 26.016 114.946 78.136 19.636 40.254 29.47 88.888 29.47 145.924 0 60.872-9.364 113.002-28.006 156.238-25.568 58.96-64.86 88.418-117.93 88.418-64.826 0.012-120.378-37.85-166.552-113.482z"/>
</g>
</svg>