<svg xmlns="http://www.w3.org/2000/svg" width="32" height="32" viewBox="0 0 1024 1024">
<title>17</title>
<g transform="translate(0,960) scale(1,-1)">
<path fill="#444" d="M307.804 863.739v-701.468c0-83.406 34.714-125.144 103.992-125.144h17.618v-47.532h-373.61v47.532h24.656c70.492 0 105.772 41.738 105.772 125.144v460.066c0 84.566-29.968 126.868-89.932 126.868h-37.004v47.588h14.114c72.866 0 138.624 22.31 197.374 66.946h37.020zM719.804-10.405h-127.222v13.528c0 80.814 25.438 182.032 76.27 303.856 76.87 183.562 147.732 324.234 212.562 422.042l8.982 13.462h-297.826c-42.942 0-75.614-8.95-98.068-26.914-22.498-17.974-39.14-47.936-50.112-89.84h-49.39l53.826 238.010h31.482c18.946-9.988 51.816-14.98 98.79-14.98h389.098v-67.366c-13.932-19.984-31.886-51.902-53.826-95.806-41.938-81.788-80.336-177.104-115.312-285.882-51.828-160.648-78.27-297.312-79.254-410.11z"/>
</g>
</svg>