<svg xmlns="http://www.w3.org/2000/svg" width="32" height="32" viewBox="0 0 1024 1024">
<title>18</title>
<g transform="translate(0,960) scale(1,-1)">
<path fill="#444" d="M302.892 863.739v-701.468c0-83.406 34.714-125.144 103.992-125.144h17.618v-47.532h-373.61v47.532h24.656c70.492 0 105.774 41.738 105.774 125.144l-0.002 460.066c0.002 84.566-29.968 126.868-89.932 126.868h-37.004v47.588h14.114c72.866 0 138.624 22.31 197.374 66.946h37.020zM584.182 432.535l-19.466 13.232c-57.074 38.266-94.682 69.166-112.688 92.758-23.034 29.404-34.518 63.702-34.518 102.996 0 66.708 28.508 121.146 85.604 163.344 53.050 39.228 114.628 58.874 184.724 58.874 66.026 0 124.65-17.188 175.67-51.498 58.010-38.276 87.11-88.802 87.11-151.62 0-76.532-54.61-138.334-163.694-185.396 124.104-58.872 186.184-140.78 186.184-245.764 0-75.548-29.502-135.374-88.628-179.572-52.992-40.232-119.622-60.294-199.674-60.294-75.080 0-139.648 18.608-193.744 55.934-62.080 42.134-93.076 98.080-93.076 167.716s33.036 127.078 99.108 172.218c18.018 11.734 47.084 27.426 87.088 47.072zM635.158 411.643c-90.088-40.178-135.032-103.434-135.032-189.7 0-55.87 18.23-100.724 54.812-134.554 36.536-33.84 83.34-50.732 140.414-50.732 50.998 0 94.336 13.462 129.848 40.374 35.522 26.924 53.304 64.37 53.304 112.328 0 72.4-48.69 131.132-146.034 176.162l-97.312 46.122zM735.848 498.763c79.026 34.32 118.64 85.818 118.64 154.494 0 47.126-16.79 84.856-50.284 113.364-33.582 28.444-74.868 42.68-123.902 42.68-41.076 0-76.586-10.828-106.622-32.386-33.058-23.536-49.538-54.962-49.538-94.19 0-48.078 23.002-86.846 69.070-116.294 8.976-5.866 49.014-24.978 120.136-57.364l22.5-10.304z"/>
</g>
</svg>