<svg xmlns="http://www.w3.org/2000/svg" width="32" height="32" viewBox="0 0 1024 1024">
<title>19</title>
<g transform="translate(0,960) scale(1,-1)">
<path fill="#444" d="M307.6 863.739v-701.468c0-83.406 34.714-125.144 103.992-125.144h17.62v-47.532h-373.61v47.532h24.656c70.492 0 105.772 41.738 105.772 125.144v460.066c0 84.566-29.968 126.868-89.932 126.868h-37.006v47.588h14.114c72.866 0 138.626 22.31 197.376 66.946h37.018zM833.018 366.313c-64.708-60.828-130.006-91.27-195.698-91.27-71.624 0-129.032 28.454-172.182 85.382-40.254 51.988-60.348 114.806-60.348 188.386 0 79.458 23.514 150.536 70.598 213.354 51.048 67.734 115.33 101.574 192.834 101.574 94.208 0 169.242-40.734 225.144-122.17 50.066-71.614 75.032-156.46 75.032-254.614 0-139.272-46.154-256.754-138.276-352.462-92.232-95.63-207.53-143.948-345.862-144.898v45.618c42.166 1.924 75.972 6.84 101.586 14.686 141.194 43.172 223.658 148.614 247.172 316.414zM841.9 454.623c0.94 18.64 1.41 36.298 1.41 52.95 0 68.674-11.736 131.492-35.292 188.376-31.416 75.57-76.488 113.354-135.338 113.354-51.094 0-88.78-26.060-113.364-78.028-19.636-40.242-29.404-88.79-29.404-145.696 0-60.818 9.31-112.806 27.96-155.978 25.482-58.862 64.752-88.32 117.758-88.32 64.686 0 120.084 37.784 166.27 113.342z"/>
</g>
</svg>