<svg xmlns="http://www.w3.org/2000/svg" width="32" height="32" viewBox="0 0 1024 1024">
<title>2</title>
<g transform="translate(0,960) scale(1,-1)">
<path fill="#444" d="M862.39 169.361l-75.47-254.694h-627.084v54.452c30.464 33.944 97.216 102.412 200.27 205.478 62.066 62.106 123.506 127.642 184.408 196.748 30.44 33.934 53.888 63.258 70.234 87.834 36.302 52.66 54.464 106.496 54.464 161.588 0 53.81-16.652 101.272-50.022 142.232-33.37 41.012-76.416 61.544-129.152 61.544-113.548 0-202.534-76.776-266.932-230.144l-56.256 21.080c76.122 215.412 196.11 323.188 360.078 323.188 80.806 0 149.592-27.508 206.386-82.534 56.82-55.040 85.198-122.932 85.198-203.776 0-103.066-59.098-203.75-177.384-302.094l-122.93-101.836c-78.476-65.626-143.514-127.092-194.958-184.474-3.582-3.494-10.572-11.724-21.080-24.588h326.668c50.33 0 88.41 9.932 114.15 29.888 22.208 17.562 43.956 50.944 65.024 100.108h54.388z"/>
</g>
</svg>