<svg xmlns="http://www.w3.org/2000/svg" width="32" height="32" viewBox="0 0 1024 1024">
<title>20</title>
<g transform="translate(0,960) scale(1,-1)">
<path fill="#444" d="M544.412 215.559l-58.48-208.964h-485.932v44.674c23.606 27.852 75.334 84.026 155.19 168.586 48.096 50.954 95.706 104.724 142.9 161.424 23.586 27.84 41.758 51.9 54.424 72.062 28.13 43.204 42.204 87.376 42.204 132.576 0 44.148-12.904 83.090-38.762 116.696-25.858 33.648-59.216 50.492-100.080 50.492-87.99 0-156.946-62.99-206.848-188.822l-43.592 17.296c58.986 176.734 151.966 265.16 279.024 265.16 62.618 0 115.922-22.568 159.932-67.716 44.030-45.158 66.020-100.858 66.020-167.188 0-84.56-45.796-167.168-137.456-247.854l-95.26-83.552c-60.812-53.842-111.21-104.272-151.072-151.352-2.778-2.866-8.194-9.62-16.336-20.174h253.136c39.002 0 68.51 8.15 88.456 24.522 17.21 14.408 34.062 41.798 50.388 82.134h42.144zM522.906 401.173c0 102.784 19.126 197.574 57.45 284.308 47.484 107.498 112.498 161.258 194.986 161.258 81.632 0 145.376-45.778 191.208-137.198 38.296-75.466 57.45-163.168 57.45-263.084 0-103.768-19.154-197.582-57.45-281.482-46.686-105.628-111.682-158.38-194.976-158.38-79.166 0-142.026 45.232-188.712 135.748-39.976 77.304-59.956 163.578-59.956 258.83zM627.85 447.845c0-135.748 17.91-241.378 53.776-316.824 24.972-52.772 57.032-79.194 96.202-79.194 94.152 0 141.246 110.332 141.246 331 0 97.080-7.506 179.152-22.474 246.102-25.844 110.312-69.58 165.51-131.262 165.51-91.674 0-137.488-106.594-137.488-319.71v-26.884z"/>
</g>
</svg>