<svg xmlns="http://www.w3.org/2000/svg" width="32" height="32" viewBox="0 0 1024 1024">
<title>3</title>
<g transform="translate(0,960) scale(1,-1)">
<path fill="#444" d="M378.38 393.861l-25.83 48.268 17.114 10.33c66.228 40.256 126.758 81.024 181.62 122.406 54.834 41.37 82.264 88.512 82.264 141.414 0 35.56-13.17 65.434-39.488 89.576-26.38 24.216-57.24 36.274-92.722 36.274-82.42 0-169.396-51.212-261.018-153.484l-42.932 32.754c95.4 144.846 212.046 217.268 349.966 217.268 60.89 0 112.576-14.95 155.162-44.838 48.268-33.37 72.384-78.758 72.384-136.218 0-41.332-17.268-81.588-51.7-120.652-19.558-23.016-54.092-52.89-103.462-89.652l-20.686-15.526c9.192 1.138 20.122 1.714 32.768 1.714 63.194 0 115.176-24.152 156.008-72.408 40.806-48.27 61.222-104.576 61.222-168.91 0-109.21-46.016-200.538-137.908-274.124-85.082-68.954-183.36-103.386-294.81-103.386-102.284 0-182.732 22.374-241.382 67.188l31.092 43.148c68.954-33.382 131.57-50.010 187.916-50.010 81.574 0 154.254 26.996 218.010 81.024 63.846 54.016 95.68 121.204 95.68 201.664 0 52.89-16.064 97.984-48.256 135.374-32.204 37.312-74.15 55.986-125.85 55.986-47.154-0.026-98.854-18.394-155.162-55.18z"/>
</g>
</svg>