<svg xmlns="http://www.w3.org/2000/svg" width="32" height="32" viewBox="0 0 1024 1024">
<title>5</title>
<g transform="translate(0,960) scale(1,-1)">
<path fill="#444" d="M319.456 921.361h370.444c48.052 0 76.648 5.76 85.8 17.306h53.196l-31.002-139.84h-452.018l-43.624-202.1c65.626 26.496 123.752 39.732 174.4 39.732 98.932 0 182.4-33.114 250.356-99.302 67.904-66.19 101.9-148.762 101.9-247.77 0-115.148-44.352-207.834-133.042-278.042-81.728-64.498-181.274-96.678-298.726-96.678-69.056 0-136.448 10.342-202.048 31.052l20.696 51.79c55.296-14.964 104.206-22.414 146.804-22.414 85.172 0 159.706 27.904 223.654 83.764 63.872 55.782 95.846 125.772 95.846 209.818 0 72.512-23.602 132.096-70.822 178.674-47.218 46.67-107.072 69.992-179.622 69.992-66.726 0-128.896-23.040-186.47-69.070l-34.574 6.886 108.852 466.202z"/>
</g>
</svg>