<svg xmlns="http://www.w3.org/2000/svg" width="32" height="32" viewBox="0 0 1024 1024">
<title>6</title>
<g transform="translate(0,960) scale(1,-1)">
<path fill="#444" d="M340.222 494.825c75.954 71.384 152.444 107.056 229.614 107.056 84.016 0 151.394-33.356 202.068-100.106 47.128-61.054 70.77-134.664 70.77-221.050 0-94.41-27.622-177.262-82.878-248.634-61.030-78.256-136.996-117.424-227.924-117.424-109.4 0-196.872 47.23-262.446 141.602-58.75 82.904-88.1 181.334-88.1 295.302 0 120.83 33.37 232.2 100.146 334.084 66.724 101.86 155.95 174.102 267.59 216.674 63.32 24.166 130.146 36.338 200.314 36.338v-53.554c-149.64-8.076-261.292-67.94-335.018-179.592-37.862-57.612-62.654-127.78-74.136-210.696zM329.828 391.251c-1.1-20.71-1.702-41.446-1.702-62.168 0-79.398 13.798-153.084 41.42-221.038 35.648-88.6 88.1-132.926 157.168-132.926 59.824 0 104.7 30.476 134.652 91.532 23 47.154 34.52 104.124 34.52 170.94 0 71.306-10.968 132.374-32.806 183.022-29.95 69.066-75.978 103.574-138.146 103.574-75.94 0.014-141.014-44.338-195.106-132.936z"/>
</g>
</svg>