<svg xmlns="http://www.w3.org/2000/svg" width="32" height="32" viewBox="0 0 1024 1024">
<title>7</title>
<g transform="translate(0,960) scale(1,-1)">
<path fill="#444" d="M557.61-85.333h-149.032v15.846c0 94.67 29.798 213.238 89.344 355.948 90.050 215.030 173.058 379.818 249.002 494.392l10.522 15.77h-348.882c-50.304 0-88.576-10.482-114.88-31.526-26.356-21.056-45.852-56.154-58.702-105.244h-57.858l63.054 278.814h36.878c22.196-11.7 60.698-17.55 115.726-17.55h455.8v-78.912c-16.32-23.412-37.35-60.8-63.052-112.232-49.128-95.81-94.108-207.464-135.080-334.89-60.712-188.188-91.688-348.28-92.84-480.416z"/>
</g>
</svg>