<svg xmlns="http://www.w3.org/2000/svg" width="32" height="32" viewBox="0 0 1024 1024">
<title>8</title>
<g transform="translate(0,960) scale(1,-1)">
<path fill="#444" d="M393.258 433.541l-22.804 15.5c-66.858 44.826-110.912 81.024-132.006 108.66-26.984 34.444-40.436 74.624-40.436 120.652 0 78.144 33.396 141.914 100.28 191.348 62.144 45.952 134.278 68.966 216.392 68.966 77.346 0 146.020-20.134 205.786-60.326 67.954-44.838 102.044-104.026 102.044-177.614 0-89.65-63.972-162.048-191.758-217.176 145.378-68.968 218.102-164.916 218.102-287.898 0-88.5-34.56-158.58-103.822-210.356-62.076-47.13-140.128-70.63-233.904-70.63-87.952 0-163.586 21.798-226.958 65.524-72.722 49.356-109.032 114.892-109.032 196.466s38.7 148.864 116.098 201.742c21.106 13.746 55.156 32.128 102.018 55.142zM452.972 409.067c-105.532-47.066-158.18-121.164-158.18-222.22 0-65.448 21.356-117.992 64.208-157.62 42.8-39.642 97.628-59.43 164.486-59.43 59.74 0 110.508 15.77 152.106 47.296 41.612 31.538 62.444 75.404 62.444 131.584 0 84.812-57.036 153.612-171.070 206.362l-113.994 54.028zM570.924 511.121c92.574 40.206 138.98 100.532 138.98 180.98 0 55.206-19.67 99.404-58.904 132.8-39.34 33.318-87.704 49.996-145.146 49.996-48.116 0-89.714-12.684-124.9-37.938-38.724-27.572-58.028-64.384-58.028-110.336 0-56.32 26.944-101.736 80.912-136.232 10.514-6.872 57.414-29.26 140.73-67.2l26.356-12.070z"/>
</g>
</svg>