<svg xmlns="http://www.w3.org/2000/svg" width="32" height="32" viewBox="0 0 1024 1024">
<title>9</title>
<g transform="translate(0,960) scale(1,-1)">
<path fill="#444" d="M683.524 355.967c-75.8-71.256-152.292-106.918-229.244-106.918-83.904 0-151.154 33.332-201.7 100.018-47.156 60.902-70.694 134.488-70.694 220.684 0 93.080 27.544 176.342 82.7 249.928 59.8 79.346 135.102 118.988 225.892 118.988 110.36 0 198.256-47.718 263.74-143.116 58.648-83.89 87.896-183.28 87.896-298.26 0-163.148-54.066-300.772-161.982-412.886-108.044-112.024-243.108-168.624-405.154-169.738v53.44c49.396 2.252 88.998 8.012 119.002 17.202 165.398 50.572 262 174.090 289.544 370.658zM693.93 459.415c1.102 21.836 1.652 42.522 1.652 62.028 0 80.448-13.748 154.034-41.344 220.67-36.8 88.524-89.598 132.786-158.538 132.786-59.852 0-104-30.528-132.798-91.404-23.002-47.142-34.446-104.012-34.446-170.674 0-71.244 10.906-132.146 32.756-182.718 29.848-68.952 75.852-103.46 137.944-103.46 75.774 0 140.67 44.262 194.774 132.772z"/>
</g>
</svg>