<svg xmlns="http://www.w3.org/2000/svg" width="32" height="32" viewBox="0 0 1024 1024">
<title>b</title>
<g transform="translate(0,960) scale(1,-1)">
<path fill="#444" d="M1004.988 443.401c0-66.842-24.324-112.426-72.924-136.726-14.198-7.098-58.752-16.704-133.698-28.866-48.6-8.116-72.9-26.856-72.9-56.196v-123.050c0-5.112 1.514-20.774 4.542-47.11l4.568-48.624c0-15.202-3.55-40.046-10.648-74.45-19.236-4.046-41.526-8.588-66.844-13.712-8.116 30.418-12.162 51.168-12.162 62.336 0 5.040 1.272 12.66 3.792 22.798 2.508 10.104 3.828 17.698 3.828 22.81 0 7.026-6.298 26.808-18.886 59.2h-23.56c-3.126-5.064-4.168-11.642-3.15-19.734 4.046-17.226 5.56-31.894 4.568-44.056-17.226-12.162-41.030-28.358-71.41-48.612-7.098 2.010-9.606 3.028-7.62 3.028v107.86c-1.986 5.038-7.074 7.038-15.19 6.080h-18.22l-18.218-142.782c-14.222-1.018-31.398-1.018-51.652 0-7.124 33.408-19.758 83.014-37.976 148.864h-12.162c-11.17-35.482-17.226-54.742-18.244-57.77 0-4.046 1.26-11.884 3.804-23.524 2.508-11.654 3.792-19.492 3.792-23.538 0-3.028-1.018-10.624-3.030-22.786l-4.566-36.462c-2.034-2.010-4.566-3.028-7.596-3.028-30.38 0-50.658 7.596-60.762 22.762-10.126 15.214-14.196 36.486-12.162 63.85l12.162 182.274c0 3.052 0.994 7.098 3.030 12.162 1.986 5.064 3.028 8.612 3.028 10.624 0 8.116-8.612 24.324-25.814 48.624-3.004 0.994-18.764 4.566-47.086 10.648-17.25 4.046-51.18 11.12-101.778 21.272-69.908 13.13-104.832 69.35-104.832 168.62 0 147.872 60.786 270.922 182.322 369.162 5.016-27.352 13.652-63.79 25.79-109.372 9.134-2.060 28.892-6.602 59.248-13.678 6.106-2.034 36.982-13.178 92.694-33.432-28.396 17.224-65.33 45.050-110.914 83.56-17.224 20.254-25.838 54.16-25.838 101.754 0 11.144 19.262 24.324 57.758 39.538 34.404 14.174 60.266 22.24 77.48 24.3 54.68 7.050 96.714 10.648 126.102 10.648 126.574 0 228.838-32.44 306.814-97.26-25.294-29.388-68.854-60.738-130.622-94.16 24.324-1.016 59.768 8.566 106.346 28.868 46.564 20.23 66.322 30.38 59.248 30.38 8.092 0 24.324-16.232 48.624-48.624 18.218-24.3 32.888-46.116 44.056-65.304 32.392-57.758 54.16-120.022 65.33-186.864 0-23.332 0.496-40.036 1.514-50.138v-12.164h0.024zM423.158 416.049c0 43.536-18.994 84.82-56.97 123.838-38 38.994-78.762 58.46-122.298 58.46-38.498 0-72.404-16.328-101.78-48.926-29.386-32.622-44.056-68.83-44.056-108.576 0-34.632 16.704-57.090 50.138-67.266 21.272-6.13 51.108-9.702 89.616-10.696h83.56c67.812-1.018 101.79 16.704 101.79 53.166zM588.728 227.647v47.11c-7.074 13.154-14.174 26.83-21.248 41.028-6.080 20.278-17.226 48.624-33.434 85.098l-16.728-177.756c0-14.196-3.028-21.27-9.11-21.27-4.046 0-7.074 0.992-9.11 3.004-7.098 107.362-10.646 153.952-10.646 139.802v53.144c-2.036 3.076-4.544 4.59-7.572 4.59-34.45-35.492-51.652-92.694-51.652-171.674 0-43.56 3.998-70.392 12.138-80.532 8.116 2.012 17.226 5.562 27.352 10.624 4.046 2.036 15.688 3.054 34.972 3.054 19.188 0 42.518-6.082 69.848-18.22 10.126 0 15.19 27.328 15.19 81.998zM932.076 439.331c0 40.788-15.19 77.226-45.572 109.326-30.404 32.076-65.352 48.152-104.806 48.152-42.544 0-82.312-19.466-119.272-58.46-36.982-38.994-55.456-79.756-55.456-122.3 0-35.468 17.202-53.166 51.654-53.166h174.702c65.812 0.994 98.75 26.48 98.75 76.448z"/>
</g>
</svg>