<svg xmlns="http://www.w3.org/2000/svg" width="32" height="32" viewBox="0 0 908 1024">
<title>bg</title>
<g transform="translate(0,960) scale(1,-1)">
<path fill="#444" d="M451.012 806.233l10.208-0.048c40.844-0.944 81.308-9.152 119.956-22.204 59.766-20.39 115.44-52.508 163.404-93.562 44.49-38.086 82.296-84.164 109.906-135.882 23.946-44.708 40.1-93.552 47.646-143.702 5.742-37.406 6.486-75.448 3.792-113.154-4.554-63.41-20.4-126.866-52.374-182.204-14.83-25.598-32.924-49.498-54.712-69.58-4.708-2.802-9.986-4.68-14.294-8.182-13.696-10.14-22.54-25.288-29.516-40.526-5.078 13.542-7.51 28.282-5.35 42.676 1.17 9.724 4.652 19.102 4.76 28.954 0.118 6.692-2.448 13.106-6.212 18.53-6.666-7.202-13.914-13.832-21.516-20.036-23.564-19.14-49.56-34.994-75.736-50.25-14.132-8.272-28.564-16.018-42.522-24.572-7.066-4.208-12.854-10.122-18.83-15.692-10.106-9.624-20.41-19.102-31.674-27.374-15.774-11.646-33.334-21.008-52.1-26.794-15.22-4.908-31.176-6.912-47.076-7.964h-9.416c-16.416 1.052-32.88 3.202-48.552 8.4-18.694 5.932-36.146 15.428-51.828 27.164-13.652 10.068-25.688 22.070-38.096 33.57-5.67 5.478-12.472 9.524-19.248 13.452-23.538 13.542-47.32 26.676-70.168 41.36-21.996 14.268-43.728 29.48-61.696 48.726-3.176-4.68-5.652-10.004-6.070-15.718-0.806-10.504 3.194-20.526 4.5-30.83 2.368-14.686-0.018-29.77-5.224-43.602-6.104 13.36-13.588 26.468-24.536 36.454-5.514 5.396-12.536 8.698-19.248 12.236-21.178 19.502-38.848 42.63-53.47 67.384-31.382 53.434-47.618 114.686-52.98 176.138-3.292 38.584-3.064 77.588 2.332 115.982 5.732 41.316 17.216 81.852 34.176 119.974 23.402 52.754 57.226 100.708 98.27 141.234 47.056 46.45 103.384 83.502 164.708 108.256 34.704 13.868 70.996 24.016 108.132 28.618 18.292 2.268 22.256 2.038 40.656 2.768h-0.002zM223.088 603.871c-10.504-20.872-16.6-43.648-21.034-66.496-6.94-37.17-8.726-75.256-5.906-112.952 2.866-37.516 10.494-74.76 23.628-110.052 19.258-52.282 51.548-99.928 94.16-135.974 3.71 4.98 7.71 9.76 12.354 13.896-2.022 12.254-2.838 24.672-3.456 37.062-0.744 15.128-0.608 30.33 1.352 45.37 2.604 20.97 7.954 41.542 15.156 61.388-45.94 27.074-81.914 70.042-101.86 119.384-19.066 46.676-23.854 98.904-14.394 148.374zM684.914 603.861c9.996-52.182 4.074-107.456-17.65-156.010-12.862-28.944-31.202-55.466-53.932-77.534-19.692-19.274-42.868-34.858-67.91-46.314 3.654-32.644 12.262-64.598 24.208-95.148 1.778-4.308 4.354-8.218 6.84-12.136 7.418-11.356 15.518-22.24 23.32-33.342 27.972 24.934 51.392 54.902 69.042 87.946 27.148 50.64 40.954 107.774 43.766 164.972 1.814 38.258-0.972 76.836-9.388 114.232-4.246 18.332-9.778 36.508-18.296 53.334zM459.044 779.741c-9.892-0.044-5.652-0.024-12.718-0.056-25.596-0.944-50.464-6.874-73.94-16.956-30.122-13.242-57.008-33.688-78.050-58.948-19.728-23.602-34.468-51.32-43.23-80.79-10.314-34.568-12.408-71.52-6.368-107.076 5.542-32.68 18.178-64.174 36.98-91.484 17.678-25.75 40.826-47.782 67.666-63.8 13.804 30.168 31.428 58.584 52.29 84.372 8.082 10.040 11.402 23.148 11.148 35.864 1.722 0.208 3.664 0.19 5.016 1.46 3.102 2.694 3.092 7.238 2.794 11.002-0.582 7.528-4.372 15.356-11.43 18.74-5.668 2.83-12.326 1.878-18.032-0.318-1.16 2.24-2.276 4.544-3.954 6.45-5.632 6.576-17.66 4.834-21.66-2.694-4.082-7.448-1.542-18.060 5.958-22.35-2.266-0.126-5.522-0.608-5.832-3.428-0.044-5.008 3.61-8.99 6.414-12.798-8.98 5.214-19.302 8.344-27.094 15.438-4.916 4.372-7.202 10.684-9.904 16.48-6.704 15.402-12.464 31.384-15.166 48.010-0.998 7.174-2.032 14.766 0.626 21.714 3.556 9.814 10.212 18.086 16.98 25.868 11.092 12.482 23.674 23.512 36.026 34.704 14.178 12.626 28.854 24.908 45.344 34.432 11.91 6.92 24.87 12.062 38.35 14.948 2.548 4.37 6.43 7.718 10.594 10.494 8.534 5.714 17.922 9.94 27.048 14.594 12.726 6.466 26.068 12.788 35.882 23.456-2.522-9.27-8.572-16.934-13.27-25.152-2.966-5.226-6.512-10.812-5.868-17.088 8.444-1.172 17.024 0.054 25.152 2.42 13.858 4.046 26.64 10.948 39.056 18.178-12.852-13.642-23.202-29.424-32.572-45.596-2.956-5.498-6.33-10.904-8.1-16.926 1.416-3.964 4.718-7.266 8.6-8.844 9.55-0.662 18.966 1.806 28.318 3.392 22.158 4.254 44.616 9.27 67.32 7.366-10.776-2.304-20.618-7.856-28.908-15.002-12.598-10.84-22.086-24.7-30.612-38.84 5.334-11.61 13.75-22.086 25.006-28.382 9.634-5.614 20.664-7.8 31.148-11.164-29.198-0.918-57.424-15.956-74.848-39.34-3.682-5.078-7.23-10.676-7.71-17.096-2.014-17.406-0.654-34.968-1.26-52.436-0.192-11.874-2.296-23.584-3.784-35.338-2.966-21.416-5.142-43.012-4.724-64.664 37.904 18.55 69.696 48.844 91.030 85.162 19.328 32.736 30.194 70.34 31.664 108.3 1.434 34.422-4.662 69.19-18.132 100.926-11.746 27.82-29.070 53.308-50.84 74.26-25.75 24.726-57.696 43.166-92.326 52.108-13.674 3.574-27.72 5.68-41.842 6.314l-4.236 0.114zM211.632 825.215v0c6.268-18.214 12.534-36.636 15.202-55.784 10.094 7.33 20.788 13.824 31.718 19.82-15.764 11.828-31.31 23.936-46.92 35.964zM696.37 825.215v0c-15.61-12.028-31.156-24.136-46.92-35.964 10.93-6.006 21.614-12.49 31.718-19.82 2.676 19.148 8.934 37.57 15.202 55.784zM318.58 897.623v0 0c2.65-27.374 3.824-55.15-1.932-82.25 17.080 6.322 34.504 11.682 52.192 16.036-6.414 7.066-12.218 14.658-18.042 22.204-21.732 29.158-10.992 14.488-32.218 44.010v0zM589.43 897.641v0 0c-16.4-22.888-8.134-11.494-24.798-34.186-8.218-10.894-16.362-21.878-25.47-32.046 17.678-4.354 35.112-9.714 52.192-16.036-0.606 3.392-1.388 6.756-1.816 10.174-0.858 6.822-1.66 13.662-2.040 20.53-0.952 17.208 0.126 34.454 1.932 51.564v0zM453.982 938.667v0 0c-5.226-21.292-10.838-42.532-18.602-63.066-4.736-12.264-9.77-24.654-17.714-35.248 24.108 2.92 48.552 2.92 72.67 0-7.808 10.404-12.788 22.548-17.46 34.586-7.344 20.916-14.054 42.070-18.894 63.728v0z"/>
</g>
</svg>