<svg xmlns="http://www.w3.org/2000/svg" width="32" height="32" viewBox="0 0 612 1024">
<title>br</title>
<g transform="translate(0,960) scale(1,-1)">
<path fill="#444" d="M291.406 902.797c5.968 11.076 12.156 22.366 14.49 34.85 3.2-17.12 12.206-32.314 20.72-47.27 2.046-3.758 4.216-7.524 5.42-11.654 3.864-15.202 12.18-28.858 21.358-41.448 3.12-4.472 7.31-8.222 9.546-13.272 6.81-14.152 12.058-28.98 18.582-43.26 4.2-11.37 3.512-23.718 4.488-35.616 4.56 3.090 6.982 8.222 9.332 12.996 3.504 7.694 6.41 15.698 8.228 23.954 1.12 4.634-0.86 9.148-1.826 13.622-2.66 10.362-0.114 21.674 6.524 30.060 0.246-14.582 4.086-29.206 11.978-41.576 7.35-11.85 17.624-21.48 27.908-30.784 5.894-5.182 9.176-12.55 11.264-19.942 1.088-3.36 1.638-7.004 3.61-10.004 1.842-2.832 6.632-0.74 6.73 2.318 0.056 2.472-0.982 4.822-1.024 7.286 0.802 1.96 2.334 3.636 2.66 5.776-0.072 1.626-0.482 3.228-0.466 4.862 1.424 2.644 3.734 4.726 4.962 7.5 3.25 6.79 4.616 14.322 5.206 21.78 0.54 5.538-0.918 10.988-2.21 16.324-2.498 9.654-5.494 19.194-9.374 28.392-1.384 3.116-2.768 6.296-4.896 8.996-1.408 1.822-4.568 2.22-4.814 4.83-0.172 3.156 4.544 3.376 4.618 6.474 0.13 4.856-3.382 8.752-6.344 12.224 2.21 0.554 4.96 1.35 6.81-0.504 4.838-4.986 2.898-13.298 7.966-18.136 8.8-9.304 17.004-19.268 23.52-30.304 5.042-8.622 9.030-18.008 10.504-27.922 0.924-5.824 0.188-11.776 1.39-17.576 2.31-12.566 6.010-24.846 8.228-37.444 3.218-17.348 4.306-35.192 2.080-52.728-1.376-9.946-4.33-20.162-11.2-27.79-7.252-8.134-17.534-12.452-26.27-18.698-9.48-6.5-17.25-15.332-22.726-25.384-2.218-4.368-6.582-7.020-9.25-11.062-4.496-6.376-5.542-14.388-5.642-21.984 0-4.18-1.472-8.58 0.288-12.59 1.35-3.042 4.748-4.172 7.064-6.32-1.776-1.244-3.634-2.528-4.51-4.594 2.864-1.968 7.18-3.692 6.368-7.988-7.548 0.026-13.524 5.206-17.772 10.9-4.764 6.522-11.764 10.858-18.722 14.728-2.244 1.204-4.422 2.538-6.41 4.132 0.784 10.216-0.018 20.552 1.85 30.678 5.14 2.79 11.566 3.57 15.546 8.232 5.002 5.864 5.624 13.996 5.836 21.356 0.746 11.81-7.956 21.61-8.104 33.314 0.212 10.378-5.182 20.016-12.37 27.214-3.57 3.53-7.098 7.238-9.39 11.752-1.162 1.904-1.834 4.384-3.978 5.434-2.874 0.462-3.824-3.132-3.406-5.312-0.106-3.318 2.824-5.278 4.428-7.816 2.358-3.978 2.014-8.768 3.284-13.094 0.516-2.172 1.702-4.522 0.614-6.726-2.408-5.182-8.604-8.476-8.458-14.77-4.756-1.252-9.716-1.146-14.564-1.862-7.752-0.968-15.398-3.344-21.956-7.646-2.308 4.644-2.546 9.874-3.946 14.77-0.826 3.4-4.412 4.66-7.048 6.376 0.222-6.108-0.336-12.638-4.176-17.682-6.302-8.442-16.568-12.606-26.328-15.704-0.188 5.612 1.164 11.452 4.912 15.794 6.256 7.556 16.006 10.646 23.62 16.502 0.908 0.538 1.326 1.408 1.112 2.44 6.336 3.734 13.214 6.906 18.314 12.338 5.502 5.636 8.424 13.372 8.988 21.122 1.154 18.308-3.65 36.958-13.696 52.37-3.396 5.432-7.49 10.378-11.216 15.582-1.326 1.822-2.332 3.872-2.798 6.084-1.688 7.386-4.692 14.696-10.030 20.244-2.742 3-6.384 5.172-8.48 8.726-2.62 4.312-6.542 7.622-10.544 10.614-4.234 3.066-8.752 5.816-13.656 7.686-1.982 0.798-4.15 1.106-6.058 2.090-2.906 2.586-3.79 6.864-7.090 9.094-1.71 1.244-3.822 0.398-5.64-0.042 1.432-4.122 2.342-8.41 3.758-12.524 2.766-2.856 7.482-3.806 9.12-7.744 1.334-3.756 2.528-7.604 4.56-11.076 2.070-3.986 5.1-7.378 7.236-11.322 1.612-2.976 0.294-6.416-0.786-9.336-1.834-4.864-4.994-9.062-7.114-13.778-0.204-3.456 2.914-6.116 3.48-9.5-4.012-1.48-8.016-3.14-11.502-5.644-5.224-3.676-9.178-8.792-14.188-12.72-7.024-5.84-15.628-9.28-23.046-14.558-8.562-5.816-15.824-13.746-19.974-23.262-3.668-8.198-5.084-17.242-5.092-26.172-0.016-4.612-0.024-9.458 2.078-13.696 1.916-4.066 5.216-7.246 8.482-10.264-9.168 0.812-18.738 2.496-26.376 7.946-5.764 4.026-9.382 11.378-7.91 18.372 2.032 7.466 6.6 14.192 7.442 21.992 0.386 2.108-0.704 3.962-2.078 5.45-20.278-15.258-33.124-39.154-36.594-64-1.246-9.712-1.22-19.854 2.096-29.182 1.816-4.986 4.902-9.858 9.75-12.386 2.89-1.644 6.352-1.384 9.39-2.604 7.548-2.772 15.84-4.034 22.512-8.792 3.184-2.154 5.55-5.27 7.31-8.644-5.664 0.698-11.764 1.056-16.552 4.488-5.412 3.8-10.046 8.556-14.94 12.956 1.408-12.914 3.928-25.716 4.862-38.68-10.266-9.94-22.718-17.21-34.588-25.050-3.282 1.252-6.116 3.382-8.58 5.84 3.242 6.668 6.108 13.566 7.762 20.796 1.628 6.668 1.326 13.622 0.556 20.382-0.54 3.976-1.622 8.466-5.256 10.768-2.898 1.928-6.050 3.822-7.63 7.052-2.35 4.7-4.052 9.718-6.934 14.15-3.708 6.166-8.816 11.526-14.99 15.3-7.63 4.822-16.782 7.084-23.666 13.102-5.788 4.936-9.096 12.078-11.060 19.268-3.562 13.492-3.988 27.578-3.848 41.454 0.654 24.928 12.91 47.726 14.818 72.466 0.572 5.694-0.64 11.574 1.112 17.136 1.138 3.978 3.636 7.336 5.78 10.818 3.464 5.636 4.954 12.176 7.99 18.006 1.286 2.75 4.282 3.92 6.394 5.906 5.984 5.448 10.88 11.956 16.742 17.526 1.080 1.082 2.25 2.14 2.938 3.522 1.244 2.92 0.696 6.328 2.194 9.166 1.196 2.156 3.546 3.228 5.624 4.376-1.808-5.254-3.618-10.826-2.57-16.43 0.254-1.91 1.072-3.814 0.802-5.758-1.17-1.952-3.070-3.326-4.372-5.18-2.242-2.904-2.816-6.702-5.066-9.598-1.834-2.398-3.472-5.066-3.808-8.124-0.678-3.928 0.884-7.914 0.034-11.802-1.172-2.464-3.832-3.83-5.076-6.262-1.736-3.172-0.712-6.898-0.958-10.33-0.336-4.904-0.844-9.874 0.22-14.728 1.058-6.174 4.324-11.606 6.82-17.26 1.834-3.772 0.712-8.018 1.18-12.020 0.474-5.506 2.996-10.906 7.294-14.476 2.93-2.554 6.566-4.076 10.2-5.344 1.334 12.768 6.278 24.79 11.642 36.338 12.484 26.262 28.782 50.466 44.836 74.662-4.534-10.808-6.336-22.544-6.958-34.174-0.368-9.468-0.066-19.146 2.726-28.28 1.474-4.838 4.208-9.752 9.17-11.72 2.488 26.14 12.656 51.060 26.86 73.036 9.038 14.314 20 27.262 30.38 40.6 2.26 3.368 5.526 6.718 5.444 11.006-0.262 2.976-3.766 1.838-5.73 1.772 3.274 7.466 7.858 14.266 11.69 21.456zM563.518 707.991c1.236-4.148 3.16-8.646 1.654-12.98-0.426-1.636-2.048-3.4-0.566-4.954 3.242-4.872 5.822-10.134 8.040-15.534 3.922-10.060 7.958-20.626 7-31.614-0.32-4.62-0.622-9.532-3.234-13.524-1.326-2.074-2.742-4.27-2.694-6.832-0.106-6.612-0.802-13.356-3.586-19.456-3.814-8.848-11.206-15.51-18.91-21.040-10.308-7.466-21.752-14.062-29.21-24.644-5.574-7.66-8.096-17.070-8.784-26.4 1.858 2.726 3.922 5.392 6.648 7.328 8.154 5.986 18.574 6.906 28.186 8.956 5.304 1.154 11.24 2.52 14.662 7.1 4.436 5.726 4.42 13.306 7.146 19.764 0.828 2.374 3.578 3.668 5.936 2.618 2.342-2.92 2.506-6.864 2.612-10.434 0.408-12.216-1.63-24.424-5.208-36.088-2.97-9.036-7.056-18.454-14.972-24.27-5.108-3.83-11.904-4.464-17.962-2.87-0.18-1.13-0.352-2.278-0.508-3.424-8.022 1.488-17.020-1.090-22.004-7.75 7.458-0.44 14.898 1.276 21.416 4.904-4.552-19.7-22.44-32.884-27.148-52.524-1.702 0.536-3.52 1.308-4.158 3.122-2.162 5.116-2.554 10.744-4.004 16.072-1.228-3.538-1.948-7.238-2.128-10.98-0.762-13.094 1.956-26.018 3.554-38.95 0.892-11.818-2.244-23.424-3.128-35.144-0.286-3.61-0.040-7.368 1.76-10.596 2.996 7.002 6.542 13.818 11.208 19.876 7.842 10.508 18.746 18.316 30.356 24.262 10.282 5.538 21.538 9.98 29.912 18.364 5.396 5.312 8.662 12.338 10.456 19.586-4.47-7.362-11.856-13.38-20.55-14.73-1.972-0.318-5.468-0.106-5.304 2.62 0.982 3.806 3.020 7.326 5.674 10.23 5.1 5.596 13.146 7.214 18.256 12.794 4.404 4.7 6.294 11.086 7.408 17.274 1.834 10.988 1.53 22.188 0.974 33.274-3.56-9.67-9.652-18.528-17.708-25.058-2.3-1.602-5.238-3.93-8.17-2.668-2.234 1.902-1.564 5.286-1.162 7.816 1.588 7.254 8.326 11.524 14.212 15.224 9.8 5.882 19.886 12.298 26.008 22.22 8.728 13.738 9.48 30.72 8.122 46.458-1.106 14.68-5.698 28.75-8.54 43.122-1.612 7.408-0.704 15.062-2.144 22.488-2.186 11.956-6.606 23.504-12.672 34.036-5.084 7.256-11.822 13.128-17.806 19.602-3.668 3.96-6.37 8.654-8.94 13.354zM39.964 682.461c-3.782-3.546-8.736-5.912-11.584-10.378-3.21-5.002-5.412-10.548-7.688-16.014-1.922-4.944-4.33-9.736-5.476-14.948-3.626-15.274-6.222-30.768-8.89-46.238-1.76-10.842-3.644-21.658-5.010-32.556-1.434-12.152-0.090-25.156 6.664-35.664 5.402-8.622 13.85-14.73 22.422-19.976 4.862-3.156 10.266-5.904 13.754-10.686 4.78-6.368 10.52-11.988 14.964-18.618 1.858-2.838 3.996-6.408 2.186-9.8-3.594 0.024-7.18 0.756-10.314 2.53-10.528 5.612-18.536 15.468-22.498 26.612 2.21-17.878 5.74-36.12 14.958-51.874 6.050-10.434 15.668-18.974 27.268-22.78 7.434-2.71 15.408-3.32 23.004-5.394 6.1-1.634 10.062-6.928 13.64-11.728 6.352-8.896 12.706-18.69 23.11-23.316-7.744 13.704-10.732 30.344-7 45.732 1.212 5.628 3.594 10.964 4.406 16.68 0.858 6.548-0.598 13.104-2.408 19.358-1.384-3.586-2.014-7.466-3.774-10.906-1.4-2.742-4.944-1.124-7.106-0.374-8.932 4.050-16.078 11.068-22.546 18.242-7.53 8.532-13.638 18.356-17.19 29.174-2.024 2.106-5.052 2.594-7.558 3.92-8.882 4.212-14.784 12.622-18.68 21.324-4.438 9.776-7.426 20.244-8.49 30.932-0.532 6.506-0.516 13.378 2.202 19.454 0.246 1.066 2.080 1.488 2.636 0.43 1.858-3.058 2.35-6.702 3.922-9.906 3.748-8.768 11.46-15.46 20.318-18.884 9.808-3.92 20.744-4.742 29.988-10.078 5.844-3.236 10.462-8.222 14.146-13.704 1.686 13.55 1.654 27.742-3.504 40.6-4.068 11.012-12.452 19.968-15.678 31.33-2.070 7.1-1.49 14.614-0.13 21.78-3.144-2-6.082-4.432-8.064-7.62-4.756-7.37-5.91-16.34-6.296-24.904-0.294-4.962 0.262-9.996-0.744-14.908-4.592 3.026-7.606 7.734-11.412 11.59-5.812 6.14-13.090 10.596-20.336 14.858-4.028 2.652-2.48 8.166-2.324 12.16 1.112 5.888-2.636 10.922-4.34 16.266-2.972 7.45-3.88 15.688-2.456 23.586 0.672 4.14 3.906 7.272 4.676 11.386 1.628 7.938 3.724 16.030 8.554 22.708 1.22 1.952 3.144 3.482 4.020 5.62-0.64 2.196-1.794 4.23-2.128 6.498-0.598 3.474-0.010 6.97 0.49 10.402-2.792-8.206-7.098-16.118-13.704-21.918zM391.822 583.441c-5.322-2.196-9.464-6.744-11.028-12.266 7.098 0.748 13.95 3.4 19.656 7.662 3.488 2.408 6.336 5.604 9.856 7.97-0.54 0.35-1.072 0.692-1.612 1.024-5.656-1.284-11.552-1.926-16.872-4.39zM272.708 495.845c2.52 1.7 5.238 3.66 8.416 3.636 2.816-0.504 4.944-2.626 7.016-4.44 7.94-7.572 14.334-16.56 21.948-24.456 1.382-1.27 2.758-2.888 4.722-3.222 2.048 1.034 3.652 2.708 5.216 4.336 6.95 7.49 13.024 15.762 20.384 22.886 1.998 1.838 4.052 3.822 6.696 4.702 2.506 0.568 4.896-0.846 6.992-2.050 13.024-8.508 22.080-21.65 34.67-30.67 1.752-9.492 2.652-19.332 6.812-28.182 1.924-3.986 4.674-8.036 8.988-9.71 1.384-0.692 3.594-0.976 3.61-2.962 0.352-3.416-2.422-6.132-5.51-7.066 2.588-7.842 5.796-15.568 6.714-23.84 1.646-14.102-0.148-28.458-3.888-42.104-4.388-15.348-11.486-30.19-22.162-42.22-4.674-5.034-10.126-9.954-16.962-11.72-4.134-1.154-8.318 0.634-11.584 3.074-7.212 5.27-12.698 12.55-20.188 17.462-2.464 1.676-5.338 2.628-8.302 2.848-4.592 0.178-7.63 4.652-12.214 4.74-3.954-0.528-6.704-4.114-10.684-4.578-2.636-0.318-5.328-0.724-7.62-2.14-9.318-5.358-15.318-14.89-24.666-20.194-4.348-2.586-9.752-1.432-13.894 0.968-7.638 4.352-13.45 11.192-18.386 18.3-9.506 14.046-15.564 30.272-18.322 46.936-1.882 12.152-2.456 24.766 0.646 36.77 1.336 5.368 3.512 10.468 5.142 15.738-3.054 0.984-5.846 3.628-5.502 7.042-0.016 1.994 2.194 2.286 3.586 2.978 4.282 1.658 7.032 5.652 8.956 9.606 4.192 8.872 5.126 18.738 6.836 28.262 5.166 3.408 9.382 7.97 13.802 12.24 6.018 5.904 11.912 12.012 18.732 17.030zM287.452 547.377c-11.798-3.732-23.84-8.368-36.438-7.53-0.32-2.018-0.86-4.782-3.366-5.084-1.956-0.422-2.718 1.642-3.118 3.106-6.632-4.334-14.41-6.978-20.116-12.63-6.172-4.212-13.392-6.938-18.894-12.118-6.45-6.32-10.846-14.266-15.684-21.78-8.36-11.606-17.922-22.546-23.972-35.6-7.26-15.452-8.668-32.776-9.020-49.596-1.008-32.564 8.382-64.682 22.676-93.742 5.264-10.134 10.568-20.504 18.346-29.004 1.58 1.238 3.39 2.994 5.6 2.188 3.528-1.26 5.574-4.644 8.276-7.034 2.374-2.416 5.64-4.652 6.066-8.264-0.098-2.53-2.824-3.432-4.65-4.53 3.816-8.556 13.656-11.524 22.202-12.9 7.696-1.472 15.816-1.202 23.128-4.318 8.718-3.366 17.764-5.88 26.95-7.646 28.080-5.578 57.624-2.764 84.338 7.328 8.938 3.864 18.942 3.084 28.26 5.474 7.146 1.522 14.694 4.962 17.772 12.014-2.062 1.122-5.338 2.512-4.51 5.448 1.112 3.474 4.322 5.604 6.746 8.134 2.652 2.44 4.936 6.246 8.922 6.408 2.056 0.268 3.75-3.732 5.272-1.146 7.098 8.32 12.224 18.096 17.2 27.758 14.188 28.84 23.562 60.69 22.702 93.020-0.32 16.298-1.522 33.036-8.064 48.196-5.894 13.81-15.85 25.27-24.616 37.298-6.394 9.638-11.838 20.764-22.186 26.872-5.084 3.376-11.052 5.466-15.416 9.834-5.312 4.18-11.764 6.572-17.396 10.264-0.524-1.196-0.826-3.124-2.546-3.090-2.816-0.212-3.716 2.91-3.954 5.106-12.648-0.894-24.724 3.848-36.578 7.548-3.454 0.782-6.754-1.154-10.176-1.382-5.772-0.814-11.378 1.082-17.020 1.846-5.746-0.976-11.566-2.724-17.444-1.652-3.088 0.384-6.15 2.042-9.292 1.204zM75.74 499.531c3.184-1.944 6.582-3.66 9.832-5.564 3.904-2.18 8.554-2.862 12.894-1.642-5.372 6.384-14.712 9.304-22.726 7.206zM307.206 452.903c-8.728-0.048-18.306-2.594-23.708-9.906-2.816-3.262-3.218-7.848-6.026-11.094-3.978-4.806-8.268-9.5-10.912-15.208-3.136-6.874-4.29-14.446-4.904-21.904-0.286-5.684-1.032-11.548 0.614-17.104 2.382-7.864 7.122-14.916 12.958-20.682 2.162-1.904 4.462-4.246 7.54-4.36 5.232-0.26 10.57-0.756 15.456-2.772 6.026-2.58 10.456-7.85 16.464-10.396 5.502 2.758 9.848 7.346 15.374 10.054 4.994 2.228 10.528 2.782 15.94 3.050 2.964 0.008 5.238 2.162 7.318 3.984 5.682 5.442 10.274 12.136 12.91 19.544 2.12 5.71 1.466 11.892 1.146 17.836-0.622 7.964-1.784 16.080-5.272 23.36-2.906 6.042-7.76 10.784-11.74 16.094-1.89 3.336-2.718 7.264-5.37 10.168-5.51 6.88-14.752 9.206-23.242 9.296-1.636 2.318-3.756 4.814-6.9 4.692-3.43 0.544-5.894-2.122-7.646-4.652zM88.838 337.567c2.628-5.304 6.418-9.914 9.136-15.168 4.076-7.588 6.156-16.072 7.114-24.588 0.090-2.528 2.244-4.18 3.716-6.002 18.428-20.454 37.528-40.292 56.39-60.34 1.416-1.098 1.202-3.26 0.156-4.53-1.384-1.17-3.284-1.642-4.504-3-0.908-2.668 0.794-5.384 2.784-7.076 7.768-6.76 18.034-10.614 24.42-18.918 4.388-7.386 7.59-15.778 14.090-21.692 2.57-2.398 6.18-2.968 9.578-2.96 2.562-0.252 5.788 0.398 7.506-2.016 13.124-14.072 26.156-28.248 38.724-42.814 1.088-1.424 2.554-2.732 2.97-4.546-0.172-1.684-1.792-2.652-3.11-3.448-4.83-2.612-10.266-3.954-14.974-6.824-4.632 1.016-7.17 5.246-10.7 7.938-1.816 1.61-4.232 0.292-6.058-0.578-6.22-3.392-10.412-9.328-14.432-14.956-5.296-7.434-9.742-15.592-16.324-22.042-3.316-3.44-8.154-4.676-11.756-7.742-2.972-2.49-5.55-5.442-8.718-7.71-7.802-5.686-16.62-9.76-25.314-13.876-5.844-2.838-11.068-6.75-16.242-10.63-14.482-11.094-28.088-23.302-43.102-33.72-18.076-14.842-34.98-31.044-52.5-46.53 4.028 0.114 7.966 1.106 11.6 2.798 3.708 1.758 7.762 2.766 11.24 4.986 1.932 1.106 3.938 2.326 6.206 2.522 1.35 0.316 1.866-1.116 1.416-2.164-1.342-4.188-5.050-6.864-8.292-9.564-1.212-3.514 2.988-5.874 6.024-5.808 3.988 0.024 8.72-1.008 12.034 1.782 22.326 17.184 44.764 34.216 66.966 51.548-5.042 0.406-10.372 1.618-15.218-0.456-2.194-0.782-3.896-2.506-6.066-3.318-0.966 1.016-1.736 2.196-2.76 3.138-3.602 0.050-7.768-1.438-10.608 1.586 1.308 1.676 2.848 3.164 4.666 4.286 6.074 3.962 12.624 7.312 17.886 12.372 4.086 3.57 8.106-3.676 12.436-1.042 8.014 3.62 14.998 9.118 22.858 13.022 1.824 0.82 4.698 1.756 6.114-0.188-0.58-4.010-4.462-6.352-7.024-9.142 5.002-0.398 9.898 1.106 14.254 3.442 17.174 9.344 30.706 24.554 49.168 31.71 4.42 1.928 9.57 1.644 13.704 4.286 7.712 4.596 14.604 10.378 21.916 15.56 3.61 2.512 7.236 5.286 11.632 6.286 1.532-4.164 1.622-8.638 1.614-13.022-0.198-19.844-3.414-39.486-4.83-59.24 2.25-0.602 5.418-0.358 6.712-2.684 0.672-3.726-0.884-7.45-0.68-11.208 0.91-2.472 3.258-4.010 5.182-5.678 1.122-17.364 0.91-34.776 1.498-52.166 0.418-10.93 0.394-21.926 1.966-32.776 6.434 11.728 8.154 25.318 8.44 38.478 0.31 6.986-0.712 13.956-0.27 20.926 2.726-0.674 4.674-3.204 7.532-3.4 1.8 2.058 1.424 5.206 1.94 7.76 1.768 20.772 2.218 41.642 2.472 62.47 1.612-1.594 3.274-3.302 5.526-3.968 3.218-0.976 7.482-1.538 9.668 1.65 4.248 5.84 1.646 13.534 3.554 20.074 0.514 2.456 2.626 3.968 4.82 4.872 12.894-10.582 24.912-22.164 37.258-33.372 22.652-20.894 45.174-41.926 67.71-62.95 2.35-2.634 6.616-2.138 8.784-4.986 2.114-3.236 1.704-7.53 4.004-10.686 0.942-1.384 2.75-1.252 4.232-1.456 0.876 4.164 1.426 8.556 3.668 12.256 0.884 1.594 2.964 2.83 4.724 1.774 5.444-2.7 10.324-6.718 16.382-8.084 2.586-0.708 5.272-0.148 7.662 0.95-19.886 23.604-40.188 46.864-60.31 70.272 2.34 1.666 5.328 3.692 5.288 6.888-0.95 2.408-2.678 4.384-4.224 6.408-9.358 11.502-19.558 22.294-29.996 32.818-3.414 3.164-6.468 6.872-10.528 9.232-4.052-0.034-6.876-3.458-9.66-5.938-16.454 15.77-33.278 31.182-49.128 47.546 1.704 1.432 3.464 2.798 5.314 4.042 15.98 10.826 32.632 20.642 48.538 31.59 1.882 1.058 3.39 3.554 5.754 3.236 3.080-1.796 5.134-5.464 8.982-5.83 3.372-0.228 7.252 1.122 8.948 4.204 1.522 3.326 1.252 7.116 2.226 10.59 1.17 4.936 4.846 8.898 9.136 11.452 13.288 7.408 25.722 16.184 38.272 24.74 19.55 13.534 38.928 27.336 58.034 41.48 6.944 5.302 14.18 10.28 20.566 16.258-4.748-0.716-9.506-1.88-14.336-1.546-1.252 0.154-2.988 0.422-3.322 1.87 0.162 2.498 2.152 4.32 3.708 6.1 9.176 9.378 20.262 16.86 28.424 27.222-11.282-6.002-22.154-12.72-33.172-19.186-10.986-6.686-22.128-13.134-32.902-20.162-0.852-0.57-1.776-0.886-2.784-0.944-1.62 1.62-2.276 3.896-3.34 5.864-2.93-1.48-5.55-3.48-8.17-5.44-18.96-14.274-37.518-29.1-57.126-42.496-8.808-5.922-17.806-11.916-28.096-14.982-2.382 0.538-4.822 1.562-7.254 0.554-4.92-1.628-10.020-3.79-13.516-7.736-2.644-2.788-0.466-7.726-4.036-9.864-10.698-7.76-22.496-13.876-34.014-20.334-0.672 13.616-1.376 27.222-2.072 40.828-2.954-0.544-5.902-1.088-8.85-1.642-0.432 4.188-0.85 8.37-1.284 12.542-3.782 0.146-8.44 0.024-10.676 3.692-3.61 0.162-7.212-0.13-10.798-0.496-1.604-17.894-3.168-35.786-4.78-53.68-10.438 10.558-20.958 21.050-30.888 32.086-1.58 2.018-3.906 4.222-3.43 7.010 1.056 2.018 2.774 3.678 3.274 5.962-0.884-0.504-1.76-1.032-2.62-1.586-1.056 0.4-2.586 0.22-3.144 1.392-4.084 8.27-3.454 18.446-9.21 25.984-4.036-1.26-5.132-6.676-9.708-6.726-2.808-0.748-5.182 1.212-7.204 2.848-10.144 8.604-18.878 19.242-30.938 25.334-6.066 2.074-10.25 7.1-14.784 11.322-11.79 11.606-23.038 23.748-35.056 35.126-2.472 2.132-4.732 4.686-7.736 6.076-1.972-0.056-4.764-0.26-5.55-2.432-0.328-2.26 0.508-4.498 0.86-6.718-5.658 6.206-10.856 12.818-16.692 18.87-6.96 7.074-14.606 14.42-24.56 16.892z"/>
</g>
</svg>