<svg xmlns="http://www.w3.org/2000/svg" width="32" height="32" viewBox="0 0 1024 1024">
<title>c</title>
<g transform="translate(0,960) scale(1,-1)">
<path fill="#444" d="M429.026 748.801c32.402 45.904 53.618 98.288 82.782 146.198 28.158-46.29 48.602-96.976 79.462-141.646 65.654-97.052 150.21-181.454 247.262-247.106 44.824-30.938 95.588-51.46 141.878-79.85-46.598-27.774-97.208-48.372-141.954-79.31-98.596-66.732-184.31-152.676-250.272-251.812-29.394-43.436-49.144-92.348-76.454-136.94-28.236 46.212-48.68 96.898-79.54 141.568-65.732 96.976-149.978 181.686-247.186 247.184-44.668 30.784-95.278 51.304-141.414 79.772 47.988 28.778 100.14 50.224 146.044 82.396 93.582 64.188 175.050 146.12 239.392 239.546zM235.922 426.705c107.47-74.68 201.282-168.262 275.73-275.884 74.836 107.392 168.186 201.59 276.194 275.73-107.7 74.68-201.436 168.416-276.194 275.962-74.68-107.392-168.184-201.204-275.73-275.808z"/>
</g>
</svg>