<svg xmlns="http://www.w3.org/2000/svg" width="32" height="32" viewBox="0 0 1024 1024">
<title>e</title>
<g transform="translate(0,960) scale(1,-1)">
<path fill="#444" d="M580.986 184.211c0-55.006 9.022-93.696 27.076-116.054 18.056-22.36 48.566-33.532 91.572-33.532l10.318 1.31v-49.034h-397.186v49.008h12.882c42.994-0.87 73.518 9.888 91.572 32.248 18.056 22.33 27.076 60.606 27.076 114.744v172.828l-252.758 370.11c-10.318 13.752-19.338 25.794-27.090 36.112-7.738 10.316-15.048 18.468-21.918 24.496-11.186 9.462-23.006 16.124-35.462 20-12.468 3.876-28.592 7.090-48.358 9.668v50.304h385.586v-49.006c-38.69-3.45-64.938-8.828-78.662-16.112-13.766-7.31-20.634-20.854-20.634-40.62 0-8.606 1.71-17.214 5.144-25.794 3.436-8.606 8.166-17.626 14.194-27.074l196.028-283.712 143.144 210.208c13.738 18.91 23.628 35.24 29.656 49.006 6 13.738 9.862 26.636 11.6 38.676 0 1.724 0 3.434 0 5.16 0 1.724 0 3.434 0 5.172 0 26.634-7.31 46.428-21.918 59.31-14.62 12.91-39.986 21.062-76.082 24.496v50.304h318.524v-49.006c-10.318-1.726-19.792-4.084-28.358-7.090-8.608-3.022-16.772-7.104-24.51-12.262-13.766-7.738-27.946-19.986-42.552-36.76-14.636-16.758-32.236-40.206-52.87-70.29l-236-335.296v-171.532h-0.014z"/>
</g>
</svg>