<svg xmlns="http://www.w3.org/2000/svg" width="32" height="32" viewBox="0 0 1024 1024">
<title>g</title>
<g transform="translate(0,960) scale(1,-1)">
<path fill="#444" d="M1015.342 364.039c0-19.232-7.438-36.48-22.322-51.86-14.862-15.356-31.936-23.036-51.144-23.036-30.692 0-53.3 14.412-67.666 43.214l-67.69 2.882c-14.434 0-42.762-6.262-84.984-18.736-45.126-12.474-71.068-22.564-77.778-30.242-10.56-11.506-19.184-38.416-25.918-80.66-5.788-34.566-8.624-60.010-8.624-76.336 0-25.896 4.058-44.884 12.234-56.886 8.174-12.002 24.972-22.092 50.394-30.242 25.422-8.152 41.056-12.728 46.822-13.686 3.828 0 10.064 0.472 18.734 1.442h17.272c12.452 0 25.422-1.96 38.888-5.766 19.208-5.764 27.384-13.442 24.5-23.058-13.466 1.914-36.974-0.968-70.57-8.648l40.306-20.152c0-11.53-16.326-17.272-48.954-17.272-8.67 0-20.418 1.914-35.314 5.742-14.886 3.874-24.732 5.764-29.504 5.764h-18.736c-0.946-9.592-3.85-23.98-8.648-43.188-16.348 0.968-35.51 10.584-57.6 28.8-22.114 18.216-36.006 27.36-41.748 27.36-5.788 0-13.962-9.144-24.5-27.36-10.584-18.216-15.854-30.714-15.854-37.448-12.474 6.734-23.012 19.232-31.706 37.448-3.828 12.498-8.15 24.972-12.924 37.448-9.592-0.97-27.382-21.146-53.278-60.508h-7.228c-1.914 2.906-9.166 23.060-21.596 60.508-29.768 9.592-57.6 14.388-83.542 14.388-12.474 0-31.682-2.882-57.6-8.624l-40.308 2.86c5.742 5.764 22.54 16.798 50.396 33.124 32.628 19.208 57.6 28.824 74.894 28.824 2.838 0 6.664-0.496 11.53-1.442 4.774-0.992 8.648-1.442 11.53-1.442 6.664 0 17.502 3.598 32.386 10.816 14.884 7.182 23.508 13.674 25.896 19.416 2.432 5.81 3.642 20.672 3.642 44.676 0 54.718-14.412 95.522-43.236 122.408-24.994 24.004-66.248 41.276-123.872 51.86-15.356-54.72-58.57-82.124-129.59-82.124-23.060 0-46.096 13.916-69.132 41.77-23.012 27.856-34.542 53.3-34.542 76.336 0 35.534 14.84 64.808 44.608 87.89-23.982 24.926-35.984 50.372-35.984 76.29 0 24.028 7.414 45.126 22.322 63.412 14.884 18.194 34.322 28.778 58.328 31.684-1.914 30.69 8.15 51.836 30.24 63.364-10.56 10.538-15.83 29.252-15.83 56.138 0 31.682 10.562 58.096 31.684 79.218 21.098 21.122 47.512 31.706 79.196 31.706 34.588 0 62.916-12.048 84.984-36.028 27.854 95.048 87.866 142.584 180.008 142.584 48.010 0 90.254-19.208 126.756-57.624 13.442-14.388 20.154-22.090 20.154-23.012-11.53 0-5.742 2.166 17.294 6.468 23.012 4.322 39.81 6.49 50.418 6.49 37.424 0 70.548-13.916 99.372-41.772 24.95-24.972 42.244-56.632 51.86-95.048 6.686-0.968 17.27-3.828 31.682-8.624 21.1-10.608 31.684-28.8 31.684-54.742 0-4.82-3.874-13.938-11.53-27.36 61.428-34.564 92.166-82.574 92.166-144.026 0-17.27-6.71-41.32-20.154-72.024 24.974-14.376 37.426-35.522 37.426-63.354zM421.954 300.673v18.712c0 22.068-10.79 42.244-32.386 60.484-21.618 18.24-43.466 27.36-65.532 27.36-26.91 0-51.838-6.238-74.896-18.69 50.88 2.86 108.504-26.436 172.814-87.866zM396.060 479.253c-14.412 16.348-26.886 33.148-37.47 50.418-40.33-10.56-60.484-22.562-60.484-35.984 11.53 0.924 28.328-1.21 50.394-6.502 22.068-5.292 37.944-7.932 47.56-7.932zM483.926 523.907v63.366c-23.060 3.828-37.022 5.764-41.772 5.764v-21.594l41.772-47.536zM671.142 564.237c-11.53 4.796-33.148 14.412-64.808 28.8v-123.85c45.104 25.942 66.698 57.624 64.808 95.050zM750.314 394.281l-31.66 38.888c-19.186-13.454-38.646-27.14-58.35-41.056s-36.734-29.55-51.1-46.81c43.202 23.082 90.264 39.362 141.11 48.978z"/>
</g>
</svg>