<svg xmlns="http://www.w3.org/2000/svg" width="32" height="32" viewBox="0 0 1024 1024">
<title>gu</title>
<g transform="translate(0,960) scale(1,-1)">
<path fill="#444" d="M461.136 724.989c25.232-2.454 14.458-0.87 32.426-3.97 204.782-34.046 371.136-170.482 530.012-294.538-165.582-128.956-340.704-278.546-558.382-296.858-112.452-12.896-210.458 68.862-245.534 171.254-49.52-77.89-133.346-128.25-219.232-157.652v561.138c88.722-17.282 158.106-81.61 222.584-140.414 33.156 81.724 107.264 146.19 195.736 158.978 18.844 2.724 23.362 2.046 42.39 2.062zM443.462 686.837c-123.812-5.12-185.372-135.624-203.43-243.076 96.976 72.99 218.712 31.982 318.524-12.638 125.862-61.382 272.356-41.008 400.024 3.096-152.944 104.196-310.012 220.774-496.742 251.98-10.26 0.714-4.14 0.398-18.376 0.638z"/>
</g>
</svg>