<svg xmlns="http://www.w3.org/2000/svg" width="32" height="32" viewBox="0 0 1024 1024">
<title>gw</title>
<g transform="translate(0,960) scale(1,-1)">
<path fill="#444" d="M558.084 796.667l7.242-1.86c16.878-4.398 9.632-2.56 21.72-5.584-15.964-30.526-32.394-60.808-48.52-91.254-1.706-3.39-3.91-6.57-5.15-10.174-0.466-3.29 0.020-6.632 0.112-9.932 1.98-45.79 3.87-91.588 5.86-137.378 24.91 40.864 49.718 81.788 74.62 122.664 0.832 1.32 1.218 2.862 1.198 4.416 0.284 38.438 0.446 76.874 0.812 115.312 9.81-3.362 19.65-6.642 29.47-10.004 2.010-30.576 4.012-61.164 6.052-91.74 26.454 15.1 52.888 30.252 79.362 45.322 7.912-6.794 15.872-13.526 23.804-20.31-30.618-20.808-61.236-41.596-91.864-62.382-2.558-1.828-5.462-3.26-7.596-5.606-2.476-3.828-4.072-8.154-6.204-12.186-19.214-39.016-38.436-78.032-57.62-117.058 41.798 24.576 83.536 49.282 125.354 73.848 1.474 0.862 2.752 2.050 3.626 3.534 19.62 33.288 39.26 66.576 58.9 99.854 6.6-7.454 13.038-15.070 19.558-22.614-14.074-27.714-28.18-55.408-42.256-83.13 31.37 0.070 62.75 0.132 94.118 0.324 4.154-9.656 7.738-19.568 11.902-29.226-38.702-3.128-77.452-5.646-116.174-8.622-1.584-0.132-3.016-0.852-4.286-1.746-38.864-27.418-77.788-54.756-116.824-81.91 46.866 0.558 93.692 2.69 140.536 3.97 2.672 0.122 5.566 0 7.88 1.594 32.974 20.544 65.968 41.068 98.992 61.54 2.072-10.53 4.144-21.072 6.246-31.592-22.23-16.046-44.52-31.978-66.77-47.984-3.026-2.234-6.346-4.122-8.926-6.894 26.414-13.934 53.192-27.176 79.656-41.028-0.132-10.662-0.010-21.324-0.070-31.988-20.128 8.114-39.84 17.304-60.372 24.392-35.524 12.43-73.3 21.926-111.188 17.66-36.184-4.020-72.304-17.406-99.226-42.488-21.072-19.416-34.934-45.88-40.844-73.776-8.814-40.986-3.646-84.074 10.156-123.354 11.018-30.862 29.134-59.632 54.44-80.724 23.184-19.578 51.852-31.978 81.516-37.756 27.094-5.402 54.958-5.676 82.408-3.27-7.688-8.428-15.446-16.878-24.026-24.402-4.712-1.514-9.932-0.66-14.848-0.956-27.966 0.082-55.608 6.044-82.032 14.908-6.56 2.042-12.958 4.854-19.874 5.444 0.194-3.718 1.198-7.444 3.646-10.338 6.418-8.246 15.030-14.42 23.54-20.35 14.268-9.556 29.216-18.188 44.986-25.064-5.596-3.726-11.19-7.474-16.938-10.968-7.758 1.718-15.182 4.682-22.128 8.532-19.244 10.5-35.4 25.498-52.746 38.71-4.142 2.792-8.734 7.2-14.126 5.118 2.112-6.936 6.834-12.572 11.008-18.35 13.792-18.188 28.73-35.472 43.474-52.898-6.398-3.026-12.866-5.9-19.386-8.642-7.412 8.022-12.592 17.924-20.644 25.378-2.916 2.62-6.672 5.322-10.806 4.398-5.788-1.432-9.25-7.12-10.562-12.594-2.508-10.388-1.146-21.182 0.326-31.622-12.724-3.514-25.612-6.428-38.61-8.764-11.474 6.834-16.978 19.722-26.82 28.282-3.188 2.66-9.494 5.636-11.992 0.65-6.306-10.602-9.516-22.696-13.152-34.396-5.098-0.192-10.194-0.294-15.292-0.436h-1.372c-5.128 0.132-10.256 0.244-15.384 0.446-3.352 11.030-6.602 22.22-11.964 32.476-1.3 1.95-2.64 5.038-5.452 4.642-5.18-0.438-9.16-4.276-12.42-7.972-7.008-8.206-12.694-17.944-22.138-23.692-12.988 2.346-25.886 5.22-38.6 8.774 1.472 10.42 2.814 21.174 0.346 31.552-1.28 5.23-4.378 10.582-9.73 12.41-4.082 1.472-8.124-1.026-11.088-3.636-8.378-7.504-13.638-17.68-21.204-25.896-6.54 2.732-12.998 5.616-19.396 8.642 15.984 18.97 32.344 37.676 47.008 57.712 2.71 4.122 6.204 8.094 7.058 13.1-2.62 2.63-6.276 0.122-8.836-1.32-11.262-7.494-21.204-16.756-31.998-24.89-14.4-10.918-29.744-21.712-47.688-25.724-5.8 3.464-11.404 7.22-16.99 11.008 13.598 5.84 26.494 13.172 38.986 21.082 10.266 6.744 20.686 13.73 28.668 23.194 2.832 3.16 4.406 7.2 4.508 11.436-4.224-0.396-8.338-1.494-12.318-2.914-32.882-11.548-67.704-19.376-102.718-17.042-1.626 0.052-2.722 1.402-3.88 2.336-7.536 7.292-14.898 14.776-21.844 22.636 38.934-3.472 79.22-1.3 115.982 12.928 29.308 11.17 55.396 30.648 74.152 55.802 24.392 32.496 37.36 72.456 41.596 112.59 3.492 35.522-0.924 72.872-18.31 104.504-14.034 25.764-37.036 46.034-63.47 58.444-34.68 16.288-74.366 21.974-112.162 15.506-24.89-3.97-49.060-11.556-72.578-20.492-16.33-6.134-32.142-13.518-48.34-19.966-0.060 10.664 0.052 21.336-0.060 31.998 26.658 13.832 53.456 27.4 80.164 41.13-25.408 18.248-50.826 36.476-76.214 54.736 2.082 10.54 4.164 21.080 6.256 31.622 33.054-20.504 66.090-41.058 99.114-61.622 2.294-1.542 5.148-1.38 7.788-1.512 46.856-1.3 93.712-3.382 140.588-4.002-39.3 27.216-78.348 54.798-117.454 82.278-2.926 2.030-6.682 1.532-10.034 1.918-36.608 2.61-73.208 5.322-109.806 7.992 3.808 9.77 7.818 19.468 11.616 29.248 31.43 0.050 62.872-0.224 94.3-0.224-14.064 27.722-28.17 55.416-42.244 83.14 6.5 7.564 13.018 15.12 19.538 22.666 19.65-33.37 39.362-66.7 59.022-100.068 1.644-2.814 4.814-4.052 7.464-5.698 40.488-23.762 80.854-47.728 121.352-71.46-20.776 42.426-41.746 84.764-62.544 127.192-0.752 1.564-1.848 2.934-3.3 3.868-32.486 21.996-64.922 44.054-97.368 66.1 7.982 6.632 15.63 13.698 23.814 20.076 2.854-1.086 5.392-2.864 8.064-4.346 23.752-13.588 47.514-27.164 71.278-40.742 2.020 30.576 4.042 61.164 6.052 91.74 9.82 3.362 19.67 6.662 29.5 10.004 0.254-36.742 0.538-73.472 0.712-110.214 0.162-3.178-0.538-6.692 1.268-9.536 24.902-40.854 49.7-81.778 74.61-122.622 2.112 48.116 4.082 96.24 6.174 144.364 0.386 3.93-2.274 7.13-3.9 10.46-16.694 31.258-33.368 62.526-50.024 93.804 9.678 2.498 19.346 5.076 29.044 7.524 15.324-25.204 30.72-50.37 46.074-75.554 15.364 25.184 30.73 50.37 46.084 75.564zM555.402 4.175v0c3.352-8.53 7.556-16.694 11.832-24.788 4.966-8.968 9.982-18.066 16.888-25.714 2.092-1.948 4.782-4.964 7.94-3.726 1.392 2.326 1.372 5.158 1.524 7.758 0.050 6.174-0.446 12.36-1.584 18.412-1.128 6.174-6.002 10.642-10.42 14.684-7.534 6.266-16.024 12.774-26.18 13.374zM468.434 4.327v0c-9.556-0.914-17.68-6.642-24.89-12.542-4.458-3.96-9.302-8.174-11.16-14.034-1.462-6.214-1.92-12.632-1.99-19 0.112-2.954 0.010-6.164 1.534-8.824 5.28-1.056 8.662 4.782 11.708 8.246 7.19 9.748 12.898 20.492 18.32 31.308 2.306 4.874 4.914 9.658 6.478 14.846zM512.092 26.933v0c-1.838-0.914-2.712-2.926-3.788-4.57-4.286-7.646-7.688-15.76-10.602-24.016-0.772-2.55-1.96-5.24-1.29-7.962 1.432-5.748 3.92-11.16 6.256-16.594 2.742-5.94 5.352-12.024 9.342-17.274 3.494 4.642 5.93 9.952 8.378 15.182 2.814 6.702 6.348 13.324 7.424 20.564-1.524 8.196-5.25 15.792-8.622 23.356-2.082 3.91-3.666 8.368-7.098 11.314zM572.9 33.807v0c0.458-3.37 0.356-7.138 2.082-10.154 11.84-7.16 23.986-13.872 35.706-21.254 0.902 5.564-2.996 10.094-6.562 13.81-6.6 6.57-14.318 12.114-22.818 15.944-2.62 1.278-5.524 1.664-8.408 1.654zM451.080 33.807v0c-5.728 0.316-10.836-2.63-15.598-5.412-6.794-4.184-13.232-9.12-18.36-15.264-2.418-2.954-4.774-6.692-3.566-10.682 11.598 7.544 23.804 14.106 35.604 21.284 1.422 3.148 1.574 6.692 1.92 10.074zM148.062 605.001c-40.406-8.704-80.824-17.416-121.272-25.978 27.266-31.246 54.93-62.148 82.338-93.284-36.244-21.468-72.66-42.632-108.782-64.272 35.402-20.604 70.71-41.362 106.070-62.026-9.342 81.718 4.458 166.208 40.894 240.056 0.722 1.634 3.728 4.528 0.752 5.504zM875.826 605.113c-0.568-0.468-1.106-0.956-1.634-1.454 2.67-3.482 4.142-7.656 6.082-11.556 33.714-72.11 46.348-153.646 37.31-232.652 35.36 20.654 70.658 41.422 106.070 62.006-36.122 21.672-72.548 42.814-108.792 64.282 27.47 31.084 54.99 62.118 82.418 93.234-40.488 8.712-81.026 17.192-121.454 26.14zM813.098 835.095c-38.508-16.492-77.006-33.026-115.504-49.538 65.268-34.476 120.662-87.018 159.232-149.888 5.768-9.678 11.76-19.296 16.35-29.602 0.476-0.244 1.412-0.732 1.888-0.976 0.518 1.534 1.088 3.036 1.726 4.52 16.878 37.462 33.736 74.944 50.594 112.416-42.59-3.798-85.192-7.596-127.782-11.414 4.468 41.494 8.998 82.988 13.496 124.482zM210.892 835.105c4.498-41.494 9.018-82.988 13.516-124.482l-127.792 11.404c16.97-37.766 33.99-75.524 50.968-113.28 0.62-1.066 1.2-2.812 2.662-2.812 0.822 0.914 1.28 2.092 1.878 3.138 38.538 74.578 99.978 137.256 174.272 176.484-38.498 16.512-76.996 33.046-115.504 49.548zM671.74 908.851c-18.868-15.924-37.584-32.030-56.392-48.024-13.232-11.476-26.85-22.524-39.838-34.264 42.042-6.936 83.008-20.502 120.744-40.314-8.154 40.864-16.32 81.738-24.514 122.602zM352.302 908.809c-8.318-40.822-16.37-81.708-24.556-122.56 37.756 19.812 78.722 33.388 120.784 40.314-3.93 3.85-8.286 7.21-12.408 10.826-27.958 23.794-55.802 47.708-83.82 71.42zM512.010 934.167v0c-20.666-35.726-41.108-71.562-61.672-107.34 40.784 6.358 82.54 6.358 123.324-0.010-20.554 35.788-41.036 71.604-61.652 107.35z"/>
</g>
</svg>