<svg xmlns="http://www.w3.org/2000/svg" width="32" height="32" viewBox="0 0 1024 1024">
<title>r</title>
<g transform="translate(0,960) scale(1,-1)">
<path fill="#444" d="M987.436 224.881c-44.57-106.316-133.134-159.462-265.732-159.462-24.3 0-50.654-3.030-78.986-9.090-42.518-9.114-63.776-21.808-63.776-38.008 0-5.058 3.52-10.856 10.63-17.454 7.062-6.596 13.17-9.854 18.216-9.854-25.326 0-8.112-0.762 51.608-2.278 59.742-1.514 97.202-2.278 112.4-2.278-88.076-51.608-235.396-75.384-441.908-71.352-67.856 1.002-126.050 30.874-174.638 89.592-47.624 55.7-71.388 117.96-71.388 186.794 0 72.866 24.54 134.9 73.678 186.042 49.066 51.084 110.098 76.672 182.976 76.672 16.188 0 37.698-3.544 64.54-10.63 26.818-7.086 44.808-10.628 53.898-10.628 37.446 0 84.044 15.424 139.732 46.322 55.662 30.874 82.016 46.322 78.986 46.322-10.14-106.316-45.572-177.702-106.342-214.112-43.518-25.326-65.29-50.116-65.29-74.392 0-15.188 9.114-27.356 27.33-36.47 14.174-7.098 29.848-10.642 47.064-10.642 26.328 0 52.144 16.178 77.47 48.566 25.278 32.426 36.444 61.76 33.414 88.112-3.030 30.362-1.002 66.842 6.086 109.324 2.004 12.168 9.34 27.080 21.998 44.784 12.656 17.726 24.050 28.606 34.178 32.662 0-9.090-3.282-24.3-9.878-45.546-6.598-21.248-9.854-36.982-9.854-47.086 0-22.274 6.060-39.476 18.216-51.608 18.194 7.062 34.394 29.848 48.602 68.344 12.12 29.336 19.194 57.692 21.246 85.022-42.54 2.028-83.292 21.248-122.254 57.716-38.986 36.47-58.456 75.932-58.456 118.438 0 7.086 0.978 14.172 3.054 21.27 6.060-9.114 15.164-23.298 27.308-42.516 17.214-25.304 30.384-37.962 39.522-37.962 12.12 0 18.192 12.658 18.192 37.962 0 32.388-8.624 61.746-25.814 88.076-19.244 31.386-44.056 47.086-74.418 47.086-14.184 0-35.442-7.6-63.752-22.786-28.38-15.162-54.196-22.786-77.446-22.786-7.11 0-38.522 9.138-94.186 27.356 98.182 16.164 147.308 30.85 147.308 44.032 0 34.416-67.342 57.714-201.968 69.848-13.182 1.002-37.472 3.030-72.902 6.084 4.032 5.058 32.902 10.628 86.584 16.7 45.548 5.036 77.448 7.6 95.652 7.6 240.942 0 393.822-116.97 458.61-350.826 11.144 9.222 16.726 24.646 16.726 46.18 0 27.724-8.112 62.63-24.3 104.706-6.108 16.402-15.724 41.050-28.87 73.88 82.994-105.78 124.534-206.024 124.534-300.614 0-49.842-11.68-95.116-34.954-135.772-15.152-27.474-43.544-62.558-85.024-105.29-41.514-42.708-69.87-75.778-85.070-99.172 55.688 15.162 92.158 26.818 109.372 34.93 38.448 17.178 73.366 43.018 104.778 77.448 0-13.194-5.572-32.95-16.702-59.256zM325.318 821.661c0-18.192-10.14-29.848-30.36-34.906l-39.5-6.084c-14.184-7.086-34.93-34.93-62.26-83.508-3.054 15.164-7.6 36.422-13.672 63.776-9.114-1.026-24.276-9.114-45.548-24.3-9.114-7.086-23.81-17.704-44.056-31.876 6.108 36.444 26.33 73.344 60.77 110.862 36.446 41.48 71.876 62.236 106.294 62.236 45.546 0 68.332-18.752 68.332-56.2zM589.56 681.977c0-17.214-9.366-31.66-28.096-43.292-18.728-11.656-37.208-17.478-55.424-17.478-24.3 0-46.084 13.672-65.29 41.014-23.324 33.416-47.088 55.176-71.388 65.34 5.058 5.034 11.142 7.574 18.24 7.574 9.114 0 24.516-7.086 46.3-21.246 21.76-14.184 35.67-21.27 41.778-21.27 5.058 0 13.396 7.086 25.052 21.27 11.63 14.172 24.538 21.246 38.722 21.246 33.404-0.012 50.106-17.738 50.106-53.158z"/>
</g>
</svg>