<svg xmlns="http://www.w3.org/2000/svg" width="32" height="32" viewBox="0 0 1024 1024">
<title>rg</title>
<g transform="translate(0,960) scale(1,-1)">
<path fill="#444" d="M408.684 779.863h0.090c18.314-10.18 35.318-22.812 50.14-37.634 9.99-10.146 18.962-21.556 24.806-34.618 5.072-11.36 7.538-24.234 5.064-36.568-2.132-10.874-7.862-20.622-14.37-29.446-12.242-16.42-27.108-30.924-37.308-48.826-7.376-12.688-11.892-27.122-12.252-41.838-0.586-10.16 3.208-19.888 7.482-28.904 2.622-5.474 5.574-10.788 8.578-16.072 18.064 1.096 36.158 1.76 54.264 1.894 2.078-0.022 4.198 0.226 6.252-0.184 1.71-0.976 2.41-2.982 3.024-4.74 1.456-4.784 1.872-9.8 2.296-14.76 0.862-12.724 0.636-25.482 0.29-38.22-0.636-20.566-1.942-41.104-3.306-61.628-0.642-10.788-1.624-21.568-1.866-32.37 2.056-44.496 3.944-88.998 5.278-133.512 0.114-12.95 0.114-26.092-2.868-38.774-2.586-11.042-8.422-20.912-14.448-30.386-3.072-0.416-6.188-0.274-9.22 0.332 3.3 4.996 5.892 11.242 4.056 17.26-0.918 3.49-4.076 6.464-7.85 6.098 0.8-4.042-0.53-8.054-2.296-11.65-2.302-4.622-5.078-9.142-8.964-12.612-1.908 4.126-2.734 8.62-4.078 12.93-3.468 11.798-7.94 23.688-15.986 33.176-5.016 6.020-11.814 10.598-19.464 12.47-3.074-6.81-6.062-13.678-9.878-20.108 2.932-6.562 4.918-13.726 4.268-20.974-0.664-8.846-4.514-17.112-9.362-24.416-1.574 5.156-3.546 10.894-8.428 13.818-4.090 2.41-9.184 1.11-13.056-1.11-7.608-4.358-13.43-11.162-18.63-18.092-4.846-6.768-9.304-13.982-11.876-21.952-1.61-4.712-0.374-9.826 1.626-14.214 3.518-7.488 9.198-13.754 15.428-19.11 5.696-4.748 11.982-9.058 19.16-11.198-25.066-2.020-50.45 2.79-73.502 12.66-12.4 5.546-24.834 11.962-34.4 21.81-14.942-4.36-30.336-7.192-45.872-8.21-13.268-0.714-27.186-0.742-39.562 4.726 18.686 7.32 35.040 19.634 48.882 34.018 15.534 16.094 28.302 34.682 39.046 54.252 6.012 11.098 11.51 22.516 15.748 34.42 1.294 3.588 2.064 7.714 0.452 11.332-1.498 3.468-5.022 5.58-8.576 6.428-6.556 1.562-13.488 0.078-19.436-2.882-3.37 14.546-7.616 29.016-14.468 42.34-5.094 9.906-11.622 19.258-20.27 26.38-8.972 7.51-20.474 11.926-32.18 12.208-14.046 0.192-28.274-1.166-41.67-5.594-8.732-2.856-16.912-7.172-24.592-12.18-9.764-6.26-19.258-13.304-30.372-17.020-14.568-5.15-30.322-4.38-45.456-3.010-24.14 2.488-48.542 9.772-67.752 25.080v0.008c13.162 0.036 26.444 1.356 39.006 5.46 11.092 3.582 21.336 9.686 29.82 17.664 10.104 9.444 17.854 21.018 25.328 32.562 11.248 17.648 22.544 35.458 37.006 50.704 16.326 17.542 36.2 31.552 57.65 42.128-4.056 10.23-6.048 21.13-7.532 31.996-2.24 17.21-2.924 34.598-2.706 51.942 0.248 13.684 0.954 27.412 3.398 40.898-2.43 0.22-4.754-0.692-6.654-2.162-5.766-4.246-10.124-10.066-14.004-16.008-2.966 0.176-5.948-0.34-8.646-1.598-9.030-3.99-15.938-11.784-20.248-20.536 2.606 15.966 6.712 31.764 13.24 46.6 8.632 19.95 22.014 37.824 38.834 51.608 16.214 13.6 35.24 23.088 53.546 33.46 9.558 5.588 19.272 11.564 26.26 20.34 3.54 4.352 5.948 9.508 7.446 14.9-0.558-19.656-3.406-39.698-12.35-57.438-3.998-8.302-8.95-16.214-11.606-25.094-3.152-10.196-3.3-21.068-2.114-31.594 2.148-18.116 8.854-35.438 17.86-51.208 6.472-11.268 14.172-21.844 22.948-31.43 7.326-7.906 15.344-15.296 24.522-21.012 10.074 1.3 20.17 2.38 30.266 3.518-3.752 12.3-6.762 24.806-9.622 37.332-2.748 12.3-5.398 24.634-7.49 37.068-2.338 11.828 0.524 24.268 6.324 34.69 6.606 11.77 16.708 21.052 27.15 29.382 16.482 13.162 34.674 24.396 49.2 39.86 8.726 9.284 15.762 20.46 18.75 32.944 2.756 11.234 2.586 23.186-0.812 34.264-3.802 13.488-11.248 25.462-17.386 37.932zM322.796 386.109c2.556-5.3 5.884-10.224 7.926-15.77 1.774-4.606 1.894-9.734 0.494-14.454 11.524-6.648 19.344-17.868 25.936-29.108 3.398-5.454 6.062-11.578 11.064-15.824 6.718-5.872 14.928-9.772 23.286-12.724 4.952-1.626 10.052-3.166 15.308-3.23 4.452 0.058 7.85 3.526 9.99 7.108 3.384 5.206 4.784 11.756 9.594 15.974 2.296 2.182 5.378 3.116 8.126 4.556 1.37 0.644 1.392 2.346 1.83 3.596 1.292 5.256 3.398 10.252 4.958 15.416-13.344 9.1-26.896 17.994-41.478 24.996-23.886 11.806-50.202 19.774-77.034 19.464zM609.954 359.135c27.666 15.846 58.886 27.326 91.138 26.96-2.974-6.246-7.192-11.99-8.818-18.808-0.946-3.75-0.62-7.7 0.41-11.41-9.34-5.348-16.334-13.86-22.078-22.798-3.566-5.46-6.57-11.254-10.124-16.716-4.804-6.894-12.314-11.26-19.752-14.794-7.2-3.206-14.788-5.94-22.694-6.57-4.562-0.388-8.356 2.904-10.596 6.564-3.674 5.39-5.030 12.342-10.152 16.702-2.34 2.168-5.49 2.994-8.188 4.556-1.018 0.558-1.054 1.83-1.386 2.79-1.306 5.468-3.496 10.668-5.122 16.046 9.016 5.984 17.896 12.208 27.362 17.478zM615.034 779.863c-18.454-10.392-35.692-23.102-50.598-38.186-9.94-10.194-18.856-21.66-24.572-34.788-4.84-11.126-7.15-23.666-4.784-35.692 2.134-10.984 7.92-20.84 14.506-29.742 12.37-16.546 27.382-31.178 37.564-49.306 7.284-12.724 11.664-27.192 11.918-41.894 0.396-8.952-2.7-17.564-6.296-25.618-2.902-6.408-6.316-12.576-9.798-18.686-19.634 1.208-39.302 1.872-58.97 1.92-3.278 0.114-4.184-3.786-4.946-6.258-2.544-11.142-2.374-22.664-2.508-34.026 0.176-35.148 3.194-70.188 5.27-105.252 0.558-7.050-0.226-14.102-0.466-21.146-1.788-39.584-3.42-79.176-4.606-118.782-0.114-12.872-0.106-25.92 2.818-38.532 2.566-11.14 8.436-21.11 14.554-30.632 3.060-0.36 6.154-0.24 9.184 0.36-3.306 4.974-5.884 11.17-4.104 17.182 0.912 3.546 4.076 6.514 7.912 6.23-1.010-4.654 0.94-9.19 3.038-13.238 2.184-4.056 4.72-8.012 8.21-11.072 2.274 5.186 3.242 10.816 5.030 16.172 2.67 8.57 6.012 17.026 10.958 24.558 5.446 8.422 13.586 15.514 23.532 17.838 3.046-6.818 6.056-13.67 9.87-20.1-3.158-6.986-5.136-14.716-4.14-22.416 0.948-8.336 4.684-16.058 9.22-23.010 1.504 4.952 3.348 10.342 7.772 13.444 3.546 2.508 8.322 1.958 12.046 0.148 6.576-3.144 11.77-8.478 16.418-13.974 6.428-7.864 12.116-16.546 15.528-26.162 2.198-5.714 0.326-11.988-2.466-17.138-4.23-7.652-10.476-14.024-17.35-19.352-4.862-3.716-10.166-6.966-16.044-8.78 27.036-2.184 54.428 3.602 78.878 15.14 10.414 5.1 20.806 10.88 28.91 19.328 16.158-4.74 32.86-7.644 49.688-8.428 12.024-0.374 24.578-0.056 35.748 4.946-22.092 8.634-40.772 24.196-56.18 41.952-17.698 20.544-31.862 44.014-42.786 68.79-2.204 5.446-4.81 10.824-5.926 16.616-0.94 4.692 1.42 9.792 5.828 11.792 7.292 3.462 15.96 1.894 22.94-1.604 3.236 13.954 7.248 27.842 13.642 40.708 4.798 9.672 10.866 18.884 18.942 26.148 6.944 6.364 15.534 11.006 24.782 12.934 6.938 1.556 14.096 1.258 21.146 0.926 14.25-0.756 28.55-3.652 41.414-9.982 11.65-5.524 21.662-13.834 32.994-19.924 11.134-6.082 23.878-8.816 36.524-8.668 25.286 0.092 51.178 4.536 73.518 16.872 4.882 2.684 9.474 5.834 13.904 9.204-14.080 0.036-28.344 1.54-41.654 6.344-9.44 3.4-18.186 8.642-25.66 15.318-9.94 8.816-17.628 19.788-24.868 30.838-11.192 17.316-22.008 35.034-35.876 50.394-16.934 19.138-37.982 34.384-60.864 45.638 4.726 11.926 6.704 24.714 8.202 37.388 1.788 16.348 2.318 32.816 2 49.25-0.318 12.78-1.060 25.602-3.364 38.2 4.318 0.396 7.694-2.798 10.626-5.512 3.872-3.772 7.122-8.124 10.032-12.666 5.010 0.424 9.756-1.732 13.834-4.438 6.528-4.338 11.572-10.646 15.048-17.634-4.282 27.052-13.494 53.884-30.366 75.744-13.494 17.81-31.736 31.354-51.022 42.312-8.958 5.198-18.164 9.954-27.080 15.232-8.922 5.348-17.882 11.246-24.19 19.688-3.144 4.12-5.278 8.91-6.642 13.89 0.482-15.020 2.078-30.194 6.966-44.48 3.166-9.7 8.338-18.538 12.838-27.644 4.826-9.588 7.142-20.334 6.938-31.052-0.184-23.454-8.76-46.090-20.772-65.964-10.278-16.702-22.996-32.146-38.616-44.106-2.168-1.646-4.408-3.18-6.746-4.572-10.026 1.364-20.094 2.41-30.154 3.526 7.15 24.14 12.484 48.798 16.992 73.56 2.196 10.28 0.452 21.116-3.746 30.662-4.676 10.582-12.496 19.4-21.024 27.058-16.164 14.398-34.908 25.582-50.874 40.228-8.048 7.396-15.352 15.804-20.34 25.596-5.602 10.838-7.984 23.278-7.022 35.422 1.172 12.816 6.358 24.828 12.222 36.124 2.564 4.938 5.34 9.77 7.65 14.836h-0.134z"/>
</g>
</svg>