<svg xmlns="http://www.w3.org/2000/svg" width="32" height="32" viewBox="0 0 1024 1024">
<title>rp</title>
<g transform="translate(0,960) scale(1,-1)">
<path fill="#444" d="M799.996 427.425c0.606 55.84-17.136 112.212-51.9 155.984-16.802 18.504-30.616 39.57-48.412 57.062-39.226 38.934-97.96 41.524-145.21 66.048-2.748 24.63-11.756 49.268-6.302 74.116 1.662 8.266 4.096 16.646-0.302 24.544-12.392 28.548-1.746 59.54-3.95 89.31-1.65 15.548-0.596 34.576-15.402 44.178-3.448-32.36-15.35-62.476-24.994-93.184-4.452-23.93-4.452-48.86-14.764-71.43 6.54-22.864-6.416-42.11-20.44-58.996-30.992-15.884-67.876-19.656-94.846-42.946-19.236-16.322-39.998-30.626-61.524-43.908-16.144-20.208-34.022-39.674-41.21-65.202-28.862-34.848-32.268-81.618-48.63-122.432-0.304-60.594 11.974-125.838 50.678-174.406 27.69-22.862 47.040-53.614 74.69-76.486 26.54-15.842 54.868-28.86 82.276-43.124 17.868-4.158 36.31-6.206 54.084-11.066 14.42-74.282 24.262-150.372 53.206-220.82 9.604 28.924 8.444 59.916 16.73 89.142 11.682 43.216-12.288 88.2 1.222 130.624 20.25 18.108 54.022 6.352 76.488 21.89 42.758 26.364 88.002 52.036 119.014 92.37 11.546 23.186 35.798 40.512 35.798 68.326 0.2 37.46 22.048 72.538 13.7 110.406zM482.626 198.277c-30.982 7.532-59.842 22.35-85.83 40.448-27.96 18.63-38.39 53.394-65.974 72.454-25.83 30.834-20.24 72.954-30.826 109.464 4.242 25.474 9.248 50.74 11.892 76.54 12.602 20.438 32.046 36.738 37.438 61.336 18.464 26.456 46.582 44.764 69.164 67.7 16.426 18.944 42.568 10.96 64.146 11.692-2.142-20.898-3.846-42.506 1.39-63.122 2.55-12.666 8.266-25.142 6.312-38.412-4.326-28.202 6.258-56.488-1.224-84.366-15.078-58.284 1.37-117.124 2.8-175.878-2.152-26.030-3.364-52.246-9.288-77.856zM717.49 308.723c-20.522-14.588-38.004-32.508-55.914-49.998-31.128-21.526-61.89-44.306-98.942-55.068 3.344 26.426 6.604 53.614-1.818 79.486-20.668 58.452 4.66 119.59 8.934 178.7-3.772 35.142-0.168 72.632-16.28 105.004-2.11 24.314 8.402 47.794 15.528 70.678 24.472-9.77 47.512-22.958 67.878-39.916 24.596-18.432 62.276-30.386 67.782-64.764 2.812-22.58 27.524-36.238 26.802-59.34-1.546-54.92 6.030-112.358-13.97-164.782z"/>
</g>
</svg>