<svg xmlns="http://www.w3.org/2000/svg" width="32" height="32" viewBox="0 0 1024 1024">
<title>rw</title>
<g transform="translate(0,960) scale(1,-1)">
<path fill="#444" d="M511.68 937.907c10.818-93.28 21.522-186.57 32.318-279.86 11.534 9.294 23.006 18.688 34.56 27.96 6.344-15.934 13.068-31.714 19.546-47.598 15.288 7.38 30.548 14.84 45.826 22.238 2.814-17.662 5.588-35.326 8.402-52.99 46.748 30.784 93.464 61.596 140.222 92.37-31.828-44.712-63.716-89.382-95.552-134.072 15.186-0.91 30.384-1.75 45.58-2.64-7.122-16.148-14.256-32.286-21.368-48.426 16.426-5.556 32.86-11.052 49.296-16.598-10.306-12.382-20.662-24.714-30.956-37.098 94.598-11.656 189.208-23.24 283.808-34.906-93.28-10.828-186.59-21.512-279.868-32.328 9.26-11.512 18.614-22.954 27.886-34.466-15.852-6.55-31.714-13.080-47.556-19.64 7.398-15.288 14.86-30.546 22.248-45.836-18.554-3.244-37.118-6.468-55.67-9.752 31.212-52.172 62.496-104.302 93.718-156.462-43.36 35.9-86.678 71.84-130.038 107.74-1.812-13.376-3.54-26.772-5.342-40.148-16.16 7.114-32.288 14.276-48.456 21.358-5.516-16.434-11.042-32.88-16.578-49.316-12.342 10.346-24.726 20.662-37.088 30.988-11.656-94.59-23.23-189.178-34.906-283.758-10.838 93.27-21.532 186.548-32.328 279.828-11.514-9.272-22.964-18.636-34.478-27.906-6.57 15.852-13.088 31.724-19.648 47.576-15.258-7.44-30.516-14.86-45.806-22.248-2.394 13.13-4.666 26.27-7.050 39.398-53.522-43.4-106.994-86.872-160.526-130.262 40.392 61.852 80.866 123.652 121.248 185.524-17.438 0.942-34.876 1.76-52.314 2.64 7.082 16.16 14.256 32.278 21.348 48.426-16.404 5.598-32.86 11.052-49.286 16.61 10.306 12.382 20.662 24.714 30.958 37.106-94.6 11.646-189.21 23.23-283.81 34.898 93.28 10.816 186.58 21.52 279.87 32.318-9.252 11.522-18.606 22.964-27.888 34.456 15.842 6.59 31.714 13.098 47.556 19.668-7.408 15.28-14.848 30.538-22.248 45.816 15.852 1.904 31.704 3.776 47.566 5.68-36.216 49.45-72.444 98.888-108.63 148.358 51.936-35.9 103.83-71.862 155.776-107.75 0.88 17.448 1.73 34.886 2.62 52.334 16.15-7.092 32.288-14.234 48.426-21.358 5.578 16.416 11.042 32.872 16.61 49.286 12.392-10.286 24.714-20.642 37.086-30.946 11.656 94.588 23.23 189.198 34.916 283.788zM490.682 632.557c-52.12-5.016-101.722-30.978-135.832-70.654-26.188-30.148-43.37-68.002-48.64-107.596-4.82-35.5-0.388-72.24 13.058-105.458 15.392-38.396 42.624-71.88 76.998-94.876 29.862-20.13 65.096-32.164 101.036-34.58 38.294-2.712 77.316 5.446 111.23 23.466 36.176 19.066 66.436 49.102 85.788 85.104 16.476 30.424 25.022 65.054 24.724 99.634-0.142 39.112-11.696 78.102-32.982 110.922-21.348 33.24-52.438 60.062-88.358 76.466-33.258 15.258-70.632 21.276-107.022 17.572zM501.796 611.413c-29.28-1.514-58.19-10.090-83.466-24.96-31.346-18.174-57.062-45.826-73.048-78.328-16.61-33.504-22.514-72.106-17.018-109.070 4.718-32.512 18.41-63.652 39.092-89.176 20.632-25.614 48.17-45.61 78.972-57.174 38.664-14.634 82.27-15.73 121.648-3.152 31.642 10.028 60.42 28.828 82.422 53.674 23.282 26.138 38.938 59.008 44.382 93.598 5.844 36.36 0.656 74.45-15.002 107.8-14.91 31.98-39.144 59.57-69.016 78.35-32.174 20.558-70.866 30.546-108.966 28.438z"/>
</g>
</svg>