<svg xmlns="http://www.w3.org/2000/svg" width="32" height="32" viewBox="0 0 1024 1024">
<title>s</title>
<g transform="translate(0,960) scale(1,-1)">
<path fill="#444" d="M512 926.431l100.226-141.132 24.078 41.702 44.35 0.522 86.946 41.848 7.228-96.228 21.736-38.668-24.068-41.714 172.316-16.216-72.12-157.356h48.164l22.626-38.146 79.716-54.382-79.716-54.37-22.626-38.156h-48.164l72.13-157.336-172.326-16.236 24.068-41.694-21.726-38.708-7.228-96.228-86.956 41.868-44.35 0.52-24.078 41.714-100.216-141.132-100.226 141.132-24.076-41.714-44.352-0.53-86.946-41.858-7.238 96.248-21.726 38.688 24.078 41.694-172.326 16.214 72.12 157.358h-48.164l-22.636 38.156-79.716 54.37 79.726 54.372 22.626 38.156h48.164l-72.13 157.346 172.336 16.226-24.078 41.714 21.726 38.668 7.228 96.228 86.956-41.848 44.352-0.522 24.076-41.702 100.216 141.132zM512.002 270.051l-72.090-125.642 72.090-125.642 72.078 125.642-72.078 125.642zM321.752 797.609l-35.856-20.704v-41.366l35.846-20.694 138.248-258.154-292.692-9.334-35.854 20.682-35.816-20.672v-41.388l35.816-20.692 35.854 20.692 292.692-9.354-138.258-258.156-35.836-20.682-0.010-41.376 35.846-20.684 35.834 20.684v41.376l154.434 248.81 154.434-248.81v-41.388l35.824-20.682 35.856 20.694v41.366l-35.856 20.692-138.238 258.156 292.702 9.354 35.844-20.702 35.826 20.682v41.398l-35.826 20.682-35.844-20.682-292.702 9.334 138.258 258.154 35.846 20.694v41.366l-35.846 20.694-35.824-20.684-0.020-41.376-154.424-248.81-154.432 248.81-0.012 41.386-35.814 20.684zM647.652 348.347l72.754-125.244 144.844-0.378-72.764 125.222-144.834 0.4zM376.36 348.357l-144.844-0.39-72.764-125.242 144.844 0.398 72.764 125.234zM865.25 630.599l-144.834-0.398-72.764-125.234 144.854 0.388 72.744 125.244zM158.762 630.609l72.764-125.232 144.844-0.4-72.764 125.244-144.844 0.388zM512.012 834.557l-72.080-125.642 72.080-125.632 72.078 125.632-72.078 125.642z"/>
</g>
</svg>