<svg xmlns="http://www.w3.org/2000/svg" width="32" height="32" viewBox="0 0 1024 1024">
<title>t</title>
<g transform="translate(0,960) scale(1,-1)">
<path fill="#444" d="M872.418 419.389h-411.958l150.862 107.362c-56.042 44.474-120.896 66.684-194.33 66.684-36.74 0-61.948-7.014-75.404-21.008-13.546-14.040-20.332-39.418-20.332-76.136 0-101.524 52.21-209.846 156.652-324.906l-118.894-120.382c-138.334 168.254-207.432 318.592-207.432 451.090 0 79.27 23.868 142.418 71.742 189.308 47.828 46.89 111.514 70.346 190.716 70.346 96.718 0 202.11-36.786 316.268-110.244l88.424 150.828 53.686-382.942z"/>
</g>
</svg>