<svg xmlns="http://www.w3.org/2000/svg" width="32" height="32" viewBox="0 0 1024 1024">
<title>u</title>
<g transform="translate(0,960) scale(1,-1)">
<path fill="#444" d="M739.504 7.635c-60.906-61.974-135.936-92.968-225.048-92.968-100.018 0-179.372 34.226-238.064 102.714-55.46 65.232-83.172 148.378-83.172 249.45 0 108.696 47.292 232.658 141.864 371.824 77.154 114.114 167.934 214.13 272.302 300.012-15.23-69.584-22.812-119.026-22.812-148.378 0-67.42 21.17-133.174 63.564-197.31 52.19-76.086 91.848-132.652 119.050-169.576 42.394-64.162 63.592-126.658 63.592-187.502 0.024-90.244-30.422-166.342-91.276-228.266zM737.862 355.767c-16.298 36.402-35.332 60.588-57.076 72.56 3.256-6.54 4.898-15.776 4.898-27.736 0-22.838-6.514-55.436-19.58-97.828l-21.172-65.232c0-38.042 18.982-57.076 57.050-57.076 40.206 0 60.334 26.654 60.334 79.914 0 27.15-8.142 58.934-24.454 95.398z"/>
</g>
</svg>