<svg xmlns="http://www.w3.org/2000/svg" width="32" height="32" viewBox="0 0 932 1024">
<title>ub</title>
<g transform="translate(0,960) scale(1,-1)">
<path fill="#444" d="M578.81 938.667h0.084c-3.996-11.106-7.844-22.334-9.764-34.028-3.942-22.158-2.862-44.96 1.146-67.034-18.524 13.512-39.974 23.118-62.56 27.256 3.68 6.596 7.268 13.25 11.348 19.614 14.48 23.118 35.772 41.436 59.746 54.192zM353.19 938.191c2.216-6.904 4.91-13.668 6.726-20.712 7.138-26.146 6.69-53.848 1.798-80.348 18.534 13.51 39.984 23.174 62.598 27.264-4.026 7.138-7.882 14.378-12.412 21.208-14.404 22.4-35.286 40.15-58.71 52.588zM129.58 902.271c-21.59-25.754-41.418-52.98-59.392-81.382-15.812-25.036-30.134-51.052-42.032-78.184-13.754-31.56-24.422-64.806-27.926-99.18 4.23 8.042 8.256 16.186 12.616 24.152 16.326 29.798 35.996 58.432 62.142 80.496 20.518 17.396 45.936 29.91 73.042 31.802 27.272 2.358 54.472-7.202 76.49-22.922 21.478-15.392 39.498-36.582 48.284-61.73 11.060 40.142 28.84 79.062 55.926 110.984-19.576-5.004-40.486-4.342-59.756 1.714-27.59 8.574-51.396 26.436-70.936 47.354-19.316 20.778-34.914 44.902-46.608 70.712-7.892-7.35-14.834-15.644-21.85-23.816zM728.064 849.737c-19.502-19.39-43.086-35.556-69.912-42.646-17.872-4.772-36.926-4.884-54.854-0.336 27.058-31.932 44.856-70.826 55.888-110.966 9.216 26.22 28.354 48.154 51.118 63.696 14.47 9.718 30.824 16.866 48.052 19.828 20.182 3.43 41.204 0.634 60.128-7.016 27.282-11.042 49.692-31.4 67.918-54.108 18.308-22.614 32.266-48.286 45.368-74.152v1.528c-3.42 28.29-11.080 55.944-21.6 82.388-12.14 30.732-27.7 60.008-45.032 88.092-18.71 30.078-39.47 58.898-62.196 86.068-7.204 8.368-14.304 16.874-22.354 24.45-12.896-28.372-30.45-54.77-52.524-76.826zM455.24 636.033c17.854 1.91 35.892-1.406 52.74-7.258 16.994-5.982 33.106-14.536 47.426-25.474 9.366-7.306 18.254-15.626 24.302-25.96 3.624-6.178 5.758-13.716 3.588-20.78-3.188-10.948-10.968-19.818-19.056-27.542-12.774-11.816-27.766-21.096-43.644-28.14-16.912-7.446-35.166-12.328-53.726-12.682-16.316-0.176-32.436 3.784-47.55 9.756-16.688 6.68-32.408 15.84-46.374 27.17-10.166 8.554-20.342 18.106-25.532 30.6-2.814 6.3-1.090 13.492 2.368 19.158 7.304 12.206 18.272 21.71 29.602 30.060 22.41 15.952 48.332 27.916 75.856 31.092zM448.652 808.441c-26.238-3.96-50.24-17.666-69.202-35.902-24.060-23.116-40.916-52.896-51.724-84.26-16.53-48.546-19.27-101.518-9.244-151.732 7.324-35.902 21.58-70.824 44.232-99.83 16.996-21.674 39.164-40.002 65.356-49.236 22.25-7.976 47.026-8.62 69.642-1.724 26.396 7.902 49.178 25.176 66.714 46.132 21.302 25.456 35.698 56.196 44.27 88.138 10.734 40.328 12.466 82.948 5.74 124.094-6.058 36.256-18.972 71.738-40.17 101.928-15.598 22.158-36.050 41.446-60.798 52.926-20.062 9.392-42.9 12.914-64.816 9.466zM672.222 619.933c1.584-21.264 2.18-42.714-0.56-63.912 5.862 2.582 12.402 3.272 18.738 2.758 12.040-0.894 23.584-5.17 34.188-10.78 15.858-8.544 29.65-20.62 41.12-34.458 15.932-19.212 27.422-41.818 35.286-65.438 9.672-29.23 14.004-60.016 14.89-90.728 0.838-29.836-1.566-59.69-5.964-89.19 7.744 18.57 13.344 37.942 18.776 57.276 8.014 29.128 14.824 58.582 20.76 88.204 5.582 28.222 10.398 56.614 13.492 85.22 1.864 18.31 3.318 36.768 2.088 55.17-24.796 2.656-49.106 8.88-72.578 17.182-30.878 11.060-60.714 25.588-87.382 44.792-13.724 10.072-26.854 21.44-36.526 35.584 1.632-10.51 2.842-21.086 3.672-31.68zM248.374 633.433c-20.696-19.818-45.592-34.662-71.264-47.092-34.746-16.38-71.85-28.494-110.136-32.732-0.904-12.664-0.372-25.374 0.522-38.018 1.788-23.77 5.208-47.38 9.196-70.88 7.064-40.636 15.99-80.962 26.9-120.74 5.35-18.99 10.912-37.98 18.46-56.224-7.156 48.722-9.206 98.796 0.4 147.334 7.11 35.622 20.928 70.628 44.418 98.702 15.664 18.58 35.678 34.3 59.112 41.558 11.052 3.234 23.462 4.93 34.346 0.234-1.268 11.172-2.124 22.418-1.882 33.664 0.242 20.732 1.844 41.446 4.994 61.926-4.388-6.41-9.486-12.326-15.066-17.732zM457.81 600.897c-10.716-2.386-20.098-10.082-24.422-20.184-4.744-10.622-3.662-23.592 2.804-33.274 7.212-11.218 21.19-17.572 34.392-15.466 10.642 1.462 20.37 8.208 25.56 17.6 4.528 8.014 5.656 17.844 3.12 26.686-2.432 8.694-8.394 16.326-16.25 20.788-7.51 4.426-16.716 5.768-25.204 3.85zM273.206 490.005c-1.474-17.014-5.928-33.89-14.080-48.956-8.432-15.97-20.77-29.566-34.606-41.036-11.498-9.83-24.664-17.6-35.576-28.12 3.374-17.518 9.16-34.448 14.656-51.388 19.26-56.96 41.502-112.858 64.676-168.326 22.8-53.914 46.562-107.492 73.47-159.504 10.138-19.306 20.584-38.528 32.828-56.604 5.338-7.65 10.854-15.376 18.066-21.404-14.908 32.248-27.756 65.43-38.92 99.15-23.276 70.752-39.852 143.774-48.574 217.768-2.608 24.458-5.32 48.918-7.518 73.414-1.362 17.090-2.732 34.3-1.1 51.408 0.96 8.236 2.468 16.986 7.826 23.61 3.784 4.752 10.026 6.746 15.944 6.504-22.14 31.084-36.89 66.874-47.092 103.484zM658.822 490.489c-10.212-36.628-25.008-72.362-47.072-103.512 5.748 0.206 11.824-1.612 15.606-6.158 5.732-6.812 7.222-16 8.182-24.58 1.566-17.658 0.092-35.4-1.36-53.020-1.772-19.912-4.036-39.776-6.066-59.662-3.654-35.434-9.338-70.646-16.614-105.524-16.158-76.526-39.406-151.768-72.12-222.89 6.102 5.002 10.874 11.366 15.486 17.712 10.306 14.582 19.138 30.124 27.684 45.778 15.672 28.998 29.938 58.73 43.738 88.66 18.43 40.206 35.854 80.86 52.524 121.82 18.616 46.068 36.6 92.434 52.16 139.628 4.586 14.332 9.188 28.708 12.114 43.486-11.964 11.666-26.706 19.996-39.088 31.224-12.188 10.586-22.996 22.988-30.702 37.234-8.368 15.3-13.036 32.464-14.472 49.804z"/>
</g>
</svg>