<svg xmlns="http://www.w3.org/2000/svg" width="32" height="32" viewBox="0 0 1024 1024">
<title>ur</title>
<g transform="translate(0,960) scale(1,-1)">
<path fill="#444" d="M486.652 882.667h1.158c1.086-2.572 2.172-5.19 3.794-7.47 5.718-6.802 13.388-11.472 20.384-16.816 6.868 5.344 14.61 9.85 20.182 16.67 1.724 2.262 3.274 4.762 3.73 7.616h1.112c6.914-3.512 11.192-11.61 19.372-12.54 20.474-2.508 41.158-2.554 61.724-3.594 7.816-3.784 10.826-12.932 17.72-17.92 1.112-7.058 2.508-14.064 4.076-21.040 8.154-36.27 17.202-72.394 22.71-109.194 2.818-17.036 4.67-34.264 8.764-51.054 1.45-6.866 6.932-11.674 10.952-17.1-6.848-14.126-15.238-27.432-22.872-41.13-8.072-14.474-16.808-28.684-23.192-44.014-7.998 30.252-27.004 56.626-49.996 77.402-6.476 5.626-13.078 11.326-20.876 15.056-1.45-1.942-2.772-3.984-3.684-6.238-3.238-7.606-5.636-15.558-7.552-23.592-2.636-11.502-4.542-23.622-1.35-35.222 8.556-36.562 20.292-72.376 26.968-109.394 2.946-16.928 5.528-34.246 3.52-51.438-0.208-4.486-3.71-7.624-6.32-10.906-10.824-12.568-21.888-25.39-28.59-40.74-4.47-9.968-6.376-21.286-3.812-32.030-8.6 4.606-15.724 12.422-18.040 22.072-3.566 14.372 0.574 29.202 5.436 42.762 1.75 5.428 5.052 10.626 4.496 16.554-0.684 9.958-4.324 19.562-9.358 28.116-3.128 4.916-6.922 10.078-12.63 12.076-4.706 1.504-9.194-1.706-12.276-4.962-6.43-7.068-10.434-16.042-13.014-25.162-1.486-5.946-2.8-12.512-0.338-18.386 2.062-5.29 4.122-10.588 5.792-16.024 3.684-12.112 6.156-25.482 1.932-37.784-2.818-8.454-9.474-15.048-17.162-19.262 2.306 9.896 0.956 20.338-2.856 29.678-6.638 16.67-18.622 30.36-30.168 43.794-2.326 2.918-5.364 5.754-5.636 9.704-1.988 15.522 0.044 31.198 2.498 46.548 6.466 38.786 18.842 76.216 27.826 114.428 3.902 14.31 0.538 29.184-3.23 43.128-2.38 7.634-4.504 15.586-9.11 22.236-7.834-3.448-14.31-9.258-20.748-14.766-23.146-20.802-42.208-47.26-50.296-77.612-2.090 5.336-4.688 10.452-7.352 15.522-7.834 14.784-16.306 29.222-24.606 43.75-4.788 8.564-9.968 16.936-14.090 25.846 4.014 5.416 9.512 10.224 10.944 17.1 3.502 14.118 5.236 28.59 7.506 42.936 4.532 31.856 11.518 63.284 18.788 94.612 3.236 14.51 6.994 28.938 9.202 43.656 6.064 4.588 9.256 11.902 15.22 16.572 2.782 2.444 6.668 1.532 10.032 1.788 16.416 0.538 32.85 1.076 49.204 2.636 3.82 0.464 7.96 0.492 11.226 2.836 4.542 3.11 8.19 7.36 12.886 10.296zM340.842 867.555c-28.71-7.98-55.34-21.796-81.050-36.598-14.646-8.574-29.366-17.128-42.936-27.36-24.124-18.104-45.802-39.144-68.090-59.398-6.312-5.966-13.096-11.474-20.512-16.034-10.368-6.694-22.106-10.934-32.402-17.72-6.776-4.342-11.172-11.738-12.066-19.7 10.488 3.166 20.802-3.11 28.044-10.214 3.218-3.32 6.602-6.822 8.162-11.262-0.556-6.904-2.252-13.68-3.694-20.448-7.514-31.938-17.236-63.31-27.506-94.456-11.162-33.442-23.32-66.566-37.026-99.052-8.218-19.352-19.81-36.972-31.018-54.674-7.342-11.792-14.482-24.068-17.61-37.748-2.518-10.562-2.126-21.614 0.054-32.202 2.216 6.492 4.688 12.968 8.618 18.64 5.062 7.498 12.658 14.364 22.062 15.094 3.438 0.584 6.192-1.998 8.326-4.322 4.624-5.308 8.162-11.456 11.646-17.538 11.164-20.046 21.168-40.694 32.23-60.794 14.338-26.174 29.932-51.83 48.948-74.904 12.832-15.722 26.912-30.36 40.364-45.536 19.18-21.322 36.982-44.732 46.668-72.020 11.746-32.102 12.020-67.132 7.532-100.666 9.868 9.786 15.286 22.992 19.39 36.024 5.29 17.692 8.272 36.114 8.81 54.574 0.474 23.884-9.402 46.43-21.214 66.676-10.442 17.83-22.48 34.656-34.090 51.738-19.416 28.226-37.902 57.356-51.364 88.956-5.928 13.36-9.986 27.442-15.55 40.94-6.41 16.142-13.388 32.384-15.44 49.786-0.492 5.152-1.194 10.506 0.374 15.54 2.034 6.74 5.372 12.978 8.054 19.462 1.996 4.806 3.93 9.914 3.374 15.204-2.654 37.272 0.492 74.884 8.628 111.336 3.94 18.24 9.32 36.116 14.208 54.11 2.088 8.262 4.47 16.652 4.068 25.262-0.128 2.928 1.806 5.362 2.918 7.926 10.808 20.646 23.758 40.136 37.93 58.614 20.028 25.764 43.002 49.722 70.48 67.596 21.542 13.982 46.584 23.64 72.532 23.658 2.808 17.83 10.004 34.528 14.472 51.938 0.93 4.186 2.172 8.638 0.794 12.878-2.134 7.14-5.006 14.090-8.728 20.556-1.896 2.81-4.232 7.808-8.39 6.138zM676.422 864.035c-4.578-6.876-7.726-14.628-10.216-22.48-1.64-4.434-0.428-9.184 0.602-13.598 4.478-17.402 11.648-34.1 14.492-51.922 14.692-0.062 29.304-3.082 42.984-8.426 25.316-9.84 47.378-26.53 66.766-45.298 22.208-21.706 41.242-46.486 57.748-72.742 5.4-8.718 10.616-17.584 15.122-26.812 2.224-3.75 0.61-8.228 1.514-12.312 2.572-16.29 8.126-31.902 12.174-47.854 11.2-40.876 17.028-83.392 14.966-125.81-0.008-5.772-1.504-11.71 0.292-17.364 1.696-5.91 4.514-11.418 6.95-17.046 2.58-5.836 5.226-12.010 4.55-18.55-1.058-24.186-12.504-46.020-20.62-68.346-10.506-32.33-26.202-62.736-44.588-91.254-16.67-26.292-35.632-51.1-51.528-77.902-9.31-16.006-17.464-33.124-20.346-51.584-1.76-10.57-1.15-21.34 0.028-31.938 1.576-13.744 4.194-27.396 8.454-40.574 4.030-12.184 9.356-24.442 18.632-33.598-4.406 32.814-4.26 67.032 6.776 98.586 8.754 25.792 24.788 48.318 42.582 68.646 20.984 23.978 43.702 46.594 61.806 72.934 19.862 28.408 35.922 59.198 51.82 89.932 6.674 12.576 12.922 25.462 21.058 37.192 2.58 3.328 5.234 7.332 9.53 8.49 6.694 0.402 13.004-3.028 17.774-7.496 7.47-6.986 11.938-16.518 14.948-26.148 2.116 9.312 2.562 19.034 0.884 28.446-2.406 14.062-9.338 26.784-16.716 38.796-9.978 16.014-20.594 31.71-28.756 48.774-7.15 15.176-13.022 30.908-19.152 46.512-17.19 45.372-32.548 91.482-45.044 138.378-3.082 12.42-6.566 24.852-7.924 37.61 1.996 5.382 6.31 9.54 10.442 13.362 6.904 6.1 16.388 10.988 25.772 8.116-0.784 4.66-2.142 9.356-5.088 13.132-5.208 6.804-13.26 10.388-20.684 14.174-11.92 5.79-23.648 12.274-33.626 21.084-24.36 21.842-47.678 44.962-73.908 64.616-13.588 10.224-28.326 18.768-42.974 27.35-25.882 14.866-52.694 28.802-81.642 36.654-2.672 0.912-4.442-1.942-5.854-3.73zM441.736 626.769c-5.216-16.982-11.464-33.798-20.712-49.038-7.122-11.902-16.288-22.69-27.468-30.972-11.438-8.7-24.87-14.062-37.374-20.948-6.978-3.722-12.886-9.012-19.444-13.352-12.868-8.774-24.742-19.134-34.254-31.518-17.684-22.718-27.562-50.572-32.486-78.698-3.584-20.51-4.844-41.396-4.414-62.198 0.784-21.978 3.356-43.858 6.32-65.636 2.316-16.216 4.87-32.422 8.426-48.428 1.050-4.77 2.354-9.484 4.050-14.080 1.978 4.186 7.014 4.35 10.834 2.862 9.914-3.446 18.232-10.214 26.048-17.026 13.332-11.974 24.75-25.928 34.966-40.62 6.328-9.386 12.804-18.816 17.154-29.322 6.576-15.486 11.264-31.728 14.674-48.18 3.702-18.378 5.746-37.22 4.46-55.97-1.068-14.838-4.388-29.878-12.148-42.736-2.080-3.594-5.008-6.604-7.022-10.242h0.4c3.32 3 7.334 5.088 10.99 7.642 19.188 13.444 35.066 31.374 46.732 51.656 15.212 26.412 24.040 56.206 27.614 86.384 2.564 21.406 0.666 43.166-3.802 64.188-3.932 17.29-9.576 34.482-19.126 49.54-13.132-4.78-27.916-4.278-40.92 0.656-14.182 5.462-25.966 16.508-32.988 29.914-2.882 5.644-5.262 11.946-4.378 18.394 0.722 9.276 6.43 18.468 15.45 21.642 8.536 3.266 18.066 0.32 25.116-4.97-8.536 12.95-16.99 26.010-26.894 37.976-5.564 6.638-11.674 13.142-19.562 16.982 0.838 16.998 2.926 34.026 7.596 50.432 4.88 17.292 12.576 34.046 24.268 47.816 8.236 9.64 18.506 17.904 30.544 22.218 4.86 1.796 10.078 2.57 15.258 2.178-3.046 15.76-0.156 31.948 5.124 46.896 5.646 16.342 11.874 32.586 15.066 49.64 4.542 22.708 4.652 46.056 2.7 69.056-1.934-5.216-5.498-10.004-10.798-12.138zM571.422 638.935c-1.824-21.952-1.86-44.196 2.116-65.928 3.156-18.806 10.124-36.618 16.252-54.574 4.962-14.42 7.442-30.024 4.524-45.154 7.46 0.758 14.856-1.496 21.486-4.77 11.474-5.726 21.050-14.756 28.62-25.016 10.45-14.19 17.19-30.806 21.422-47.834 3.612-14.81 5.608-30.024 6.010-45.262-7.050-3.010-12.404-8.756-17.42-14.356-10.77-12.558-19.798-26.466-28.818-40.292 6.958 5.236 16.342 8.136 24.816 5.008 8.864-3.002 14.656-11.856 15.576-20.94 1.14-6.776-1.322-13.47-4.404-19.398-7.306-13.818-19.682-25.098-34.502-30.288-12.622-4.386-26.722-4.588-39.344-0.082-10.944-17.556-17.008-37.72-20.738-57.94-3.12-18.258-4.396-36.972-2.162-55.412 3.128-26.878 10.452-53.408 22.69-77.594 14.074-27.934 35.66-52.558 63.12-67.898-11.254 12.85-16.836 29.64-18.64 46.402-2.236 19.928-0.338 40.092 3.428 59.7 4.222 20.666 10.014 41.25 19.726 60.056 12.86 21.888 28.126 42.618 46.904 59.818 7.872 6.958 16.28 13.788 26.258 17.446 3.794 1.496 9.53 1.814 11.126-2.918 4.34 11.618 6.164 23.966 8.444 36.106 5.062 30.224 9.112 60.684 10.444 91.318 0.528 22.874-0.95 45.864-5.364 68.336-5.992 30.772-18.55 61.096-40.52 83.932-9.374 10.014-20.638 17.93-31.846 25.728-14.346 11.838-32.722 17.036-47.744 27.842-11.782 8.172-21.532 19.070-29.010 31.264-9.722 15.614-16.298 32.95-21.588 50.506-5.334 2.108-8.936 6.95-10.862 12.194zM704.83 616.271c-1.022-5.636-2.198-11.236-3.666-16.77-3.73-13.508-8.3-27.224-16.964-38.45 5.864-0.968 11.446-3.376 16.162-6.978 10.67-7.998 17.82-19.78 22.854-31.946 4.87 14.856 3.42 30.952 0.292 46.010-3.794 16.834-9.758 33.324-18.678 48.134zM319.072 616.245c-6.474-10.762-11.282-22.464-15.030-34.438-5.772-19.18-9.266-40.1-3.438-59.7 3.476 7.662 7.268 15.258 12.632 21.798 6.612 8.39 15.704 15.504 26.512 17.146-4.57 5.826-7.926 12.502-10.68 19.342-4.678 11.538-7.652 23.668-9.996 35.852z"/>
</g>
</svg>