<svg xmlns="http://www.w3.org/2000/svg" width="32" height="32" viewBox="0 0 1024 1024">
<title>w</title>
<g transform="translate(0,960) scale(1,-1)">
<path fill="#444" d="M1021.282 351.195c-70.064 39.5-114.988 59.278-134.734 59.278-14.352 0-25.576-11.020-33.68-33.020-8.096-22.030-24.242-32.996-48.494-32.996-9.888 0-30.092 3.588-60.634 10.764-17.064-26.056-25.608-42.672-25.608-49.85 0-9.888 7.358-21.528 22.042-35.036 14.684-13.476 27.070-20.194 37.184-20.194 6.428 0 15.12 1.336 26.152 4.048 11.010 2.67 18.378 4.026 22.040 4.026 11.032 0 16.52-20.216 16.52-60.634 0-38.626-8.97-97.904-26.942-177.846-23.364 91.624-48.054 137.448-74.090 137.448-3.608 0-11.010-2.692-22.232-8.116-11.246-5.362-19.542-8.052-24.924-8.052-26.036 0-49.39 23.782-70.064 71.42-41.316-6.302-61.99-27.414-61.99-63.368 0-17.984 8.296-32.326 24.944-43.090 16.586-10.764 24.926-18.442 24.926-22.906 0-24.272-35.498-61.552-106.458-111.838-37.706-26.944-63.784-45.802-78.126-56.566 12.538 16.146 25.116 37.236 37.728 63.304 14.352 29.634 21.55 52.54 21.55 68.728 0 8.97-10.326 21.572-30.99 37.728-20.674 16.148-30.968 33.222-30.968 51.184 0 15.25 5.36 34.098 16.146 56.588-11.682 13.476-25.576 20.236-41.754 20.236-35.934 0-53.874-11.704-53.874-35.028 0 16.168 0 4.048 0-36.37 0.876-29.646-21.572-44.468-67.394-44.468-35.016 0-93.878 8.106-176.488 24.252 93.418 23.366 140.116 50.308 140.116 80.838 0-3.588-1.794 7.176-5.382 32.336-3.61 27.808 16.168 52.978 59.278 75.424-8.094 41.296-29.612 62.002-64.682 62.002-5.382 0-15.292-9.44-29.634-28.268-14.374-18.912-27.838-28.32-40.398-28.32-21.57 0-49.432 23.344-83.528 70.086-16.19 23.322-40.9 57.922-74.122 103.744 20.652-10.808 41.316-21.572 61.99-32.368 26.942-12.558 48.492-18.858 64.682-18.858 12.58 0 24.924 11.010 37.044 33.018 12.12 22.010 28.074 33.020 47.83 33.020 2.714 0 20.674-5.382 53.896-16.19 17.044 26.046 25.608 45.364 25.608 57.944 0 10.784-6.524 23.13-19.542 37.066-13.038 13.914-24.924 20.876-35.71 20.876-4.506 0-11.448-1.334-20.898-4.046-9.408-2.692-16.37-4.048-20.856-4.048-16.188 0-24.272 20.214-24.272 60.634 0 10.786 10.346 72.296 31.010 184.582-0.918-13.454 4.924-38.624 17.502-75.434 15.272-44.926 33.222-67.372 53.918-67.372 3.566 0 10.764 2.69 21.55 8.094 10.764 5.382 19.296 8.052 25.586 8.052 20.654 0 37.708-11.682 51.206-34.994l20.214-36.372c18.858 0 34.578 6.716 47.136 20.194 12.58 13.476 18.88 29.654 18.88 48.512 0 19.756-8.298 34.814-24.924 45.14-16.648 10.326-24.946 18.186-24.946 23.568 0 18.88 29.656 50.746 88.934 95.66 47.594 35.914 78.584 57.026 92.98 63.326-38.626-52.102-57.944-90.246-57.944-114.52 0-12.578 7.614-26.066 22.906-40.418 18.86-17.066 29.634-29.196 32.326-36.372 8.97-20.696 8.072-48.974-2.692-84.886 24.252-17.086 42.652-25.586 55.252-25.586 26.014 0 39.064 13.498 39.064 40.418 0 2.692-1.122 11.224-3.354 25.586-2.274 14.354-2.916 22.448-2.040 24.252 3.588 12.58 28.3 18.88 74.1 18.88 28.738 0 88.454-8.094 179.202-24.272-19.778-5.382-49.412-13.456-88.912-24.242-35.934-10.784-53.918-22.906-53.918-36.372 0-6.3 2.232-17.064 6.738-32.324 4.486-15.292 6.76-26.484 6.76-33.702 0-12.558-8.094-24.24-24.25-34.994l-45.824-32.368c10.786-19.778 17.962-31.448 21.572-35.016 8.97-10.764 21.090-16.168 36.372-16.168 10.786 0 20.652 9.43 29.634 28.278 8.97 18.88 23.364 28.298 43.11 28.298 24.24 0 51.664-22.468 82.194-67.392 17.012-25.202 43.516-63.358 79.45-114.552zM722.202 429.321c0 57.462-21.134 107.332-63.348 149.566-42.212 42.214-92.062 63.326-149.546 63.326-58.402 0-108.71-20.898-150.902-62.674-42.212-41.754-63.784-91.838-64.66-150.208-0.918-57.484 20.418-107.108 63.988-148.84 43.57-41.776 94.092-62.674 151.564-62.674 61.072 0 112.042 20 152.9 59.96 40.898 39.94 60.88 90.45 60.004 151.544zM701.986 429.321c0-54.794-18.42-100.178-55.252-136.048-36.852-35.956-82.654-53.918-137.426-53.918-52.998 0-98.362 18.4-136.068 55.252-37.708 36.79-56.588 81.714-56.588 134.714 0 52.080 19.062 96.792 57.228 134.050 38.21 37.27 83.328 55.936 135.428 55.936 52.082 0 97.22-18.858 135.408-56.608 38.166-37.728 57.27-82.174 57.27-133.378z"/>
</g>
</svg>