<svg xmlns="http://www.w3.org/2000/svg" width="32" height="32" viewBox="0 0 1024 1024">
<title>wb</title>
<g transform="translate(0,960) scale(1,-1)">
<path fill="#444" d="M511.088 927.537c17.284-76.432 34.338-152.916 51.584-229.358 5.010-0.732 10.010-1.554 15-2.464 45.28 61.502 90.49 123.044 135.76 184.558-10.16-74.238-20.45-148.456-30.58-222.694 6.572-3.608 12.924-7.596 19.308-11.554 61.312 36.042 122.634 72.074 183.966 108.076-34.138-60.44-68.326-120.852-102.514-181.272 6.394-7.976 12.486-16.192 18.266-24.64 62.224 8.818 124.46 17.646 186.694 26.434-47.366-40.040-94.79-80-142.164-120.020 3.768-12.436 6.734-25.1 9.218-37.856 55.1-15.862 110.14-31.954 165.24-47.856-53.718-16.062-107.424-32.144-161.122-48.256-2.344-24.598-7.254-48.958-14.74-72.514-17.654-55.842-49.888-106.894-92.364-147.174 14.61-35.902 29.278-71.784 43.878-107.696-28.948-26.412-63.336-46.362-99.508-61.152-4.92-2.314-10.402-3.506-15.040-6.302h-1.092c-3.798 22.344-8.728 44.498-12.966 66.774-10.612 53.486-21.344 106.942-31.794 160.46 18.066 18.828 36.122 37.674 54.208 56.492 1.774 1.974 4.158 3.668 4.81 6.374 11.542 42.664 23.166 85.32 34.698 127.984-49.618-25.17-99.208-50.41-148.806-75.62-38.446 17.614-76.844 35.36-115.27 53.026-10.602 4.75-21.022 9.93-31.724 14.428-24.698 0.402-49.428 0.050-74.138 0.16-0.020 5.422-0.020 10.822 0 16.234 40.982 0.020 81.964 0 122.946 0.010 0.020 27.254 0.020 54.498 0.010 81.742-66.352 0.030-132.706 0.020-199.048 0.010 0.060-45.772-0.16-91.562 0.1-137.324 4.84-7.314 10.652-14.008 15.852-21.102 30.572-39.97 61.192-79.91 91.754-119.9-15.992-76.282-32.264-152.504-48.318-228.766-40.96 14.99-79.928 36.432-112.494 65.652 12.946 37.424 26.212 74.748 39.328 112.112-45.9 44.85-79.248 102.476-94.618 164.83-4.078 16.402-6.944 33.116-8.598 49.94-51.762 16.242-103.576 32.364-155.36 48.576-2.724 0.872-5.45 1.864-8.316 2.174v0.302c10.932 3.416 22.044 6.202 33.056 9.358 44.91 12.466 89.83 24.91 134.73 37.394 2.174 11.754 4.968 23.388 8.306 34.86-48.798 40.892-97.666 81.724-146.452 122.636 63.446-9.5 126.862-19.188 190.32-28.648 6.082 9.138 12.574 17.996 19.498 26.524-34.358 60.84-68.808 121.632-103.166 182.474 61.694-36.262 123.326-72.626 185.030-108.858 5.49 3.518 11.072 6.884 16.702 10.17-9.368 74.378-18.806 148.758-28.186 223.136 44.69-61.332 89.298-122.716 133.968-184.048 5.22 1.002 10.462 1.904 15.732 2.656 16.182 76.502 32.194 153.026 48.416 229.518zM448.794 590.515c-0.010-47.846-0.010-95.692 0-143.538 16.984-0.020 33.968 0 50.952-0.010 0.020-28.828-0.010-57.664 0.020-86.492 13.076 0.070 26.172-0.18 39.248 0.13-0.13 76.614-0.070 153.236-0.030 229.85-30.060 0.15-60.13 0.040-90.19 0.060zM339.736 556.245c-0.010-36.422-0.010-72.844 0-109.268 31.162-0.010 62.324-0.010 93.486 0 0.010 36.424 0.010 72.846 0 109.268-31.162 0.020-62.324 0.020-93.486 0zM555.968 556.245c-0.010-65.26-0.010-130.51 0-195.77 28.016-0.030 56.032 0.020 84.038-0.020 0.11 65.26 0.020 130.53 0.040 195.8-28.026 0-56.052 0.010-84.078-0.010zM655.406 532.137c-0.020-57.224-0.010-114.448 0-171.662 25.24-0.020 50.482-0.010 75.722-0.010-0.030 57.234 0.11 114.478-0.070 171.712-25.222-0.080-50.432 0-75.652-0.040z"/>
</g>
</svg>