<svg xmlns="http://www.w3.org/2000/svg" width="32" height="32" viewBox="0 0 1024 1024">
<title>wu</title>
<g transform="translate(0,960) scale(1,-1)">
<path fill="#444" d="M310.722 519.645c67.344 116.628 134.766 233.21 202.164 349.802 66.954-116.228 133.926-232.448 200.844-348.704-23.924 19.734-50.664 36.068-79.292 48.026-66.272 27.91-142.2 31.896-211.094 11.4-41.186-12.126-79.708-32.986-112.622-60.524zM499.192 556.651c1.904-13.958 3.712-27.928 5.696-41.87 1.682-0.504 3.366-1.008 5.058-1.514-0.124 14.288-0.214 28.584-0.364 42.87-3.472 0.17-6.926 0.346-10.39 0.514zM515.242 554.189c0.408-12.648 0.832-25.298 1.232-37.936 2.762-0.186 5.526-0.356 8.29-0.532-0.23 2.472-0.47 4.934-0.692 7.404 3.288 0.178 6.59 0.354 9.886 0.54-0.204 3.332-0.47 6.654-0.984 9.948-4.18 1.17-8.308 2.48-12.426 3.818 0.752 2.054 1.514 4.11 2.276 6.164 2.586-0.282 5.182-0.584 7.776-0.876 1.038 3.968 2.012 7.954 2.702 11.992-6.022-0.158-12.046-0.336-18.060-0.522zM442.38 546.589c3.764-7.218 7.422-14.5 10.594-22.010 1.062-2.702 2.258-5.422 2.622-8.336-0.408-4.376-2.18-8.476-3.322-12.692 5.748 1.222 11.506 2.454 17.262 3.702-1.62 3.8-4.702 7.236-4.498 11.576-0.204 11.242-0.558 22.482-0.772 33.712-7.316-1.886-14.588-3.958-21.886-5.952zM470.618 552.427c4.216-13.012 8.45-26.016 12.702-39.010 4.172 0.178 8.344 0.364 12.514 0.532-0.61 7.856-1.018 15.74-2.258 23.526-3.782 1.346-7.688 2.418-11.302 4.172-1.16 2.002-1.072 4.614-1.62 6.864 3.426 0.4 6.854 0.744 10.292 1.098-0.098 0.896-0.284 2.694-0.382 3.588-6.66-0.018-13.304-0.54-19.946-0.77zM565.89 548.539c-0.24-3.172-0.47-6.344-0.71-9.514-3.506-0.718-7.024-1.426-10.54-2.116 2.356-4.562 5.324-9.168 5.58-14.438-0.638-6.024-2.808-11.746-4.544-17.52 3.986 0.114 7.972 0.238 11.968 0.362 0.052 1.532 0.114 3.056 0.186 4.58 3.754 0.238 7.51 0.478 11.274 0.69-0.168 2.658-0.326 5.298-0.46 7.946-2.498 1.47-5.642 2.498-7.060 5.2-0.142 2.798 2.224 4.898 3.738 7.006 2.48 0.158 4.96 0.336 7.45 0.514 0.23 1.77 0.558 3.542 0.54 5.332-0.948 1.736-3.198 1.974-4.81 2.798 0.842 2.118 1.702 4.234 2.534 6.352-5.050 0.93-10.098 1.876-15.146 2.808zM421.884 540.071c1.886-3.5 3.782-6.998 5.668-10.498-1.338-1.328-2.674-2.666-4.012-3.994-2.108 0.726-4.208 1.452-6.316 2.18-0.832 3.162-1.656 6.314-2.488 9.468-2.666-1.046-5.324-2.1-7.982-3.162 3.428-7.21 6.866-14.42 10.31-21.63 4.386 1.116 8.76 2.276 13.216 3.064 1.142-6.368 1.94-13.012-0.39-19.23 5.492 0.726 11.294 0.948 16.246 3.73-0.604 4.942-0.728 10.008-2.136 14.8-2.692 5.75-5.926 11.24-8.67 16.972-1.808 4.252-2.8 8.812-4.854 12.968-2.914-1.472-5.768-3.048-8.592-4.668zM582.312 498.591c6.528-3.1 13.038-6.236 19.574-9.336 0.054 2.418 0.116 4.836 0.186 7.244 0.984 0.754 1.976 1.498 2.976 2.242-2.046 1.63-4.118 3.224-6.182 4.828 0.186 1.868 0.364 3.728 0.55 5.588 0.876 0.496 1.752 0.984 2.648 1.462-0.23 1.594-0.462 3.18-0.674 4.766-2.214 1.664-7.014 3.25-5.802 6.696 2.8 2.922 6.874 4.020 10.568 5.358 1.878 3.082 3.746 6.174 5.606 9.274-3.658 0.124-7.298 0.24-10.948 0.336-0.956 2.046-2.098 4.040-3.87 5.484-4.8-14.668-9.77-29.292-14.632-43.942zM385.364 527.651c-2.188-1.426-0.638-3.984 0.194-5.756 6.396-12.552 13.056-24.978 19.7-37.406 4.632 1.656 9.264 3.33 13.8 5.252-6.696 13.686-12.322 27.876-19.362 41.384-4.838-0.656-10.142-0.666-14.332-3.474zM617.308 529.583c-1.966-3.312 0.54-7.13 0.452-10.656-2.596-2.932-6.29-4.49-9.594-6.43 2.694-1.932 5.324-3.942 7.83-6.12-3.508-5.9-6.27-12.198-9.212-18.39 1.95-1.558 3.924-3.082 5.952-4.534 4.474 8.078 9.292 15.944 13.996 23.88-2.286 1.834-4.986 3.472-6.236 6.236 1.718 2.258 4.846 2.48 7.378 3.286 3.924 0.814 7.202 3.446 9.628 6.536-3.782 2.002-7.856 3.322-11.85 4.774-2.684 0.868-5.492 1.87-8.344 1.418zM365.026 511.027c1.444-5.006 3.038-9.974 4.368-15.014-1.206-1.622-2.384-3.26-3.562-4.908 2.17-2.204 4.368-4.392 6.582-6.562 4.332 3.738 8.716 7.404 13.038 11.15-2.878 7.53-5.296 15.262-8.822 22.516-3.932-2.284-7.786-4.712-11.604-7.182zM639.124 503.241c-2.348-0.16-4.482 1.212-6.768 1.514-3.356-3.118-5.216-7.466-7.254-11.488 2.542-1.24 5.652-1.994 7.316-4.49-2.436-3.642-5.42-6.946-7.432-10.896 2.986-1.744 6.024-3.4 9.080-5.040 8.37 12.384 17.006 24.606 24.996 37.256-4.5 2.39-8.946 4.888-13.552 7.068-2.232-4.588-3.436-9.718-6.386-13.924zM661.064 499.999c2.444-2.666 5.092-5.218 6.962-8.354 0.486-0.822 1.382-2.648-0.248-2.852-3.482-1.088-7.202-0.884-10.798-0.964-3.764-4.828-7.67-9.62-10.398-15.138 2.33-2.020 4.748-3.95 7.014-6.058-1.842-1.126-3.666-2.278-5.428-3.526 1.426-1.692 2.904-3.366 4.402-5.004 3.152 2.222 6.298 4.446 9.442 6.678-1.258 2.622-2.658 5.218-3.27 8.078-0.238 1.204-0.558 3.11 0.976 3.606 3.294 1.656 7.032 2.152 10.39 3.666 3.986 3.986 7.316 8.6 11.054 12.826-5.094 3.694-10.196 7.378-15.288 11.080-1.612-1.346-3.216-2.692-4.81-4.038zM502.15 497.209c0.248-14.438 0.496-28.876 0.762-43.322 6.564 0.46 13.19 0.806 19.646-0.798 1.896 1.17 3.676 2.568 4.872 4.482-5.492 2.844-10.46 6.546-15.386 10.24 1.036 9.522 2.418 19.034 2.728 28.618-4.206 0.256-8.414 0.504-12.622 0.78zM520.902 493.985c-0.054-7.592-0.098-15.182-0.168-22.782 2.904-1.116 6.51-3.774 9.548-1.762 4.898 6.314 4.96 14.668 5.448 22.284-4.944 0.754-9.886 1.506-14.828 2.26zM376.506 482.451c3.082-3.692 5.73-7.706 8.504-11.63 4.818 3.296 9.69 6.52 14.5 9.824-2.632 4.074-5.226 8.158-7.858 12.232-5.084-3.418-10.204-6.802-15.146-10.426zM474.87 490.237c-4.156-1.32-8.31-2.622-12.472-3.906 0.806-3.312 1.63-6.634 2.47-9.946 2.278 0.186 4.802 1.054 6.954-0.134 1.294-0.716 1.426-2.346 1.78-3.632 1.506-8.078 2.852-16.19 4.234-24.286 5.58 0.93 11.16 1.842 16.732 2.798 0.026 3.1 0.302 6.218-0.106 9.292-2.32 3.374-6.688 4.792-8.742 8.414-0.736 1.206-0.142 2.764 1.010 3.456 2.374 1.566 5.34 1.602 8.068 1.992-0.344 4.022-0.672 8.034-1.018 12.046-1.568 0.408-3.136 0.816-4.686 1.214 0.036 1.532 0.062 3.064 0.106 4.588-4.792-0.434-9.716-0.38-14.33-1.896zM545.154 490.653c-2.976-11.682-5.926-23.384-8.982-35.048 3.188-1.594 6.608-2.702 10.106-3.42 0.718 1.94 1.41 3.898 2.126 5.838 2.622 0.858 5.634 1.382 7.592 3.516 1.576 2.162 2.39 4.756 3.4 7.202 1.312 3.614 3.136 7.262 2.746 11.212-0.15 2.144-1.16 4.466-3.294 5.254-4.544 1.86-9.186 3.49-13.694 5.446zM321.996 477.811c4.784-5.254 9.47-10.594 14.35-15.758 3.126 1.462 6.334 3.578 9.912 3.278 2.736-1.71 2.48-5.644 3.028-8.496-2.514-2.56-5.614-4.764-7.44-7.882-0.416-5.43-0.186-10.886-0.362-16.334 6.828 7.998 13.604 16.042 20.408 24.066-9.788 10.010-19.398 20.204-29.478 29.922-3.552-2.844-6.99-5.812-10.418-8.796zM661.79 453.213c1.728-2.33 3.96-4.234 5.97-6.324 10.506 9.362 20.984 18.752 31.48 28.114-4.216 3.71-8.424 7.432-12.818 10.912-8.44-10.718-16.634-21.656-24.632-32.702zM441.68 478.741c1.692-3.552 3.818-7.192 3.738-11.25-0.63-3.64-3.942-5.872-6.538-8.122 2.844-6.13 5.706-12.25 8.548-18.38 6.324 1.666 12.65 3.366 18.982 5.050-2.162 2.95-4.208 5.988-5.854 9.256 3.056 2.666 6.492 4.81 9.91 6.962-3.72 1.886-7.458 3.72-11.16 5.634-1.558 4.464-3.18 8.91-4.774 13.366-4.286-0.834-8.566-1.692-12.852-2.516zM569.76 479.707c-3.728-7.858-7.414-15.74-10.762-23.766-0.904-2.692-2.702-5.43-2.338-8.334 2.64-4.606 7.972-6.618 12.374-9.132 3.232 7.148 4.978 14.924 9.264 21.594-2.072 0.886-5.58 1.134-5.89 3.898 1.436 4.402 4.012 8.342 6.112 12.452-0.362 1.64-0.718 3.26-1.090 4.882-2.576-0.462-5.128-1.010-7.67-1.594zM576.218 439.209c3.418-3.020 6.838-6.032 10.256-9.052 1.886 2.604 3.756 5.226 5.634 7.838 2.542-2.018 5.12-4.012 7.75-5.924 3.056 2.772 6.192 5.464 9.31 8.166-4.712 4.606-10.39 8.786-13.118 14.942 0.806 4.146 3.472 7.6 5.428 11.268-3.658 2.382-7.306 4.756-10.964 7.13-4.766-11.454-9.54-22.906-14.296-34.368zM304.148 459.679c1.302-1.39 2.604-2.79 3.916-4.18 2.844 2.382 5.51 5.314 9.14 6.466 2.41-0.010 2.322-3.402 3.074-5.076-2.516-2.232-4.924-4.606-7.28-7.006 3.844-3.136 7.714-6.244 11.532-9.408 3.888 3.288 7.75 6.608 11.338 10.222-6.696 6.37-13.348 12.782-20 19.194-3.916-3.392-7.822-6.802-11.72-10.212zM673.598 437.535c2.638-2.702 5.296-5.376 7.918-8.096-0.444 3.41-2.028 7.228-0.398 10.524 3.020 0.822 5.722-2.348 8.838-2.046 1.914 0.682 3.508 2 5.12 3.206 6.856 5.402 13.464 11.124 20.062 16.838-3.054 3.694-6.12 7.386-9.184 11.072-10.788-10.496-21.578-20.984-32.356-31.498zM606.386 464.303c-0.576-3.118-1.16-6.236-1.736-9.354 2.188-2.586 4.402-5.146 6.626-7.706 3.534 3.64 7.086 7.264 10.398 11.108-4.366 2.408-8.618 4.996-12.888 7.554-0.806-0.53-1.612-1.062-2.4-1.602zM405.4 461.247c4.534-6.52 9.246-12.994 12.684-20.196 1.86-3.658 0.61-7.794-0.186-11.568 1.894-2.178 3.816-4.34 5.756-6.484 6.636 5.068 13.288 10.108 19.94 15.166-3.544 1.372-7.334 2.4-10.408 4.712-1.108 0.646-0.922 1.992-0.638 3.020 0.824 2.842 2.586 5.27 4.19 7.706-1.702 2.348-3.472 4.624-5.28 6.874-2.896-2.268-5.882-4.43-9.052-6.308-4.588 2.808-8.336 6.696-12.214 10.356-1.604-1.090-3.198-2.18-4.792-3.278zM389.482 451.655c2.012-3.314 5.218-6.6 4.916-10.718l-0.496-0.586c-4.366-0.992-7.51 3.26-10.354 5.892-2.428-2.348-4.854-4.686-7.282-7.042 9.018-10.39 18.070-20.754 27.088-31.152 4.154 3.534 8.282 7.094 12.418 10.646-3.268 3.782-6.554 7.556-9.832 11.338 1.444 3.020 4.588 6.254 2.922 9.77-2.444 5.988-5.022 12.002-8.706 17.342-3.712-1.514-7.21-3.48-10.674-5.49zM291.482 441.839c12.074-8.856 24.156-17.706 36.228-26.554 2.232 2.542 4.456 5.076 6.67 7.626-6.166 5.652-12.304 11.32-18.468 16.954-2.8-0.612-5.67-1.514-8.556-1.028-1.506 0.196-3.012 1.338-3.030 2.958-0.044 2.294 1.31 4.27 2.268 6.262-2.056 1.196-3.95 2.854-6.29 3.428-3.242-2.914-5.89-6.42-8.822-9.646zM604.296 417.579c5.65-5.182 11.266-10.39 16.962-15.528 3.154 3.614 6.334 7.202 9.54 10.772-3.376 3.614-6.848 7.122-10.276 10.672 5.564 7.982 11.162 15.944 16.742 23.916-3.11 1.674-6.246 3.304-9.442 4.81-8.202-11.294-15.714-23.074-23.526-34.642zM711.88 439.067c-1.718 1.268-3.464 2.49-5.244 3.632-6.856-6.518-13.428-13.322-20.24-19.886 0.416-1.514 0.744-3.108 1.71-4.41 3.278 0.718 6.368 3.508 9.858 2.276 0.77-3.064-1.656-5.784-2.888-8.414 2.588-3.304 5.2-6.59 7.83-9.876 1.178 1.196 2.366 2.39 3.57 3.578-1.568 2.206-3.818 4.322-3.932 7.192 0.628 0.886 1.496 1.56 2.356 2.224 8.928 6.678 17.822 13.41 26.722 20.124-3.162 4.472-6.314 8.946-9.476 13.41-3.428-3.286-6.856-6.564-10.266-9.85zM626.988 423.655c3.438-3.516 6.83-7.076 10.276-10.584-4.164-4.81-8.388-9.548-12.552-14.35 2.614-2.728 5.226-5.456 7.848-8.184 9.886 10.984 19.752 21.984 29.656 32.958-1.95 3.012-4.014 5.944-6.414 8.61-2.772-3.198-4.81-7.448-8.998-9.026-1.622 4.846 1.266 9.514 2.992 13.89-3.426 2.32-6.838 4.632-10.266 6.944-4.18-6.75-8.396-13.482-12.542-20.258zM282.376 431.893c0.116-1.638 0.232-3.286 0.338-4.942-1.594-2.064-3.534-4.014-4.368-6.546 0.302-2.586 1.48-5.094 1.090-7.742-0.346-2.658-1.248-5.19-2.028-7.75 1.914-1.002 3.852-1.958 5.82-2.862 0.974 2.994 2.142 6.732 5.518 7.742 3.524-0.124 6.908-1.434 10.070-2.932 1.79-0.956 3.836-2.064 4.572-4.082 0.22-3.428-1.152-6.68-2.172-9.886 2.162-1.488 4.324-2.968 6.494-4.438 2.338 2.834 4.206 6.104 6.908 8.618 1.656 0.338 3.366 0.39 5.050 0.532 2.018 3.906 4.668 7.662 4.994 12.18-10.514 6.872-21.018 13.738-31.478 20.674-3.074 2.452-7.22 1.16-10.808 1.434zM358.852 425.321c2.136-2.25 4.934-4.288 5.722-7.44 0-2.844-0.832-5.616-1.434-8.38 4.518-4.428 9.062-8.822 13.526-13.312 2.382 2.364 4.578 5.26 7.874 6.386 1.39 0.602 3.418-0.806 2.666-2.374-0.974-3.278-3.808-5.5-6.068-7.902 1.578-0.912 3.162-1.824 4.748-2.746 3.632 4.73 7.272 9.46 10.896 14.19-8.336 9.292-16.724 18.54-25.032 27.848-4.322-2.036-8.584-4.198-12.898-6.27zM732.588 429.837c0.16-3.382 0.708-6.748 0.762-10.15-5.686-1.966-11.966-2.028-17.352-4.792-0.558-4.712 0.948-9.362 1.762-13.968-4.064-3.516-8.166-6.988-12.232-10.506 1.4-2.576 2.808-5.146 4.234-7.714 13.11 6.608 26.21 13.224 39.346 19.796-0.416 2.808-0.85 5.626-1.276 8.432-5.474-1.664-10.832-4.030-16.616-4.384 3.082 4.916 8.928 6.99 13.542 10.16-3.844 4.536-6.882 10.124-12.17 13.126zM483.948 423.717c-0.628-2.958-1.266-5.926-1.868-8.892-2.516-0.744-5.554-3.128-8.008-1.126-2.506 1.612-4.588 3.968-7.45 4.97-3.48-0.258-5.084-5.102-3.472-7.858 2.516-3.888 5.82-7.324 9.788-9.752 2.312-1.336 3.596-3.772 4.996-5.96-1.542-2.63-3.358-5.226-3.978-8.274 0.682-2.576 2.826-4.42 4.376-6.51 4.402 0.912 8.77 1.976 13.146 2.986 0.008 8.6-0.258 17.21-0.108 25.81 1.206 4.048 4.624 7.192 5.52 11.408 0.15 2.082-0.586 4.084-1.1 6.060-3.932-1.002-7.892-1.932-11.842-2.862zM503.32 399.891c-1.408-0.488-3.33-0.31-4.376-1.338-0.008-4.27 0.602-8.512 0.788-12.782 4.952 0.32 9.904 0.726 14.864 1.1 0.070 12.842 0.132 25.694 0.194 38.538-3.136-0.062-6.272-0.124-9.398-0.194-0.7-8.434-1.364-16.884-2.072-25.324zM530.538 425.329c-0.106-2.594-0.194-5.19-0.292-7.794-3.152-0.274-6.306-0.558-9.46-0.824 0.080-7.724 0.178-15.438 0.276-23.162 2.116-0.532 4.234-1.072 6.358-1.594-0.416-2.72-0.876-5.44-1.336-8.15 4.826-0.912 9.646-1.85 14.472-2.772 2.516 7.618 5.022 15.234 7.53 22.852-2.694 1.852-5.386 3.712-8.070 5.562 1.47 3.446 2.958 6.874 4.446 10.312-4.64 1.86-9.282 3.72-13.924 5.57zM643.376 397.507c1.39-1.736 2.79-3.48 4.188-5.216 4.474 4.358 8.964 8.716 13.428 13.082-1.69 2.728-3.374 5.456-5.048 8.184-4.216-5.332-8.388-10.69-12.568-16.050zM338.534 396.197c4.136-0.080 8.352-0.044 12.374-1.186 2.612-0.666 3.924-3.234 5.73-4.996 5.050-5.208 10.62-9.886 16.094-14.642 2.454 1.852 4.898 3.72 7.308 5.624-10.15 9.912-20.24 19.894-30.372 29.824-3.72-4.862-7.388-9.778-11.134-14.624zM574.322 398.819c-3.082-3.924 0.238-8.858 1.044-13.048-3.728-5.022-7.696-10-10.176-15.784-0.532-1.408-1.56-4.144 0.78-4.49 3.472-0.93 6.412 1.728 8.946 3.694 3.206 0.424 7.076 0.23 9.432 2.86 1.896 2.738 0.576 6.2-0.186 9.088 4.66 4.756 9.336 9.514 14.216 14.048-5.394 4.136-11.382 7.406-17.174 10.94-2.41-2.322-4.908-4.588-6.882-7.308zM416.462 387.615c3.33-3.97 6.324-8.23 9.832-12.038 2.888-0.832 6.21-0.080 8.866-1.78 0.178-1.72-0.3-3.854-1.77-4.926-2.242-0.876-4.66 0.028-6.556 1.268-5.296 3.392-9.884 7.74-14.624 11.842-1.956-1.4-3.924-2.79-5.854-4.226 11.002-9.184 21.896-18.502 32.852-27.732 3.012 3.012 6.060 5.988 9 9.060-2.028 3.464-4.784 6.91-4.642 11.144 3.88-0.948 6.892-3.64 9.86-6.156 1.302 0.876 2.612 1.754 3.914 2.64-4.004 8.158-9.468 15.526-15.11 22.612-3.35-1.23-6.856-2.204-10.452-1.832-0.24 3.302 1.336 6.244 2.87 9.024-1.304 1.426-2.596 2.844-3.898 4.262-4.756-4.386-9.532-8.77-14.288-13.162zM713.234 376.693c0.798-4.040 1.648-8.070 2.818-12.028 3.196 0.814 6.342 1.85 9.442 3.002 1.266-2.462 2.524-4.934 3.772-7.414 3.394 0.664 6.776 1.444 10.098 2.428-1.726 4.87-3.694 9.822-3.56 15.084 4.844-1.826 7.874-6.262 11.356-9.85 3.356-0.364 6.73-0.522 10.106-0.23-0.558 3.4-1.214 6.794-1.746 10.194 1.604 0.55 3.224 1.090 4.836 1.63-2.798 5.314-5.518 10.664-8.662 15.784-12.808-6.226-25.642-12.4-38.46-18.6zM275.424 390.545c-3.934 0.204-7.822 0.852-11.736 1.302-0.594-2.266-1.178-4.534-1.772-6.81 7.254-3.924 14.544-7.786 21.79-11.736 0-3.766 0.158-7.53 0.638-11.268 3.746-0.194 7.492-0.39 11.24-0.548 0.398 2.036 0.796 4.074 1.204 6.112 3.374 0 6.758 0 10.134 0.008 0.584 2.86 3.232 6.396 0.682 8.964-0.86 0.948-1.702 2.17-3.038 2.418-3.518 0.69-7.096 0.982-10.63 1.55-0.054 2.64-0.098 5.27-0.142 7.9-3.126 1.692-6.254 3.376-9.398 5.032-2.888-1.204-5.722-3.092-8.972-2.924zM599.636 387.135c-0.708-2.932-1.354-5.88-2.018-8.83-0.408-1.48-0.604-3.242-2.056-4.118-7.184-5.43-14.384-10.842-21.56-16.298 4.156-4.926 8.38-9.798 12.498-14.758 3.164 1.462 6.272 3.136 8.832 5.554-2.090 2.614-4.198 5.208-6.29 7.812 7.060 7.344 14.112 14.686 21.18 22.012-3.518 2.888-7.034 5.774-10.586 8.626zM333.99 384.753c5.004-3.746 10.248-7.148 15.234-10.922 5.192-4.774 9.364-10.53 13.88-15.934 3.286 2.976 6.644 5.872 9.842 8.946-7.086 6.35-13.89 13.012-21.020 19.31-5.82-1.764-11.958-1.020-17.936-1.4zM652.1 361.227c1.152-2.842 2.32-5.696 3.472-8.548 5.66 1.524 11.356 2.96 16.936 4.776 4.968 1.612 7.944 6.226 11.896 9.326 3.4 1.922 7.21 2.986 10.778 4.57-3.206 3.252-6.394 6.51-9.592 9.752-11.17-6.624-22.33-13.242-33.49-19.876zM262.244 370.697c-0.292-1.294-0.584-2.588-0.878-3.89-2.196-1-4.924-1.664-6.172-3.94-0.604-3.394-0.542-6.866-1.1-10.276 10.754-4.41 21.568-8.654 32.286-13.162 2.002 0.922 3.588 2.436 5.218 3.862 2.116 1.036 4.614 0.762 6.9 1.062 0.062 2.366 0.408 4.792-0.16 7.114-1.904 2.798-5.58 3.764-8.814 3.392-4.658-0.408-9.504 0.922-13.232 3.728-2.428 2.774 2.002 6.476-0.16 9.416-2.134 3.004-5.696 4.482-8.76 6.334-1.736-1.188-3.436-2.4-5.128-3.64zM599.646 354.833c1.292-2.038 2.586-4.076 3.888-6.122-4.536-3.932-9.142-7.786-13.64-11.762 1.39-1.55 2.78-3.118 4.18-4.676 5.218 3.852 10.444 7.688 15.66 11.54 0.088 2.446-0.194 5.652 2.382 6.954 2.658 1.248 4.802-1.568 6.636-3.048 2.922 2.092 5.836 4.182 8.742 6.28-3.986 5.386-7.982 10.772-11.976 16.156-5.296-5.102-10.584-10.212-15.872-15.322zM392.786 358.473c3.436-2.958 6.91-5.89 10.328-8.894 1.56 1.658 2.932 3.844 5.28 4.43 1.832 0.344 3.348-1.046 4.774-1.984 6.27-4.792 12.222-9.992 18.176-15.182 1.886 2.126 3.71 4.296 5.438 6.554-11.86 8.37-23.224 17.406-34.792 26.166-3.084-3.686-6.148-7.388-9.204-11.090zM681.32 352.263c-7.272-2.506-14.978-3.454-22.524-4.782 1.010-6.2 2.276-12.348 3.42-18.522 3.976 1.268 8.184 1.878 12.018 3.526 3.96 4.012 6.804 9.584 12.312 11.728 5.288 2 10.542 4.082 15.794 6.2-2.614 4.65-5.226 9.29-7.848 13.932-4.27-4.128-7.98-9.078-13.172-12.082zM751.774 355.381c-3.038-0.806-6.050-1.718-9.096-2.506-2.852-0.956-4.9 1.966-7.556 2.268-1.71-0.382-2.958-1.72-4.5-2.446-2.516-0.344-5.048-0.052-7.564-0.018-0.222-1.938-0.434-3.888-0.63-5.846 2.694-0.31 5.386-0.61 8.096-0.956 1.808-2.488 3.286-5.554 6.21-6.944 2.702-1.054 5.606-0.018 8.192 0.894 8.142 3.19 16.654-1.15 25.006-0.372-1.514 3.642-5.066 5.9-6.652 9.478-0.718 1.444-0.24 3.446 1.214 4.226 1.292 0.45 2.7 0.388 4.064 0.522-0.814 3.020-1.274 6.226-2.904 8.938-1.082 1.62-3.34 1.256-4.97 1.054-4.8-0.186-4.872-6.68-8.91-8.292zM317.63 345.673c1.010-2.126 2.090-4.224 3.392-6.2 3.33 0.576 6.662 1.142 10 1.684 1.25 2.232 2.33 4.552 3.056 6.996-5.536-0.416-10.992-1.522-16.448-2.48zM386.364 341.235c7.92-4.092 15.908-8.032 23.854-12.072-1.488-3.384-3.34-6.732-3.774-10.46 0.726-1.506 2.534-1.764 4.004-2.1 3.526-0.558 7.104-0.708 10.656-1.108 1.010 4.262-2.002 7.954-2.356 12.056 0.522 2.596 2.63 4.412 4.216 6.378-1.666 3.8-4.42 7.104-7.742 9.548-3.108 1.4-4.774-2.666-6.244-4.668-6.182 3.118-12.4 6.164-18.556 9.318-1.4-2.276-2.712-4.588-4.058-6.892zM595.182 325.009c1.478-3.614 2.966-7.228 4.454-10.842 5.474 3.81 10.958 7.618 16.76 10.912 1.69 0.914 3.41 1.906 5.348 2.188 2.994-0.638 4.97-3.18 6.998-5.27 3.216 1.188 6.414 2.384 9.628 3.578-3.436 7.52-6.864 15.050-10.318 22.56-10.966-7.706-21.914-15.412-32.87-23.126zM256.106 342.449c0.248-3.136 0.442-6.28 0.486-9.432-3.348 0.016-6.696 0.070-10.036 0.132-0.158-2.276-0.292-4.552-0.416-6.838 7.53-0.886 15.058-1.816 22.588-2.702-0.86 2.312-1.718 4.624-2.578 6.928 3.074 0.15 6.148 0.282 9.22 0.434-0.070-1.152-0.142-2.312-0.212-3.482 3.092-0.178 6.182-0.372 9.274-0.594 0.398 1.94 0.886 3.872 0.984 5.838-8.84 3.95-17.742 7.786-26.734 11.356-0.646-0.418-1.938-1.232-2.576-1.64zM329.42 332.529c-5.032-0.204-10.062 0.39-15.086 0.708-2.31-5.952-4.774-11.85-6.58-17.98 3.064-1.762 6.12-3.526 9.176-5.298 1.32 3.552 2.18 7.592 5.28 10.090 1.594-3.216 2.134-6.786 2.78-10.284 2.152-0.054 4.314-0.116 6.476-0.178 0 1.924 0 3.836 0.008 5.75 2.834-0.4 5.678-0.806 8.522-1.206-0.17-2.514-0.338-5.040-0.462-7.564 3.89-0.92 7.768-1.93 11.648-2.914 0.284 2.046 0.576 4.084 0.868 6.112-2.94 1.046-5.882 2.082-8.84 3.048 0.080 3.932 0.276 7.856 0.478 11.78 4.404 0.23 8.814 0.47 13.226 0.69-0.098 3.278-0.214 6.556-0.346 9.832-4.11 2.108-8.088 5.058-12.79 5.5-5.368-1.54-8.716-7.164-14.358-8.086zM680.488 328.153c-2.888-2.754-6.412-4.73-9.478-7.28 11.984 2.638 23.908 5.518 35.864 8.264-0.53 2.214-1.070 4.42-1.62 6.624-2.436-0.698-4.872-1.38-7.316-2.054-1.692 2.862-3.968 6.936-7.936 6.076-5.236-1.602-7.264-7.2-9.514-11.63zM383.708 334.601c-1.24-2.594-2.986-5.022-3.704-7.83 0.426-2.516 1.374-4.934 2.48-7.236 0.762-1.808 2.764-2.524 3.934-3.994 0.77-2.056 1-4.262 1.452-6.404 9.7-2.446 19.442-4.748 29.178-7.096-0.124 1.684-0.24 3.358-0.356 5.032-5.898 2.622-12.196 4.092-18.352 5.978-0.656 5.404-1.356 10.806-2.002 16.218-4.19 1.826-8.414 3.562-12.63 5.332zM1.016-16.113h408.732c-49.514 17.326-94.652 47.034-129.852 85.962-39.584 43.474-66.572 98.32-76.52 156.292-6.19 35.608-6.112 72.26 0.028 107.868-67.478-116.698-134.902-233.424-202.388-350.122zM818.090 205.529c-12.782-52.604-39.708-101.632-77.008-140.834-30.16-31.808-67.016-57.246-107.512-74.024-5.376-2.452-11.178-3.906-16.352-6.784h405.766v0.434c-8.654 14.092-16.574 28.636-24.944 42.898-58.398 101.392-116.814 202.784-175.21 304.186 6.776-41.72 5.332-84.804-4.74-125.876zM668.326 311.679c-0.016-2.932-0.016-5.874-0.026-8.814 2.976 0.93 5.98 2.294 9.176 2.108 3.314-0.522 6.264-2.224 9.248-3.666 2.072 3.976 5.218 8.698 10.31 8.44 6.192 0.328 10.506-5.128 16.476-5.678-1.844 5.032-3.446 10.17-5.652 15.050-0.426 1.806-2.578 0.532-3.72 0.54-11.958-2.578-23.88-5.296-35.812-7.98zM764.59 316.195c0-0.762-0.008-2.294-0.018-3.056-4.224-0.194-8.458-0.38-12.684-0.592-0.282-2.312-0.274-4.696-0.912-6.954-1.382-2.312-4.854-3.976-7.254-2.206-2.222 1.71-3.418 4.332-4.8 6.68-1.71-0.39-3.41-0.772-5.102-1.17 0.036-3.888 0.080-7.776 0.142-11.666 6.608-0.034 13.214-0.23 19.832-0.256 2.436-0.258 3.64 2.746 6.050 2.684 4.924 0.336 9.866 0.478 14.8 0.796-0.532 5.014-1.054 10.028-1.62 15.032-2.818 0.23-5.626 0.478-8.434 0.708zM374.956 307.329c0.054-3.18 0.116-6.36 0.23-9.548 1.824-0.922 4.384-1.188 5.28-3.312 0.992-2.002 2.222-4.208 1.878-6.52-1.968-3.038-5.422-4.58-8.362-6.492 4.8-2.968 9.592-5.962 14.402-8.912 1.018 2.852 2.028 5.696 3.056 8.54 9.052-0.090 18.104-0.16 27.158-0.196 0.15 4.898-0.266 9.78-0.7 14.642-14.314 3.932-28.628 7.866-42.942 11.798zM307.4 300.695c-0.478-3.366-0.948-6.74-1.408-10.116 5.118 0.514 10.238 1.036 15.35 1.568 0 3.082 0 6.166-0.010 9.238-4.64-0.238-9.292-0.46-13.932-0.69zM328.286 290.579c4.562-0.53 9.122-1.062 13.694-1.576-0.258 2.472-0.55 4.916-0.93 7.36-2.162 2.002-4.412 3.986-7.21 5.032-2.622-3.162-4.172-6.988-5.554-10.816zM618.786 296.939c-0.38-1.682-0.77-3.366-1.142-5.058 4.066-0.38 8.132-0.77 12.206-1.16 0.3-1.984 0.602-3.968 0.92-5.96-8.13-1.808-16.27-3.544-24.402-5.316 0.372-1.602 0.754-3.214 1.134-4.836 12.046 0.302 24.092 0.62 36.138 0.922 0.452 2.826 1.178 5.634 1.24 8.494-0.664 4.89-1.948 9.672-2.824 14.526-7.76-0.522-15.51-1.072-23.27-1.612zM701.118 296.505c0.106-2.206 0.22-4.41 0.344-6.634-2.16 0.062-4.304 0.116-6.448 0.16-0.62 1.32-1.222 2.638-1.816 3.95-3.958-0.062-7.918-0.256-11.878-0.442-1.16-1.728-2.204-3.57-3.666-5.076-1.364-1.134-3.188-1.48-4.66-2.446-2.054-1.54-2.808-5.252-0.406-6.854 3.242-2.33 7.448-1.906 11.23-2.206 8.912-0.284 17.822-1.276 26.732-0.816-0.282 3.49-3.082 6.326-2.932 9.824 1.382 3.712 5.696 4.836 8.956 6.342 0.098 2.276 0.124 4.544 0.142 6.812-5.2-0.852-10.4-1.746-15.598-2.614zM272.794 294.185c-9.204 0.248-18.416 0.548-27.618 0.796 0.034-4.534 0.078-9.070 0.124-13.604 6.988-0.646 13.976-1.276 20.974-1.914 0.044-1.168 0.098-2.356 0.16-3.542 6.704-0.080 13.41-0.178 20.124-0.276-0.302 1.906-0.594 3.792-0.894 5.688-1.94 1.372-4.12 2.56-5.484 4.57 0.116 2.498 2.852 3.728 4.474 5.278 0.096 1.862 0.194 3.712 0.282 5.554-3.852 0.010-7.696 0-11.55 0.010-0.15-0.638-0.442-1.922-0.592-2.56zM760.162 293.317c0.062-0.452 0.186-1.346 0.248-1.79-8.964-0.3-17.928-0.656-26.882-1-0.152-4.004-0.284-8.016-0.488-12.020 2.49-1.648 5.146-3.596 8.3-3.428 1.788 0.124 2.904 1.674 4.066 2.834 7.83 0.878 15.686 1.4 23.534 2.118 0.3 2.036 0.584 4.082 0.894 6.12 1.648 0.54 3.304 1.090 4.97 1.63 0.328 2.178 0.654 4.366 1.010 6.536-5.226-0.318-10.434-0.682-15.652-1zM312.492 282.033c-2.55-0.036-4.986-0.886-7.138-2.216 1.762-3.444 4.5-6.208 6.962-9.15-1.674-3.090-4.058-5.766-5.484-8.98-0.292-1.356-0.088-3.402 1.188-4.164 4.756-0.284 9.54 0.044 14.314 0.106-0.276 2.214-1.214 5.394 1.24 6.724 3.134 1.168 5.438-1.684 6.66-4.164 2.268-0.044 4.536-0.088 6.812-0.132 0.176 3.95 0.346 7.9 0.522 11.842 4.182 0.646 8.37 1.284 12.56 1.922-0.93 2.382-1.86 4.756-2.764 7.14-2.302 1.080-4.588 2.684-7.262 2.364-9.204-0.442-18.406-0.85-27.61-1.292zM245.024 273.333c-0.114-4.188-0.186-8.396-0.15-12.594 5.528-1.454 10.912-3.392 16.324-5.208 0.338-4.048 0.586-8.096 0.86-12.154 2.532 0.080 5.066 0.17 7.6 0.232-0.186 3.736-0.426 7.466-0.656 11.194 6.404-0.354 12.8-0.726 19.204-1.080-0.036 4.040-0.090 8.078-0.134 12.118-8.76 0.964-17.52 1.896-26.28 2.87 0.222 1.496 0.442 2.984 0.664 4.472-5.81 0.080-11.62 0.088-17.432 0.15zM374.468 263.237c2.392-2.286 5.156-4.758 5.546-8.256 0.318-4.004-1.462-7.742-2.914-11.364 4.428 0.24 8.874 0.416 13.312 0.628 1.684 4.722 3.402 9.434 5.022 14.172 7.13 1.028 14.296 1.79 21.436 2.73 0.204 4.064 0.408 8.13 0.62 12.196-5.686-0.39-11.48 0.248-17.078-0.868-8.67-2.994-17.272-6.218-25.944-9.238zM747.38 272.449c-0.062-1.64-0.114-3.296-0.15-4.962-3.994 0.24-7.98 0.488-11.966 0.718-0.292-1.886-0.576-3.782-0.86-5.678 3.25-0.096 6.502-0.194 9.762-0.3 0.434-2.472 0.868-4.952 1.31-7.432-2.24-0.336-4.472-0.674-6.696-1.018 0.036-2.198 0.088-4.394 0.142-6.608 5.244-1.532 10.682-2.808 16.182-2.046-0.15 4.1-0.292 8.202-0.442 12.294 3.232 0.054 6.484 0.452 9.716 0.098 4.012-1.036 7.778-2.898 11.798-3.96 0.354 6.28 0.39 12.604-0.018 18.876-2.284 0.858-5.004 0.602-7.448 0.54-2.152-1.816-2.844-4.73-3.986-7.192-1.418-0.214-2.826-0.416-4.216-0.638 0.186 2.488 0.38 4.968 0.576 7.458-4.572-0.044-9.142-0.106-13.704-0.15zM681.932 269.109c0.788-2.010 1.586-4.022 2.366-6.040 8.626-0.346 17.28-0.090 25.908-0.514 2.24-0.754 3.834-2.764 5.74-4.138 0.264 3.208 0.282 6.432 0.212 9.638-11.408 0.364-22.818 0.7-34.226 1.054zM603.188 266.221c1.834-5.934 7.644-11.214 14.154-10.31 5.536 0.328 11.082 0.506 16.608 0.868-0.266 3.676-0.778 7.316-1.346 10.948-9.804-0.496-19.61-0.938-29.416-1.506zM339.862 255.043c-3.268-2.746-5.492-6.864-9.54-8.61-6.314 0.462-12.188 4.022-18.654 3.26-1.39-0.044-3.056-1.018-2.48-2.64 1.196-3.862 5.502-5.5 7.344-8.946 0.372-3.614-3.95-6.066-3.508-9.752 2.4-2.922 6.776-2.594 10.168-2.268 4.748 2.020 9.106 4.872 13.72 7.194-0.442 1.788-0.85 3.578-1.212 5.366 5.464 1.010 10.814 2.596 16.35 3.286-0.212 5.254-0.398 10.524-1.186 15.732-3.668-0.85-7.458-1.328-11.002-2.622zM400.27 254.033c-0.77-3.914-1.178-8.68-4.88-11.046-4.906-3.364-10.266-5.996-15.544-8.714 0.592-2.038 1.204-4.066 1.816-6.104 6.89 2.764 13.764 5.58 20.664 8.326-0.018 2.214 0.938 4.34 2.86 5.528 4.89 3.198 10.79 4.224 16.352 5.704-0.736 2.090-1.462 4.172-2.17 6.27-6.368 0.098-12.728 0.036-19.098 0.036zM685.52 253.749c-0.78-1.24-1.028-3.232-2.676-3.622-4.774 0.212-9.37 1.754-14.022 2.754-0.22-2.488-0.45-4.994-0.664-7.492 6.742-2.942 13.96-5.28 19.7-10.036-0.124-2.906 0.54-5.996-0.54-8.778-2.136-1.214-4.882-0.62-7.246-0.894-0.956 2.948-1.222 6.102-2.338 8.99-1.684 2.090-4.402 5.42-7.37 3.588-3.738-3.074-4.704-8.22-7.786-11.862 8.176-3.614 16.476-6.944 24.668-10.514 5.182-2.018 10.16-5.34 15.98-4.694-0.558 2.772-3.65 3.33-5.704 4.624-0.382 6.244-0.506 12.498-0.762 18.752 1.276 0.886 2.56 1.762 3.852 2.64-0.3 2.648-0.716 5.296-0.77 7.954 0.966 0.716 2.224 0.92 3.33 1.38-0.628 2.694-1.258 5.386-1.868 8.078-5.27-0.274-10.532-0.54-15.784-0.868zM600.478 252.307c-0.86-4.156-1.718-8.31-2.56-12.464 9.23-4.658 18.478-9.29 27.706-13.968 0-3.224 0-6.466 0-9.708 2.862-0.176 5.732-0.362 8.61-0.548 2.498 8.414 5.022 16.82 7.484 25.244-3.906-1.116-7.892-2.764-12.018-2.278-3.198 1.054-3.172 5.102-3.438 7.866 1.524 1.63 3.012 3.278 4.492 4.942-2.384 0.248-4.766 0.488-7.14 0.7-1.116-2.666-2.392-5.89-5.5-6.722-4.172-1.018-8.292 0.842-11.95 2.666-0.84 1.992-1.708 3.968-2.576 5.944-1.046-0.55-2.082-1.108-3.11-1.674zM708.796 252.439c-2.852-7.928-4.268-16.272-6.12-24.474 1.152-0.584 2.304-1.168 3.472-1.78 2.508 8.122 4.934 16.262 7.396 24.394-1.584 0.646-3.162 1.276-4.748 1.86zM245.972 247.275c1.072-9.468 2.1-18.946 3.144-28.424 3.224-0.956 6.44-1.914 9.664-2.87-0.132 2.462-0.266 4.916-0.398 7.36 11.984 0.93 23.978 1.8 35.962 2.73-1.16 5.146-2.4 10.274-3.464 15.428-2.56 0.594-5.138 1.1-7.706 1.596-0.142-2.030-0.284-4.066-0.416-6.104-8.308-0.106-16.626-0.106-24.934-0.158-0.204 3.808-0.444 7.616-0.664 11.426-3.738-0.302-7.468-0.612-11.188-0.984zM756.308 239.933c-4.8-0.4-9.308 1.85-14.030 2.364-4.392 0.488-9.202 1.834-13.338-0.39 1.496-4.092 5.624-6.236 7.59-9.99-0.47-1.968-2.64-3.8-1.992-5.864 2.434-2.49 6.244-1.772 9.37-1.568 7.574 0.93 15.262-0.664 22.242-3.614 2.754 0.142 5.182 1.664 7.68 2.718-1.444 1.906-3.092 3.668-4.252 5.758-1.134 2.64-1.178 5.58-1.55 8.38 1.974 0.204 3.95 0.408 5.934 0.602 0.354 2.454 0.664 4.924 0.93 7.388-4.314 0.38-8.636 0.716-12.95 1.044-1.524-2.48-2.79-5.58-5.634-6.828zM387.772 217.957c2.862-5.678 5.688-11.382 8.558-17.068 3.082 2.028 6.182 4.046 9.274 6.058-1.95 2.462-4.73 4.792-4.89 8.148 1.788 1.966 4.048 3.42 6.174 4.988 6.864 4.968 13.862 9.76 20.806 14.632-1.302 2.604-2.764 5.138-4.456 7.502-12.24-7.448-23.694-16.112-35.466-24.26zM344.486 228.461c-2.382-2.064-4.89-4.020-7.52-5.774-3.57-1.152-7.502-0.416-11.116-1.418-3.198-1.532-5.996-3.738-9.034-5.544 2.356-5.98 4.774-11.95 7.12-17.938 1.904-0.070 3.818-0.14 5.732-0.22-0.736 3.57-3.162 7.83-0.974 11.23 3.798-0.096 5.642-4.082 7.74-6.668 2.446 0.23 4.898 0.46 7.352 0.672-0.39 3.934-2.746 9.762 1.79 12.046 4.144 2.676 8.282 5.342 12.408 8.044-2.542 4.224-4.95 8.556-8.246 12.25-2.002-2.030-3.4-4.536-5.252-6.68zM597.324 223.493c-2.966-0.124-6.11 0.274-8.892-0.958-2.214-1.966-3.18-4.95-4.66-7.458 5.386-5.26 10.772-10.522 16.156-15.792 2.87 1.648 5.75 3.304 8.62 4.952 4.048-3.234 8.068-6.494 12.126-9.718 2.436 5.076 4.88 10.152 7.324 15.226-3.596 1.046-7.192 2.082-10.788 3.1 0.576 2.65 1.186 5.298 1.78 7.938-5.898 3.304-11.718 6.748-17.732 9.832-1.312-2.366-2.578-4.776-3.934-7.122zM415.16 218.781c1.604-3.030 3.030-6.156 4.376-9.31-6.44-6.334-12.914-12.63-19.344-18.972 3.056-2.906 6.094-5.83 9.15-8.734 6.314 7.086 12.56 14.234 18.91 21.284 3.676 0 7.662-0.398 11 1.48 1.258 0.592 2.268 2.408 0.94 3.462-2.808 2.862-6.988 3.58-10.23 5.776-1.436 1.506-0.736 3.836-0.842 5.704 0.026 1.878 0.558 5.208-2.214 5.208-4.474-0.194-9.16-2.098-11.746-5.898zM664.332 212.013c-2.126-1.186-4.456-1.914-6.67-2.888-0.966-1.248-0.876-2.966-1.214-4.454 3.446-3.038 6.378-6.644 10.002-9.47 4.844-2.178 9.99-3.648 15.084-5.146 4.41-1.4 8.76 1.108 12.55 3.118 2.986 1.514 5.422 5.156 3.872 8.504-1.594 2.39-4.092 3.994-5.998 6.102-2.994-1.602-5.818-3.604-9.070-4.668-3.862 1.914-7.228 5.12-8.91 9.124-1.558 2.94-4.526 5.696-7.998 5.758-2.162-1.17-1.418-3.986-1.648-5.98zM736.956 213.031c-2.64 0.17-4.022 2.542-5.334 4.482-2.7-0.132-5.394-0.292-8.078-0.46 0.364-2.542 0.080-5.358 1.392-7.67 1.878-1.612 4.472-1.922 6.616-3.092 1.524-2.002 2.542-4.332 3.792-6.51 3.968 0.77 7.998 1.914 12.080 1.364 5.66-0.798 11.188-2.516 16.918-2.914 1.25-0.036 3.792-0.31 3.128 1.772-1.426 3.826-4.996 6.448-6.014 10.486-1.134 2.746-2.498 6.724-5.936 6.98-6.058-1.824-11.958-5.748-18.564-4.438zM282.466 214.103c-5.138-0.964-10.356-0.062-15.51 0.186-1.294-2.506-2.356-5.562-5.066-6.882-3.022-1.276-6.404-0.806-9.594-0.806 0.842-2.302 1.622-4.624 2.472-6.926 0.86-3.694 5.27-4.12 8.008-5.944 0.566-2.25 1.142-4.5 1.726-6.75 3.792 1.498 7.574 3.022 11.312 4.634-1.444 3.4-2.728 6.854-3.95 10.336 4.888-0.318 9.76-0.744 14.64-1.17-0.406-1.284-0.814-2.568-1.204-3.87 5.288 1.558 10.566 3.18 15.846 4.774-0.628 5.174-1.276 10.346-1.904 15.518-5.59-1.054-11.17-2.178-16.776-3.1zM351.554 212.067c0.576-3.438 0.992-6.892 1.196-10.372-8.264-5.040-17.104-9.036-25.846-13.154 2.25-5.218 4.978-10.222 7.724-15.208 4.5 1.824 8.998 3.666 13.418 5.686-1.682 2.302-3.304 4.642-4.888 7.006 2.524 1.054 4.934 2.418 7.564 3.206 2.082 0.196 4.146-0.328 6.2-0.646 0.69-2.232 1.39-4.456 2.1-6.688 4.26 4.226 8.494 8.478 12.736 12.712-1.452 2.896-2.542 6.022-4.534 8.59-2.242 2.516-4.89 4.616-7.476 6.75-2.214 2.010-5.456 1.576-8.194 2.118zM575.296 208.071c-4.782-5.89-9.646-11.718-14.446-17.6 2.568-2.932 5.128-5.864 7.706-8.804 1.532 0.992 3.064 1.966 4.596 2.94 3.472-2.612 6.572-5.8 7.946-10.034-2.348-2.392-4.694-4.802-7.034-7.21 3.056-3.252 6.112-6.502 9.186-9.726 3.774 2.842 7.618 5.598 11.346 8.494-7.316 8.326-14.552 16.714-21.816 25.076 1.578 1.594 3.162 3.18 4.756 4.766 8.052-8.106 15.998-16.316 24.084-24.376 4.014 5.040 8.070 10.044 12.092 15.066-2.658 2.702-5.014 6.192-8.778 7.36-3.128-1.010-4.836-4.234-7.848-5.438-4.632 3.17-4.58 10.444-9.514 13.526-1.956 1.106-4.278 0.92-6.43 0.992-1.976 1.638-3.898 3.322-5.846 4.968zM434.090 193.625c-7.184-5.642-14.128-11.586-20.87-17.742 2.774-2.596 5.378-5.368 7.954-8.158 6.174 6.21 12.374 12.374 18.548 18.584 1.808 1.86 4.11 3.082 6.334 4.358 1.258-1.878 2.692-3.658 4.454-5.094 1.568 2.648 2.932 5.394 4.226 8.176-2.614 3.294-5.252 6.564-7.822 9.876-3.242-4.562-8.636-6.52-12.824-10zM715.714 199.401c2.552-5.024 7.37-8.212 11.71-11.552 4.35-3.338 9.504-5.614 13.348-9.618 2.622-2.462 5.032-5.448 8.53-6.688 2.898-0.886 6.866-0.612 8.53 2.32 2.322 4.11 4.288 9.088 2.224 13.722-0.984 2.010-0.798 5.712-3.748 5.738-5.872 0.62-11.664-1.452-17.52-0.894-6.546 1.71-12.028 6.236-18.716 7.52-1.488 0.364-2.948-0.16-4.358-0.548zM652.79 197.407c-4.172-4.57-8.468-9.034-12.532-13.702 5.88-5.448 11.594-11.082 17.696-16.308-1.842-2.524-4.020-4.774-6.342-6.856 5.474-4.48 10.718-9.326 16.75-13.056 1.594-1.398 3.322 0.364 4.34 1.568 3.286 4.172 5.66 8.974 8.070 13.676-4.926 4.482-10.834 7.61-16.546 10.93-2.286 1.17-2.028 4.218-2.888 6.28 4.252-1.646 8.486-3.356 12.738-5.030 1.16 2.382 2.328 4.766 3.49 7.148-8.264 5.11-16.512 10.24-24.776 15.35zM261.49 179.737c0.648-2.604 1.338-5.208 2.144-7.778 5.412 1.046 10.806 2.152 16.2 3.286 2.702-1.93 5.536-3.72 8.716-4.756 2.552 2.692 4.5 5.872 6.848 8.724 4.1 2.198 8.688 3.358 12.976 5.174-1.896 3.888-3.792 7.794-6.174 11.408-13.552-5.404-27.13-10.736-40.71-16.058zM339.482 166.193c2.32-4.916 4.5-9.93 7.546-14.446 5.048 2.018 9.638 4.968 14.27 7.786-0.93 1.876-1.86 3.746-2.782 5.614 7.45 4.474 14.89 8.948 22.33 13.438-2.098 2.692-4.26 5.332-6.492 7.91-11.932-6.218-23.242-13.552-34.872-20.302zM537.97 179.923c2.038-9.336 4.022-18.69 6.112-28.018-2.294-2.284-4.614-4.544-6.944-6.792 1.090-2.312 2.188-4.634 3.348-6.928 5.916 2.046 11.878 3.942 17.822 5.926-3.792 12.79-7.202 25.722-11.692 38.3-2.88-0.832-5.768-1.656-8.646-2.488zM475.764 171.427c-2.028-1.204-4.482-1.708-6.182-3.444-3.72-3.614-6.272-8.23-8.45-12.888-0.852-2.074-1.958-4.19-1.888-6.494 0.94-2.886 3.57-4.65 5.74-6.572 1.542 4.368 3.56 8.77 7.352 11.63 2.684 2.65 6.75 4.066 8.272 7.716 2.604 5.73 5.272 11.426 7.892 17.138-2.294 0.4-4.588 0.806-6.872 1.196-1.826-2.834-3.384-5.934-5.864-8.282zM526.164 176.867c0.424-4.288 0.76-8.602 0.814-12.924-4.534 0.558-9.078 0.886-13.632 1.126 0.124-3.056 0.266-6.112 0.408-9.168 4.27-0.462 8.538-0.94 12.808-1.418-0.478-2.568-0.948-5.146-1.418-7.724-4.888-0.088-9.778-0.15-14.658-0.204 0.336-3.046 0.672-6.102 1.010-9.158 7.598-0.426 15.198-0.824 22.808-1.232-0.54 13.704-1.090 27.406-1.64 41.108-2.17-0.132-4.34-0.264-6.5-0.406zM498.766 173.881c-3.436-7.91-6.288-16.138-10.726-23.578-3.932-1.222-8.166-1.976-11.682-4.216-1.596-1.842-3.296-4.456-2.48-6.972 2.222-2.516 5.89-2.718 8.946-3.586 0.726 2.25 1.036 6.412 4.286 6.066 4.368-1.47 7.484-5.128 10.834-8.112 2.036 0.76 4.42 1.070 6.066 2.586 0.86 13.25 1.524 26.528 2.41 39.778-2.552-0.664-5.094-1.328-7.654-1.966zM301.208 169.293c1.248-3.552 2.64-7.112 3.064-10.876-1.186-3.18-5.908-3.862-8.158-1.472-1.504 1.586-1.832 3.854-2.444 5.856-1.692 0.434-3.384 0.842-5.076 1.23-1.38-1.354-2.55-3.082-4.392-3.852-2.49-0.088-2.942 2.932-3.916 4.588-3.596-1.222-7.21-2.418-10.752-3.792 2.452-2.434 5.288-4.464 7.678-6.962 1.506-2.072 2.34-4.542 3.438-6.854-1.798-0.94-3.588-1.888-5.376-2.844 2.338-3.844 4.694-7.688 7.040-11.532 3.562 1.46 7.122 2.922 10.692 4.348 2.922-1.106 5.854-2.196 8.786-3.294 2.082 1.798 4.182 3.578 6.28 5.35 0.106 3.258 0.196 6.51 0.4 9.742 5.084 2.118 10.062 4.482 14.748 7.388-1.754 2.196-3.508 4.394-5.262 6.59-1.63 0.026-3.252 0.054-4.872 0.080-1.896 3.428-3.862 6.812-5.81 10.204-2.206-0.992-4.332-2.198-6.068-3.898zM380.918 169.231c-2.56-0.354-5.386-0.142-7.636-1.63-3.738-3.516-4.854-8.99-8.77-12.356-4.18-3.712-8.308-7.466-12.452-11.214 4.428-4.376 8.936-8.672 13.348-13.064 1.948 2.010 3.906 4.020 5.916 5.978-1.054 1.764-2.408 3.428-2.87 5.456-0.328 1.196 0.55 2.464 1.746 2.65 2.426-0.4 3.862-2.64 5.5-4.252 2.524 2.4 5.12 4.73 7.83 6.918-1 2.47-3.65 5.89-1.054 8.192 3.278 1.506 6.572-1.24 9.584-2.346 1.364 2.798 2.604 5.66 3.8 8.52-2.994 3.144-6.050 6.228-9.088 9.318-1.896-0.842-3.746-1.992-5.854-2.17zM624.712 162.695c3.562-2.622 7.096-5.27 10.354-8.264-3.046-2.232-6.102-4.438-9.104-6.724 3.17-2.436 6.084-5.27 9.504-7.378 2.452-0.708 5.040-0.922 7.564-1.382-2.188-2.082-4.066-4.456-5.794-6.936 3.614-3.090 7.22-6.2 10.878-9.256 1.232 2.126 2.134 4.518 3.818 6.334 3.586 2.506 7.556 4.438 11.186 6.9-7.076 6.068-13.658 12.666-20.486 18.99 0.636 2.384-0.090 6.174 2.984 6.918 2.144 0.674 4.738 2.622 3.392 5.146-4.004 3.49-9.822 3.33-14.818 3.924-3.25-2.648-6.386-5.438-9.478-8.272zM694.686 150.489c7.512-5.748 14.996-11.532 22.516-17.264 3.42 1.312 6.928 2.95 10.684 2.728 2.984-0.628 5.092-3.4 8.166-3.756 2.542 0.806 3.826 4.138 2.206 6.352-3.314 5.226-10.028 6.316-14.218 10.532-1.744 1.708-1.018 4.898-2.886 6.324-3.844-0.54-7.548-3.544-11.506-2.136-1.188 1.4-0.638 3.428-0.93 5.094 0.158 2.816-1.86 5.394-4.5 6.182-5.882-2.134-6.998-9.088-9.532-14.056zM603.782 143.323c8.3-11.63 16.616-23.26 24.942-34.882 4.482 2.552 8.956 5.12 13.438 7.68-2.446 4.368-4.73 8.85-7.822 12.8-1.904-1.78-3.764-3.596-5.65-5.386-2.198 2.71-4.092 5.642-5.908 8.6 2.204 2.056 4.42 4.092 6.634 6.13-3.428 3.092-6.864 6.166-10.292 9.248 2.94 2.010 5.898 4.004 8.75 6.138-0.682 1.178-0.886 2.692-1.974 3.56-1.808 0.86-3.862 0.648-5.794 0.754-5.384-4.944-10.904-9.744-16.324-14.642zM392.166 147.699c3.26-3.048 6.546-6.086 9.814-9.124-1.080-2.356-2.276-4.658-3.614-6.882-2.462 0.62-5.146 0.832-7.334 2.178-2.16 2.33-3.932 4.988-6.066 7.344-5.554-4.97-10.568-10.514-15.802-15.82 2.808-3.012 5.668-5.978 8.546-8.938 4.58 3.614 9.178 7.22 13.766 10.816 1.744-1.852 3.48-3.712 5.234-5.572-3.136-3.498-6.288-6.98-9.416-10.478 2.144-1.744 4.296-3.49 6.458-5.226 7.892 10.32 15.846 20.576 23.712 30.904-5.616 6.024-10.984 12.286-16.972 17.928-2.888-2.242-5.634-4.65-8.326-7.13zM323.388 148.921c-2.942-5.42-5.2-11.426-9.426-16.024-3.906-2.984-7.466-6.67-12.054-8.61-3.126-0.912-4.428 3.022-6.91 4.084-2.506-0.93-4.978-2.178-6.952-4.004-1.266-0.964 0.16-2.17 0.824-2.966 3.436-3.624 6.74-7.406 10.522-10.692 7.352 2.87 12.8 8.636 18.964 13.278 0.46-1.56 0.788-3.162 1.152-4.774 6.378 1.408 10.354 6.908 14.996 11 1.514 1.472 3.648 2.782 3.8 5.112 0.416 1.524-0.71 2.63-1.506 3.738-3.154-2.268-6.094-5.226-9.982-6.13-2.312-0.54-3.49 2.364-3.092 4.216 1.94 0.886 4.518 0.646 5.988 2.392 0.886 1.726 1.142 3.738 1.142 5.65-1.744 2.294-4.952 2.64-7.466 3.73zM680.204 131.763c3.686-4.206 7.176-8.582 10.736-12.904 3.1 0.672 6.148 1.55 9.15 2.56 6.094-4.528 11.958-9.354 17.964-14.004 4.826 5.518 9.672 11.018 14.472 16.562-3.72 0.994-7.528 1.462-11.32 2.002-3.914 1.596-6.766 5.182-10.912 6.334-4.030 0.132-8.194-3.048-12.064-1.028-3.588 3.95-4.464 9.54-6.626 14.288-4.136-4.314-7.82-9.036-11.4-13.81zM575.518 123.083c3.994-5.394 7.998-10.78 11.992-16.174-2.382-2.010-4.596-4.252-6.19-6.952 3.782-3.978 7.688-7.84 11.372-11.922 1.852 0.53 3.702 1.070 5.554 1.602-1.028 1.576-2.596 3.012-2.702 4.988-0.114 2.072 2.090 3.728 4.058 3.258 2.426-0.336 4.286-2.090 6.172-3.516 0.532 1.188 1.082 2.356 1.63 3.526-1.984 4.128-3.932 8.272-5.872 12.426 1.506 2.862 3.792 5.678 3.764 9.054-2.018 2.612-5.35 3.426-8.096 4.976-0.708 1.18-0.672 2.64-0.788 3.952-0.496 3.064 3.57 4.978 1.648 8.104-7.68-4.154-15.058-8.84-22.542-13.322zM425.152 134.589c-2.764-6.12-5.014-12.542-8.556-18.264-4.262-1.824-9.478-2.144-12.8-5.722-1.948-3.472-0.77-7.67-0.372-11.408 5.314 0.734 10.674 1.106 15.962 2.036 4.216 9.974 8.494 19.922 12.728 29.886-2.32 1.17-4.642 2.32-6.962 3.472zM327.63 114.057c-3.294-2.144-7.732 1.392-10.718-1.478-2.498-2.34-5.004-4.748-8.22-6.068-1.656-0.922-4.854-2.020-3.746-4.5 2.834-5.324 7.512-9.354 11.648-13.65 1.452 0.496 2.896 1.020 4.358 1.516-2.738 2.25-6.148 4.092-7.688 7.43 0.3 3.022 4.216 4.27 6.606 2.852 2.95-1.646 5.67-3.958 9.23-4.1-0.716 3.322-2.578 6.28-2.932 9.682 3.084 0.23 5.944-0.896 8.654-2.224 1.232-0.558 3.64-1.426 3.774 0.69-0.134 3.5-0.47 6.99-0.072 10.48 2.986 2.126 5.944 4.304 8.912 6.466-1.418 2.444-2.958 4.934-5.51 6.342-4.242-4.96-8.574-10.124-14.296-13.438zM421.148 91.993c4.022-2.604 7.724-5.784 12.082-7.82 3.384 0.3 6.254 3.134 7.928 5.996-2.304 2.612-5.298 4.394-8.336 5.988 3.074 9.538 6.042 19.114 9.070 28.672-1.576 0.824-3.152 1.646-4.712 2.444-5.34-11.754-10.744-23.49-16.032-35.28zM676.892 126.635c-1.674-2.844-3.356-5.696-5.076-8.512 4.048-4.792 8.026-9.69 12.658-13.96-0.806-2.204-2.038-4.216-3.508-6.050 5.616-4.782 11.072-10.158 17.938-13.1 1.948-1.23 4.242 1.206 3.1 3.11-1.666 3.152-4.43 5.588-5.998 8.804 2.508 0.646 4.81 1.824 7.166 2.87 2.578-0.832 3.818-3.552 5.492-5.482 2.028 1.318 3.88 2.878 5.58 4.596-4.668 5.342-10.628 9.328-16.518 13.18-7.396 4.172-14.022 9.514-20.834 14.544zM557.236 118.425c2.4-13.056 4.978-26.086 7.476-39.124 7.306 1.86 14.614 3.71 21.93 5.57-3.862 4.234-8.45 8.080-10.956 13.322-0.346 3.72 2.090 7.060 3.508 10.372-1.834 1.772-3.526 3.978-6.13 4.554-3.862 0.682-6.288 3.942-8.778 6.626-2.356-0.444-4.704-0.886-7.050-1.32zM455.56 112.109c-4.296-2.028-9.346-3.322-12.446-7.174-0.344-4.34 3.092-7.892 4.182-11.95-0.134-2.604-0.772-5.146-1.222-7.714-1.356-1.144-3.322-1.994-3.596-3.968 0.54-1.162 1.69-1.844 2.958-1.976 3.446-0.496 6.944-0.098 10.408-0.018 1.736 9.062 3.48 18.122 5.226 27.184 1.938 1.25 3.878 2.498 5.8 3.774-0.026 1.664-0.044 3.312-0.052 4.96-3.154 1.044-6.316 2.072-9.47 3.136-0.512-2.074-0.416-4.518-1.788-6.254zM608.494 113.491c2.772-4.88 5.58-9.744 8.326-14.634 2.072 1.472 4.084 3.030 6.032 4.66-2.232 4.11-4.048 8.424-6.084 12.622-2.756-0.912-5.52-1.78-8.274-2.648zM479.058 111.231c-0.822-3.364-1.638-6.748-2.47-10.124-2.33-0.406-4.66-0.814-6.98-1.24-1.798-3.542-3.606-7.094-5.466-10.61-2.86-4.482-1.496-10.010-2.010-15.014 5.324-1.488 10.488-3.792 16.014-4.384 1.498 2.488 2.552 5.26 3.278 8.060 0.080 3.356-3.942 4.924-4.668 7.98 0.612 3.712 4.092 5.996 6.82 8.194-0.026 5.784-0.584 11.54-1.036 17.298-1.16-0.044-2.33-0.098-3.482-0.16zM528.59 110.691c0.054-5.536 0.098-11.080 0.178-16.624 2.576-1.684 5.89-3.27 6.634-6.564 0.098-3.64-2.632-6.466-4.704-9.176 0.088-2.932 0.204-5.874 0.382-8.814 9.362 2.002 18.768 3.8 28.122 5.838 0.16 2.462 0.302 4.924 0.39 7.378-4.332 0.080-8.912-0.204-12.852 1.912 0.328 1.994 0.682 3.978 1.072 5.944 2.594 0.842 5.198 1.674 7.802 2.488-0.282 2.56-0.576 5.12-0.84 7.662-3.748 0.542-7.716 0.134-11.32 1.214-0.744 3.118-0.276 6.546-1.374 9.504-4.508 0-9-0.548-13.49-0.762zM514.63 110.009c-0.452-8.396-0.92-16.784-1.346-25.182-0.23-3.1 0.364-6.174 1.064-9.194 2.948-0.176 5.898-0.328 8.856-0.486-0.698 11.488-0.38 23.002-0.38 34.5-2.738 0.132-5.466 0.248-8.194 0.362zM664.988 104.633c-3.268-0.070-6.298 1.594-9.548 1.638-1.906-1.346-3.668-3.844-2.508-6.234 1.746-4.022 4.058-7.786 6.298-11.552 2.614-3.542 6.104-6.314 9.106-9.522 3.906 0.718 8.83 2.986 12.134-0.336 0.31-2.966-2.178-5.784-2.462-8.866 5.2 0.86 11.080 1.886 14.642 6.164-6.192 8.202-14.836 14.244-20.7 22.702 1.984 3.066 3.614 6.466 3.71 10.178-4.092 0.31-7.032-2.976-10.672-4.172zM357.41 93.783c1.532-2.242 3.702-4.314 4.242-7.068-0.354-2.48-1.48-4.774-2.79-6.892-3.030 1.4-5.624 4.996-9.194 4.358-0.398-4.89 5.882-7.016 6.484-11.7 0.168-1.808-0.062-3.624-0.186-5.448-4.306 1.94-8.53 4.056-12.8 6.076-1.152-2.516-2.134-5.12-2.86-7.804 6.004-4.144 11.142-10.132 18.29-12.222 5.81 5.88 10.284 12.966 15.386 19.46-2.046 2.258-5.404 4.454-5.102 7.846 1.346 2.464 2.94 4.792 3.924 7.432-1.436 1.506-2.772 3.082-3.916 4.81 0.692 2.418 1.284 4.862 1.842 7.308-1.496 1.168-2.984 2.338-4.464 3.498-2.958-3.206-5.916-6.422-8.856-9.654zM384.346 90.479c-1.002-5.714-1.826-11.532-3.642-17.060-3.782-6.112-8.21-11.824-12.214-17.812 2.71-3.1 5.952-5.776 8.334-9.16 0.78-2.922 0.992-5.96 1.498-8.946 2.754 0.31 5.518 0.63 8.282 0.948-0.32 3.392-0.638 6.786-0.956 10.168 2.754 0.116 5.518 0.214 8.272 0.31-2.64 3.642-5.642 7.026-8.070 10.808-0.868 1.204-0.636 2.718 0.222 3.826 2.206 3.276 4.022 6.794 5.608 10.416 1.434 3.482 4.464 6.086 5.358 9.824-4.438 1.868-7.804 5.97-12.692 6.678zM646.174 78.751c-0.912-2.746-2.852-4.996-4.376-7.422 3.8-5.050 7.706-10.036 12.046-14.642 1.728-1.754 3.526-3.64 5.97-4.358 2.402 3.844-1.708 7.98-3.33 11.4 2.276 0.116 4.57 0.212 6.864 0.31 1.994-2.4 3.942-4.846 6.006-7.202 2.074 2.542 4.074 5.13 6.076 7.724-3.498 4.97-9.212 7.574-14.686 9.7-5.536 4.658-8.352 11.736-13.524 16.766-1.302-3.984-0.568-8.192-1.046-12.276zM634.588 88.017c-8.228-4.58-16.262-9.514-24.402-14.244 0.966-2.32 1.976-4.624 3.118-6.882 3.286-0.24 7.042 0.15 9.876-1.868 1.63-5.66-6.156-10.364-2.914-16.112 2.126-4.252 7.148 2.542 9.61-1.072 2.232-2.844 2.79-7.122 6.138-8.982 4.544-1.32 8.752 1.772 11.754 4.854 1.134 1.054 2.064 3.614-0.106 4.048-3.65 1.036-7.556 0.956-11.124 2.348 1.868 1.798 5.402 3.232 4.482 6.438-1.010 4.81-4.288 8.742-6.148 13.224-0.594 1.578-1.648 3.446-0.514 5.014 1.728 2.586 4.544 4.118 6.98 5.944-0.532 2.834-1.134 6.032-3.544 7.9-1.070 0.86-2.214-0.204-3.206-0.61zM410.466 75.385c-0.584-4.074-5.448-3.71-8.53-4.154-2.658-0.204-6.98-0.47-6.936-4.084 0.524-4.144 5.368-5.446 7.52-8.636-2.116-3.56-2.178-7.74-3.188-11.646-1.418-4.926-7.866-5.998-9.398-10.736 1.018-2.72 3.446-4.864 5.828-6.476 5.562 2.676 6.368 9.452 9.106 14.342 2.046 3.366 2.498 7.378 4.322 10.814 3.144 0.178 5.456-5.182 8.46-2.462 2.87 2.48 5.864 4.986 7.882 8.228 1.692 2.898-0.716 5.952-2.214 8.37-1.186 2.118-3.782 2.162-5.774 2.994-1.028 1.082-1.79 2.374-2.8 3.446-1.284 0.904-2.878 0.116-4.278 0zM576.066 60.867c-0.318-7.404 0.976-14.756 1.596-22.108 0.698-5.722-0.31-11.966-3.872-16.626-2.17-2.886-6.138-1.876-9.23-2.116 0.728-3.224 2.33-7.122 5.828-8.042 2.96 0.078 5.846 0.814 8.796 1.106 2.090 0.39 4.572 0.408 6.166 2.038 0.726 4.092-0.718 8.388 0.654 12.392 0.71 2.284 3.606 2.328 5.492 1.674 2.508-1.436 3.154-4.668 5.422-6.386 2.656-1.542 5.854-1.108 8.794-1.002 0.152 2.4 0.48 4.792 0.346 7.192-0.734 4.252-3.224 8.026-6.838 10.364-4.906 6.458-5.084 15.438-9.956 21.896-3.286 1.036-6.626 2.038-10.044 2.488-1.78 0.382-3.234-1.15-3.154-2.87zM435.222 62.215c-3.754-3.41-4.304-8.92-7.528-12.73-1.746-2.062-3.764-4.18-6.43-4.96-2.622-0.434-5.298-0.202-7.928-0.23-1.966-6.004-6.112-11.354-6.306-17.866-0.222-1.754 1.496-2.762 3.028-2.86 1.966-0.186 4.154-0.798 6.032 0.088 2.126 2.924 0.664 7.060 2.604 10.062 1.79 0.744 3.766 0.842 5.67 1.152 0.886-3.73-0.54-7.334-2.1-10.656 1.568-1.656 3.126-3.322 4.704-4.978 4.366 0.878 8.874 0.984 13.224 1.976 2.63 1.524 2.090 5.27 2.79 7.856 0.762 2.604-1.062 4.792-2.444 6.758-0.090 2.844-0.080 5.688-0.054 8.522 2.968 1.248 5.926 2.524 8.876 3.818-2.862 4.198-3.624 9.212-4.128 14.144-3.322 0.062-6.758 0.744-10.010-0.096zM460.68 56.323c-3.792-1.284-4.978-5.5-5.918-8.962-1.336-4.528 0.39-9.7-2.126-13.898-2.276-1.976-4.41-4.182-5.446-7.086-2.312-4.092-0.886-8.964-2.844-13.19 4.598-0.584 9 1.082 13.534 1.294 4.376-0.054 6.21-5.616 10.514-5.748 3.216 2.594 2.896 7.36 3.562 11.072-3.552 3.286-7.92 6.368-9.532 11.116-0.098 4.588 3.934 7.564 6.768 10.584 2.852 2.782 2.754 7.37 1.274 10.788-1.664 1.072-3.56 1.702-5.224 2.746-1.428 0.71-2.88 2.224-4.562 1.284zM559.008 56.403c0.096-4.33 0.202-8.67 0.31-13.020-3.482 0.204-6.954 0.426-10.426 0.63 0.266 2.772 0.452 5.544 0.496 8.308-3.198-0.204-9.080 0.734-9.46-3.766 1.372-6.058 5.926-11.354 5.358-17.846-0.716-6.078-4.296-11.25-6.678-16.742-0.328-2.462-0.744-6.022 1.604-7.6 4.286 0.444 8.512 1.408 12.798 1.87-1.364 4.020-3.808 9.318-0.576 13.028 4.846 3.366 11.224 2.694 16.44 5.192 0.398 9.69-0.956 19.432-1.284 29.15-2.86 0.274-5.73 0.54-8.582 0.796zM489.086 48.945c-0.116-5.048-0.204-10.088-0.328-15.136-4.056-1.33-8.176-2.454-12.25-3.73 1.506-3.56 5.216-6.608 4.278-10.832-0.576-4.394-1.914-8.646-3.126-12.898 1.886-0.096 3.782-0.202 5.676-0.318 0.48 3.046 0.896 6.102 1.72 9.070 1.134 5.59 7.75 6.378 12.144 8.308-0.55 8.566-1.064 17.13-1.604 25.688-2.18-0.044-4.34-0.098-6.51-0.152zM525.18 48.981c-1.266-14.278-4.164-28.628-2.878-42.994 3.542 0.052 7.094 0.238 10.638 0.496-0.036 5.074-0.116 10.142-0.152 15.2 3.136 1.036 6.272 2.31 8.646 4.684-2.002 3.242-5.182 5.368-8.318 7.362 0.196 4.818 0.426 9.628 0.62 14.428-2.852 0.336-5.704 0.63-8.556 0.824zM503.452 44.145c0.204-8.008 0.478-16.086-0.708-24.040-0.284-1.46-0.532-3.056-1.506-4.268-2.002-0.79-4.162-1.1-6.192-1.816-3.666-0.85-3.702-5.342-4.818-8.23 2.782-0.362 5.59-0.344 8.37-0.744 3.322-0.478 6.448-1.798 9.744-2.408 1.098-0.062 2.844-0.656 3.312 0.788 0.39 6.058-0.398 12.152 0.416 18.194 1.658 0.54 3.322 1.070 4.978 1.62 0.098 4.712 0.302 9.514-0.964 14.102-1.844 0.672-3.534 1.664-4.89 3.082 1.434 1.974 3.046 3.96 3.1 6.518-2.834 0.062-5.704 0.418-8.512-0.114-1.266-0.178-2.516-1.302-2.33-2.684z"/>
</g>
</svg>