<svg xmlns="http://www.w3.org/2000/svg" width="32" height="32" viewBox="0 0 1024 1024">
<title>x</title>
<g transform="translate(0,960) scale(1,-1)">
<path fill="#444" d="M583.622-3.333v44.304c63.196 7 94.856 25.356 94.856 54.852 0 21.258-8.454 42.516-25.304 63.774l-174.794 215.134-138.044-162.742c-34.534-39.95-51.91-72.992-51.91-98.818 0-39.99 31.632-64.112 95.004-72.388v-44.116h-336.622v44.17c42.622 8.182 78.838 23.542 108.87 45.902 20.68 16.434 48.872 45.298 84.454 86.51l207.596 240.734-240.088 291.056c-31.108 37.584-55.376 62.256-72.576 74.040-23.166 16.46-55.376 27.036-96.79 31.726v45.862h396.93v-44.142c-59.836-11.784-89.708-30.020-89.708-54.744 0-16.528 7.982-34.75 24.094-54.718l158.776-192.452 127.764 157.098c22.992 28.272 34.534 52.958 34.534 74.174 0 35.328-28.284 58.32-84.668 68.922v45.862h315.942v-44.222c-27.614-5.9-46.668-11.208-56.84-15.964-34.536-16.516-87.29-65.428-158.524-146.738-11.448-13.022-59.836-72.468-144.976-178.518l255.004-313.94c55.268-68.236 111.598-107.11 169.124-116.448v-44.17h-402.104z"/>
</g>
</svg>